<?xml version="1.0" encoding="UTF-8" standalone="no"?>
<svg
   width="3840"
   height="730"
   viewBox="0 0 1015.999 193.14583"
   version="1.1"
   id="svg18"
   sodipodi:docname="logo.svg"
   inkscape:version="1.2 (dc2aedaf03, 2022-05-15)"
   xmlns:inkscape="http://www.inkscape.org/namespaces/inkscape"
   xmlns:sodipodi="http://sodipodi.sourceforge.net/DTD/sodipodi-0.dtd"
   xmlns:xlink="http://www.w3.org/1999/xlink"
   xmlns="http://www.w3.org/2000/svg"
   xmlns:svg="http://www.w3.org/2000/svg">
  <sodipodi:namedview
     id="namedview20"
     pagecolor="#505050"
     bordercolor="#ffffff"
     borderopacity="1"
     inkscape:showpageshadow="0"
     inkscape:pageopacity="0"
     inkscape:pagecheckerboard="1"
     inkscape:deskcolor="#505050"
     showgrid="false"
     showguides="true"
     inkscape:zoom="0.46354778"
     inkscape:cx="1666.4949"
     inkscape:cy="638.55338"
     inkscape:window-width="3840"
     inkscape:window-height="2083"
     inkscape:window-x="0"
     inkscape:window-y="48"
     inkscape:window-maximized="1"
     inkscape:current-layer="svg18" />
  <defs
     id="defs8">
    <linearGradient
       id="a">
      <stop
         style="stop-color:#ff0037;stop-opacity:1"
         offset="0"
         id="stop2" />
      <stop
         style="stop-color:#ff4870;stop-opacity:1"
         offset="1"
         id="stop4" />
    </linearGradient>
    <linearGradient
       xlink:href="#a"
       id="b"
       x1="30.186001"
       y1="41.345001"
       x2="227.892"
       y2="41.345001"
       gradientUnits="userSpaceOnUse" />
  </defs>
  <g
     id="g2626"
     transform="scale(4.0634888,4.0508552)">
    <path
       d="m 62.22,8.9 v 22.85 h -5.084 v -2.953 c -0.882667,1.084 -1.979333,1.897333 -3.29,2.44 -1.281333,0.541333 -2.705333,0.812 -4.272,0.812 -2.221333,0 -4.214667,-0.484667 -5.98,-1.454 -1.738,-0.97 -3.105333,-2.339333 -4.102,-4.108 -0.968,-1.768667 -1.452,-3.822667 -1.452,-6.162 0,-2.339333 0.484,-4.379 1.452,-6.119 0.996667,-1.768667 2.363667,-3.138 4.101,-4.108 1.766,-0.97 3.759667,-1.455 5.981,-1.455 1.481333,0 2.834333,0.2566667 4.059,0.77 1.253333,0.5133333 2.335667,1.269667 3.247,2.269 V 8.9 Z M 50.172,27.47 c 1.965333,0 3.588667,-0.655667 4.87,-1.967 1.282,-1.312667 1.923,-3.038667 1.923,-5.178 0,-2.14 -0.640667,-3.866 -1.922,-5.178 -1.282,-1.312 -2.905333,-1.968 -4.87,-1.968 -1.965333,0 -3.588667,0.656 -4.87,1.968 -1.253333,1.312667 -1.88,3.038667 -1.88,5.178 0,2.14 0.626667,3.866 1.88,5.178 1.281333,1.312 2.904667,1.968 4.87,1.968 z M 74.31,12.238 c 1.538,-2.3966667 4.243667,-3.595 8.117,-3.595 v 5.092 c -0.456,-0.08533 -0.869333,-0.128 -1.24,-0.128 -2.078667,0 -3.702,0.613333 -4.87,1.84 -1.166667,1.198 -1.75,2.938 -1.75,5.22 V 31.75 H 69.226 V 8.9 H 74.31 Z M 94.474,32.05 c -2.364,0 -4.215333,-0.642 -5.554,-1.926 -1.31,-1.312 -1.965,-3.152 -1.965,-5.52 V 0 h 5.34 v 24.219 c 0,2.282 1.068,3.423 3.204,3.423 0.712,0 1.353,-0.142667 1.923,-0.428 l 0.256,4.28 c -0.996667,0.37 -2.064667,0.555 -3.204,0.555 z M 123.183,8.9 v 22.85 h -5.084 v -2.953 c -0.88267,1.084 -1.97933,1.897333 -3.29,2.44 -1.28133,0.541333 -2.70533,0.812 -4.272,0.812 -2.22133,0 -4.21467,-0.484667 -5.98,-1.454 -1.738,-0.97 -3.10533,-2.339333 -4.102,-4.108 -0.968,-1.768667 -1.452,-3.822667 -1.452,-6.162 0,-2.339333 0.484,-4.379 1.452,-6.119 0.99667,-1.768667 2.36367,-3.138 4.101,-4.108 1.766,-0.97 3.75967,-1.455 5.981,-1.455 1.48133,0 2.83433,0.2566667 4.059,0.77 1.25333,0.5133333 2.33567,1.269667 3.247,2.269 V 8.9 Z m -12.048,18.57 c 1.96533,0 3.58867,-0.655667 4.87,-1.967 1.282,-1.312667 1.923,-3.038667 1.923,-5.178 0,-2.14 -0.64067,-3.866 -1.922,-5.178 -1.282,-1.312 -2.90533,-1.968 -4.87,-1.968 -1.96533,0 -3.58867,0.656 -4.87,1.968 -1.25333,1.312667 -1.88,3.038667 -1.88,5.178 0,2.14 0.62667,3.866 1.88,5.178 1.28133,1.312 2.90467,1.968 4.87,1.968 z M 143.133,8.643 c 2.87667,0 5.18367,0.8416667 6.921,2.525 1.73733,1.683333 2.606,4.179333 2.606,7.488 V 31.75 h -5.34 V 19.34 c 0,-1.996 -0.47,-3.493333 -1.41,-4.492 -0.94,-1.026667 -2.27833,-1.54 -4.015,-1.54 -1.96533,0 -3.51767,0.599 -4.657,1.797 -1.13933,1.169333 -1.709,2.866667 -1.709,5.092 V 31.75 h -5.34 V 8.9 h 5.084 v 2.953 c 0.88267,-1.056 1.99333,-1.855 3.332,-2.397 1.33867,-0.542 2.848,-0.813 4.528,-0.813 z M 182.01,0 v 31.75 h -5.127 v -2.953 c -0.88267,1.084 -1.97933,1.897333 -3.29,2.44 -1.28133,0.541333 -2.70533,0.812 -4.272,0.812 -2.19333,0 -4.17267,-0.484667 -5.938,-1.454 -1.73733,-0.97 -3.10433,-2.339333 -4.101,-4.108 -0.99667,-1.797333 -1.495,-3.851333 -1.495,-6.162 0,-2.310667 0.49833,-4.350333 1.495,-6.119 0.99667,-1.768667 2.36367,-3.138 4.101,-4.108 1.766,-0.97 3.74533,-1.455 5.938,-1.455 1.51,0 2.89133,0.2566667 4.144,0.77 1.25333,0.5133333 2.32133,1.283667 3.204,2.311 V 0 Z m -12.048,27.47 c 1.282,0 2.43533,-0.285 3.46,-0.855 1.026,-0.598667 1.838,-1.44 2.436,-2.524 0.598,-1.084 0.897,-2.339333 0.897,-3.766 0,-1.426667 -0.299,-2.681667 -0.897,-3.765 -0.598,-1.084 -1.40967,-1.911333 -2.435,-2.482 -1.02533,-0.599333 -2.17867,-0.899 -3.46,-0.899 -1.282,0 -2.43567,0.299667 -3.461,0.899 -1.02533,0.570667 -1.837,1.398 -2.435,2.482 -0.598,1.084 -0.897,2.339 -0.897,3.765 0,1.426667 0.299,2.682 0.897,3.766 0.598,1.084 1.40967,1.925333 2.435,2.524 1.02533,0.570667 2.17867,0.856 3.46,0.856 z"
       style="font-weight:600;font-size:42.7553px;line-height:1.25;font-family:'Montserrat Alternates';-inkscape-font-specification:'Montserrat Alternates Semi-Bold';fill:#ff0037;fill-opacity:1;stroke-width:1.06888"
       id="path10"
       transform="matrix(0.99756,0,0,0.99251,-8.628,0)"
       sodipodi:nodetypes="cccccsccsccsccccccscscsccccccscscccccccsccsscccccccccsccsccsccccccscscscccsssccscscscccccsscccccsccsscsccccccssccscsssccc" />
    <path
       d="m 197.987,19.812 -5.81,5.305 v 6.633 h -2.136 V 0 h 2.136 V 22.465 L 206.446,9.414 h 2.734 l -9.612,9.028 10.552,13.308 h -2.649 z m 25.419,10.183 q 2.179,0 4.016,-0.77 1.88,-0.813 3.119,-2.353 l 1.238,1.412 q -1.452,1.797 -3.63,2.738 -2.18,0.899 -4.786,0.899 -3.332,0 -5.98,-1.455 -2.606,-1.455 -4.102,-4.022 -1.452,-2.567 -1.452,-5.862 0,-3.295 1.367,-5.862 1.41,-2.568 3.887,-4.023 2.478,-1.454 5.597,-1.454 2.905,0 5.212,1.369 2.35,1.326 3.717,3.722 1.41,2.354 1.538,5.306 l -18.84,3.68 q 0.811,3.081 3.246,4.878 2.435,1.797 5.853,1.797 z m -0.726,-18.87 q -2.52,0 -4.529,1.198 -2.007,1.156 -3.118,3.295 -1.11,2.097 -1.11,4.793 0,0.47 0.084,1.326 L 231.01,18.4 q -0.299,-2.012 -1.41,-3.68 -1.11,-1.67 -2.904,-2.61 -1.795,-0.985 -4.016,-0.985 z m 36.612,-1.711 v 19.94 q 0,5.562 -2.478,8.215 -2.478,2.653 -7.476,2.653 -2.863,0 -5.383,-0.941 -2.52,-0.942 -4.059,-2.61 l 1.154,-1.626 q 1.495,1.54 3.631,2.396 2.136,0.856 4.571,0.856 4.059,0 5.981,-2.14 1.923,-2.096 1.923,-6.547 v -3.423 q -1.154,2.225 -3.333,3.509 -2.136,1.24 -4.998,1.24 -4.357,0 -6.835,-2.438 -2.478,-2.44 -2.478,-7.018 V 9.414 h 2.136 v 11.895 q 0,3.766 1.922,5.734 1.923,1.968 5.426,1.968 3.76,0 5.938,-2.353 2.222,-2.354 2.222,-6.333 V 9.414 Z"
       style="font-weight:300;font-size:42.7553px;line-height:1.25;font-family:'Montserrat Alternates';-inkscape-font-specification:'Montserrat Alternates Light';fill:#ff4870;fill-opacity:1;stroke-width:1.06888"
       transform="matrix(0.99756,0,0,0.99251,-8.628,0)"
       id="path12" />
    <path
       id="path14"
       style="fill:#ff0037;fill-opacity:1;stroke:none;stroke-width:0.374658;stroke-linecap:round;stroke-linejoin:round;stroke-opacity:1;paint-order:stroke fill markers;stop-color:#000000"
       d="M 20.554807,6.3830697 18.439692,9.0759273 A 12.470498,12.407368 0 0 0 12.48657,7.5690433 C 5.5904442,7.5690433 0,13.140114 0,20.013239 0,26.885371 5.5904442,32.456401 12.48657,32.456401 l 0.144694,-0.0021 c 3.157274,0.06054 5.677207,2.140747 5.678204,4.686533 0,2.590448 -2.605626,4.6886 -5.818764,4.6886 -3.2141352,0 -5.8192799,-2.099144 -5.8192799,-4.6886 a 3.8206548,3.8013133 0 0 1 0.012402,-0.22841 H 0.34933251 a 9.236408,9.1896501 0 0 0 -0.007235,0.22841 c 0,5.820073 5.43902419,10.539403 12.14860649,10.539403 6.708584,0 12.14809,-4.71838 12.14809,-10.540437 -0.002,-2.95073 -1.43036,-5.766336 -3.937226,-7.761279 2.713361,-2.362171 4.269577,-5.776403 4.271572,-9.365315 a 12.519378,12.456 0 0 0 -2.353343,-7.26622 L 24.933866,9.799397 Z M 12.43231,13.075681 c 1.95987,0 3.579746,0.651197 4.858616,1.953368 1.278204,1.302173 1.917194,3.015248 1.917194,5.139219 0,2.123309 -0.639357,3.836385 -1.918228,5.139219 -1.278205,1.30151 -2.897564,1.952334 -4.858099,1.952334 l 5.17e-4,0.001 c -1.960535,0 -3.5798926,-0.651196 -4.8580991,-1.953368 -1.250274,-1.302173 -1.8753368,-3.015249 -1.8753368,-5.139219 0,-2.123309 0.6250628,-3.836384 1.8753368,-5.139219 1.2782065,-1.302171 2.8975641,-1.953368 4.8580991,-1.953368 z" />
    <path
       style="fill:url(#b);fill-opacity:1;stroke:none;stroke-width:0.233688px;stroke-linecap:butt;stroke-linejoin:miter;stroke-opacity:1"
       d="m 30.186,40.354 1.787,2.98 142.843,-4.534 -139.994,5.423 2.292,3.097 190.778,-7.304 -61.663,1.005 60.28,-3.245 -3.085,-2.406 z"
       id="path16" />
  </g>
</svg>
