<?xml version="1.0" encoding="UTF-8" standalone="no"?>
<!-- Generator: Adobe Illustrator 25.0.0, SVG Export Plug-In . SVG Version: 6.00 Build 0)  -->

<svg
   version="1.1"
   id="Layer_1"
   x="0px"
   y="0px"
   viewBox="0 0 300 300"
   xml:space="preserve"
   sodipodi:docname="ai.svg"
   width="300"
   height="300"
   inkscape:version="1.2 (dc2aedaf03, 2022-05-15)"
   xmlns:inkscape="http://www.inkscape.org/namespaces/inkscape"
   xmlns:sodipodi="http://sodipodi.sourceforge.net/DTD/sodipodi-0.dtd"
   xmlns="http://www.w3.org/2000/svg"
   xmlns:svg="http://www.w3.org/2000/svg"><defs
   id="defs2661">
	
	
	
</defs><sodipodi:namedview
   id="namedview2659"
   pagecolor="#505050"
   bordercolor="#ffffff"
   borderopacity="1"
   inkscape:showpageshadow="0"
   inkscape:pageopacity="0"
   inkscape:pagecheckerboard="1"
   inkscape:deskcolor="#505050"
   showgrid="false"
   inkscape:zoom="0.6675088"
   inkscape:cx="329.58367"
   inkscape:cy="370.78163"
   inkscape:window-width="1393"
   inkscape:window-height="1236"
   inkscape:window-x="2120"
   inkscape:window-y="472"
   inkscape:window-maximized="0"
   inkscape:current-layer="Layer_1" />
<style
   type="text/css"
   id="style2652">
	.st0{fill:#330000;}
	.st1{fill:#FF9A00;}
</style>
<g
   id="g368"
   transform="matrix(1.830897,0,0,1.8181817,-117.10482,-114.69224)"><path
     id="_30"
     class="st1"
     d="m 146.29499,182.59643 h -45.80098 l -9.38603,30.55032 c -0.28229,1.05833 -1.27029,1.83444 -2.39944,1.76388 H 65.49047 c -1.34086,0 -1.76429,-0.70555 -1.41143,-2.18721 L 103.59916,98.56538 c 0.42343,-1.19943 0.77628,-2.53998 1.19971,-4.09219 0.56457,-2.18721 0.77629,-4.51552 0.77629,-6.77328 -0.0706,-0.635 0.35285,-1.26999 1.05857,-1.4111 0.14114,0 0.21172,0 0.35286,0 h 31.54552 c 0.91744,0 1.48201,0.35277 1.55258,0.98777 l 45.09527,125.58795 c 0.42343,1.34055 0,1.97555 -1.19972,1.97555 h -25.75865 c -0.91742,0.0705 -1.76428,-0.49389 -1.976,-1.41111 z m -38.88497,-21.09596 h 33.5921 c -0.77629,-2.61054 -3.52859,-8.74882 -4.58716,-12.06491 -1.05857,-3.31609 -2.54057,-5.92662 -3.66972,-9.66604 -1.19972,-3.73942 -2.39943,-7.54939 -3.59915,-11.28881 -1.19973,-3.73941 -2.2583,-7.40827 -3.31687,-10.93603 -0.98801,-3.52775 -1.90543,-6.70272 -2.68173,-9.59548 h -0.21171 c -1.12914,5.36218 -2.54057,10.65381 -4.16372,15.87488 -1.83487,5.92663 -3.7403,11.99436 -5.64573,18.2032 -1.90544,6.2794 -3.88145,14.25212 -5.71631,19.47319 z"
     style="stroke-width:0.705633" /><path
     id="_31"
     class="st1"
     d="m 212.13832,107.10254 c -4.09315,0.14111 -8.04516,-1.4111 -10.9386,-4.37441 -2.82286,-3.03387 -4.30487,-7.12606 -4.16373,-11.28881 -0.14114,-4.16274 1.48201,-8.11383 4.44602,-11.00658 2.96401,-2.8222 6.91602,-4.37441 11.00917,-4.2333 4.16373,-0.21167 8.25688,1.34054 11.22089,4.2333 2.75229,2.96331 4.2343,6.91439 4.09316,11.00658 0.14114,4.16275 -1.34087,8.25494 -4.23431,11.28881 -3.03457,2.96331 -7.1983,4.58608 -11.4326,4.37441 z m -12.84404,105.9031 v -90.59266 c 0,-1.19943 0.49401,-1.76387 1.55258,-1.76387 h 22.51235 c 1.05857,0 1.55258,0.56444 1.55258,1.76387 v 90.59266 c 0,1.34055 -0.49401,1.97555 -1.55258,1.97555 h -22.30063 c -1.12915,0 -1.7643,-0.635 -1.7643,-1.97555 z"
     style="stroke-width:0.705633" /></g>
<style
   type="text/css"
   id="style2652-5">
	.st0{fill:#330000;}
	.st1{fill:#FF9A00;}
</style></svg>
