<?xml version="1.0" encoding="UTF-8" standalone="no"?>
<svg
   viewBox="0 0 225 345"
   version="1.1"
   id="svg6"
   sodipodi:docname="css3.svg"
   width="225"
   height="345"
   inkscape:version="1.1.2 (0a00cf5339, 2022-02-04, custom)"
   xmlns:inkscape="http://www.inkscape.org/namespaces/inkscape"
   xmlns:sodipodi="http://sodipodi.sourceforge.net/DTD/sodipodi-0.dtd"
   xmlns="http://www.w3.org/2000/svg"
   xmlns:svg="http://www.w3.org/2000/svg">
  <defs
     id="defs10" />
  <sodipodi:namedview
     id="namedview8"
     pagecolor="#505050"
     bordercolor="#ffffff"
     borderopacity="1"
     inkscape:pageshadow="0"
     inkscape:pageopacity="0"
     inkscape:pagecheckerboard="1"
     showgrid="false"
     inkscape:zoom="1.9596959"
     inkscape:cx="270.70526"
     inkscape:cy="226.56576"
     inkscape:window-width="1895"
     inkscape:window-height="2063"
     inkscape:window-x="1925"
     inkscape:window-y="58"
     inkscape:window-maximized="1"
     inkscape:current-layer="svg6" />
  <g
     id="g4826"
     transform="matrix(0.92178661,0,0,0.92829768,-124.31539,-14.902553)">
    <path
       id="polygon2993"
       style="fill:#ebebeb;stroke-width:0.858472"
       d="m 134.86352,113.08194 3.54464,38.98481 h 94.20895 54.79658 l -3.54778,39.92008 h -51.2488 -90.73189 l 3.49277,38.98323 h 87.23912 47.86763 l -4.52394,50.55873 -43.47887,11.73427 v 0.003 l -0.0361,0.009 -43.416,-11.72326 -2.77598,-31.09069 h -21.09659 -18.03603 l 5.46079,61.20995 79.85432,22.16857 0.18077,-0.0503 v -0.006 l 79.78358,-22.11197 0.58631,-6.58629 9.15949,-102.6312 0.951,-10.46731 7.03899,-78.90489 h -97.51937 -0.13518 z" />
    <g
       id="g4819"
       transform="translate(116.25952)">
      <path
         id="path2999"
         d="M 35.973591,16.053636 H 83.189412 V 35.798429 H 55.718384 V 55.543225 H 83.189412 V 75.288024 H 35.973591 Z"
         inkscape:connector-curvature="0"
         style="fill:#ebebeb;fill-opacity:1;stroke:none;stroke-width:0.858472" />
      <path
         id="path3001"
         d="m 92.632572,16.053636 h 47.215808 v 17.169385 h -27.47102 v 3.43388 h 27.47102 V 76.146485 H 92.632572 v -18.02785 h 27.471008 v -3.43388 H 92.632572 Z"
         inkscape:connector-curvature="0"
         style="fill:#ebebeb;fill-opacity:1;stroke:none;stroke-width:0.858472" />
      <path
         id="path3003"
         d="m 149.29154,16.053636 h 47.21582 v 17.169386 h -27.47103 v 3.43388 h 27.47103 v 39.489583 h -47.21582 v -18.02785 h 27.47102 v -3.43388 h -27.47102 z"
         inkscape:connector-curvature="0"
         style="fill:#ebebeb;fill-opacity:1;stroke:none;stroke-width:0.858472" />
    </g>
  </g>
</svg>
