<?xml version="1.0" encoding="UTF-8" standalone="no"?>
<svg
   viewBox="0 0 245 285"
   version="1.1"
   id="svg6"
   sodipodi:docname="html5.svg"
   width="245"
   height="285"
   inkscape:version="1.1.2 (0a00cf5339, 2022-02-04, custom)"
   xmlns:inkscape="http://www.inkscape.org/namespaces/inkscape"
   xmlns:sodipodi="http://sodipodi.sourceforge.net/DTD/sodipodi-0.dtd"
   xmlns="http://www.w3.org/2000/svg"
   xmlns:svg="http://www.w3.org/2000/svg">
  <defs
     id="defs10" />
  <sodipodi:namedview
     id="namedview8"
     pagecolor="#505050"
     bordercolor="#ffffff"
     borderopacity="1"
     inkscape:pageshadow="0"
     inkscape:pageopacity="0"
     inkscape:pagecheckerboard="1"
     showgrid="false"
     inkscape:zoom="1.9596959"
     inkscape:cx="186.50853"
     inkscape:cy="226.56576"
     inkscape:window-width="1895"
     inkscape:window-height="2063"
     inkscape:window-x="1925"
     inkscape:window-y="58"
     inkscape:window-maximized="1"
     inkscape:current-layer="svg6" />
  <g
     id="g13621"
     transform="translate(-11.84226,-0.47010637)">
    <path
       d="M 11.84226,0.47010637 H 27.4903 V 15.98208 H 41.91371 V 0.47010637 H 57.56176 V 47.414236 H 41.91371 V 31.766193 H 27.62637 V 47.414236 H 11.84226 M 78.24439,16.11815 H 64.43329 V 0.47010637 h 43.33828 V 16.11815 H 93.89243 V 47.414236 H 78.24439 M 114.6431,0.47010637 h 16.39643 L 141.1087,17.002604 151.17788,0.47010637 h 16.39643 V 47.414236 H 151.92626 V 24.146276 L 140.97263,41.018949 130.019,24.146276 v 23.26796 H 114.6431 M 175.33029,0.47010637 h 15.64805 V 31.902263 h 22.1794 v 15.511973 h -37.82745"
       id="path5080"
       style="fill:#ebebeb;fill-opacity:1;stroke:none;stroke-width:0.68035" />
    <path
       id="path5086"
       d="m 35.076335,78.4156 8.4366,93.34478 h 68.987735 v 0.0678 h 38.09958 l -3.60638,40.14064 -34.42543,9.23388 -34.493205,-9.23388 -2.17792,-24.69723 h -31.02368 l 4.3545,48.50946 63.408075,17.6891 v -0.17408 l 63.13697,-17.51502 8.50437,-94.84101 h -71.64134 -0.13554 -40.685455 l -2.85693,-31.63626 h 43.542385 0.13554 74.43052 l 2.85694,-30.88814 h -77.28746 -0.13554 z"
       style="fill:#ebebeb;fill-opacity:1;stroke:none;stroke-width:0.68035" />
  </g>
</svg>
