<?xml version="1.0" encoding="UTF-8" standalone="no"?>
<svg
   viewBox="0 0 300 300"
   version="1.1"
   id="svg6"
   sodipodi:docname="js.svg"
   width="300"
   height="300"
   inkscape:version="1.2 (dc2aedaf03, 2022-05-15)"
   xmlns:inkscape="http://www.inkscape.org/namespaces/inkscape"
   xmlns:sodipodi="http://sodipodi.sourceforge.net/DTD/sodipodi-0.dtd"
   xmlns="http://www.w3.org/2000/svg"
   xmlns:svg="http://www.w3.org/2000/svg">
  <defs
     id="defs10" />
  <sodipodi:namedview
     id="namedview8"
     pagecolor="#505050"
     bordercolor="#ffffff"
     borderopacity="1"
     inkscape:pageshadow="0"
     inkscape:pageopacity="0"
     inkscape:pagecheckerboard="1"
     showgrid="false"
     inkscape:zoom="1.3857143"
     inkscape:cx="176.4433"
     inkscape:cy="314.63917"
     inkscape:window-width="3840"
     inkscape:window-height="2083"
     inkscape:window-x="0"
     inkscape:window-y="48"
     inkscape:window-maximized="1"
     inkscape:current-layer="svg6"
     inkscape:showpageshadow="0"
     inkscape:deskcolor="#505050" />
  <path
     d="m 185.92934,235.67576 c 9.16928,15.06157 21.09877,26.13241 42.19754,26.13241 17.72442,0 29.04694,-8.91192 29.04694,-21.22577 0,-14.75627 -11.63323,-19.98275 -31.14237,-28.56755 l -10.6939,-4.61587 c -30.86779,-13.22976 -51.37406,-29.8033 -51.37406,-64.84035 0,-32.27479 24.44422,-56.84434 62.64601,-56.84434 27.19719,0 46.74968,9.522517 60.83962,34.45552 l -33.31006,21.51653 c -7.33398,-13.22976 -15.24602,-18.4417 -27.52956,-18.4417 -12.5292,0 -20.47014,7.996 -20.47014,18.4417 0,12.90991 7.94817,18.13639 26.30121,26.1324 l 10.69389,4.60861 C 279.47927,188.10679 300,204.09153 300,240.02995 300,278.77424 269.74638,300 229.11679,300 c -39.7264,0 -65.39175,-19.04503 -77.94985,-44.00711 z m -151.109138,3.72905 c 6.719815,11.99401 12.832679,22.1344 27.529565,22.1344 14.053804,0 22.919626,-5.53178 22.919626,-27.04104 V 88.171245 H 128.04499 V 235.0797 c 0,44.55956 -25.96883,64.84034 -63.87437,64.84034 C 29.921241,299.92004 10.086948,282.08895 0,260.6124 Z"
     id="path4"
     style="stroke-width:0.724729" />
</svg>
