<?xml version="1.0" encoding="UTF-8" standalone="no"?>
<svg
   viewBox="0 0 420 300"
   version="1.1"
   id="svg6"
   sodipodi:docname="js.svg"
   width="420"
   height="300"
   inkscape:version="1.2 (dc2aedaf03, 2022-05-15)"
   xmlns:inkscape="http://www.inkscape.org/namespaces/inkscape"
   xmlns:sodipodi="http://sodipodi.sourceforge.net/DTD/sodipodi-0.dtd"
   xmlns="http://www.w3.org/2000/svg"
   xmlns:svg="http://www.w3.org/2000/svg">
  <defs
     id="defs10" />
  <sodipodi:namedview
     id="namedview8"
     pagecolor="#505050"
     bordercolor="#ffffff"
     borderopacity="1"
     inkscape:pageshadow="0"
     inkscape:pageopacity="0"
     inkscape:pagecheckerboard="1"
     showgrid="false"
     inkscape:zoom="1.3857143"
     inkscape:cx="245.72165"
     inkscape:cy="314.63917"
     inkscape:window-width="3840"
     inkscape:window-height="2083"
     inkscape:window-x="0"
     inkscape:window-y="48"
     inkscape:window-maximized="1"
     inkscape:current-layer="svg6"
     inkscape:showpageshadow="0"
     inkscape:deskcolor="#505050" />
  <path
     d="m 260.30107,209.94606 c 12.837,21.0862 29.53828,36.58537 59.07656,36.58537 24.81419,0 40.66572,-12.47668 40.66572,-29.71607 0,-20.65878 -16.28652,-27.97585 -43.59932,-39.99457 l -14.97146,-6.46223 C 258.25767,151.8369 229.54888,128.63394 229.54888,79.582074 229.54888,34.397367 263.7708,0 317.2533,0 c 38.07606,0 65.44955,13.331524 85.17547,48.237728 L 355.79469,78.360866 C 345.52711,59.839207 334.45025,52.542487 317.2533,52.542487 c -17.54088,0 -28.6582,11.19441 -28.6582,25.818379 0,18.073883 11.12744,25.390954 36.8217,36.585364 l 14.97145,6.45205 C 391.27098,143.3495 420,165.72814 420,216.04193 420,270.28393 377.64493,300 320.76351,300 c -55.61696,0 -91.54845,-26.66305 -109.1298,-61.60996 z m -211.552787,5.22067 c 9.407741,16.79161 17.965751,30.98816 38.541391,30.98816 19.675326,0 32.087476,-7.7445 32.087476,-37.85746 V 3.4397367 h 59.88584 V 209.11157 c 0,62.38339 -36.35637,90.77648 -89.424122,90.77648 -47.949131,0 -75.717141,-24.96353 -89.838868,-55.0307 z"
     id="path4"
     style="stroke-width:1.01462" />
</svg>
