<?xml version="1.0" encoding="UTF-8" standalone="no"?>
<!-- Generator: Adobe Illustrator 25.0.0, SVG Export Plug-In . SVG Version: 6.00 Build 0)  -->

<svg
   version="1.1"
   id="Layer_1"
   x="0px"
   y="0px"
   viewBox="0 0 300 300"
   xml:space="preserve"
   sodipodi:docname="Adobe Lightroom Classic CC.svg"
   width="300"
   height="300"
   inkscape:version="1.2 (dc2aedaf03, 2022-05-15)"
   xmlns:inkscape="http://www.inkscape.org/namespaces/inkscape"
   xmlns:sodipodi="http://sodipodi.sourceforge.net/DTD/sodipodi-0.dtd"
   xmlns="http://www.w3.org/2000/svg"
   xmlns:svg="http://www.w3.org/2000/svg"><defs
   id="defs3469">
	
	
	
	
</defs><sodipodi:namedview
   id="namedview3467"
   pagecolor="#505050"
   bordercolor="#ffffff"
   borderopacity="1"
   inkscape:showpageshadow="0"
   inkscape:pageopacity="0"
   inkscape:pagecheckerboard="1"
   inkscape:deskcolor="#505050"
   showgrid="false"
   inkscape:zoom="0.472"
   inkscape:cx="45.550847"
   inkscape:cy="250"
   inkscape:window-width="3840"
   inkscape:window-height="2083"
   inkscape:window-x="0"
   inkscape:window-y="48"
   inkscape:window-maximized="1"
   inkscape:current-layer="Layer_1" />
<style
   type="text/css"
   id="style3459">
	.st0{fill:#001E36;}
	.st1{fill:#31A8FF;}
</style>
<path
   id="_36"
   class="st1"
   d="m 110.4446,212.08843 v 0 c -0.14114,0.7761 -0.56457,1.48165 -1.19972,1.97554 -0.63514,0.49389 -1.41143,0.70555 -2.18772,0.70555 H 39.167255 c -0.917431,0.0706 -1.764291,-0.35277 -2.399436,-0.98777 -0.564573,-0.70555 -0.846859,-1.55221 -0.846859,-2.46943 V 92.63876 c -0.141143,-1.55221 1.058574,-2.96331 2.61115,-3.03387 0.141143,0 0.282287,0 0.42343,0 h 19.760056 c 0.776288,0 1.482005,0.28222 2.046578,0.84666 0.423429,0.56444 0.705716,1.26999 0.635144,1.97554 v 101.88147 h 49.117852 c 0.84686,-0.0705 1.76429,0.28222 2.32887,0.91722 0.56457,0.70555 0.77628,1.62276 0.494,2.46942 z"
   style="stroke-width:0.705633" /><path
   id="_37"
   class="st1"
   d="m 119.76006,122.48354 c 0.56457,-0.56444 1.34086,-0.91722 2.11715,-0.84666 h 17.36062 c 0.77628,0 1.55257,0.21166 2.18772,0.70555 0.63514,0.49388 1.05857,1.05832 1.34086,1.83443 0.84686,2.39887 1.41143,4.8683 1.62315,7.40828 6.91602,-7.54939 16.79604,-11.78269 27.02893,-11.50047 1.482,-0.0706 2.75229,0.98777 2.89344,2.46942 0,0.14111 0,0.21167 0,0.35278 v 18.69708 c 0.14114,1.48166 -0.98801,2.75165 -2.47001,2.89276 -0.28229,0 -0.494,0 -0.77629,-0.0706 -10.37403,-0.56444 -18.34862,2.11665 -24.06492,7.83161 -0.84686,0.91722 -1.27029,2.11665 -1.19972,3.31609 v 56.37347 c 0,0.84666 -0.28229,1.62276 -0.91743,2.11665 -0.63515,0.49389 -1.34086,0.70555 -2.11715,0.70555 h -19.4072 c -0.84686,0.0706 -1.62315,-0.21166 -2.25829,-0.77611 -0.63515,-0.56444 -0.98801,-1.4111 -0.91743,-2.25776 v -62.51176 c 0,-9.94826 -0.28229,-18.13264 -0.91743,-24.6237 -0.21172,-0.70555 0,-1.48166 0.494,-2.11665 z"
   style="stroke-width:0.705633" /><path
   id="_38"
   class="st1"
   d="m 266.69019,212.58231 -0.0706,0.0706 c -6.28088,2.61054 -15.03176,3.80997 -25.89979,3.80997 -17.85462,0 -32.74524,-5.36218 -44.5307,-16.1571 -11.9266,-10.86548 -17.71348,-27.23424 -17.71348,-48.68297 0,-19.04986 5.78688,-34.57197 17.50177,-46.21355 11.78546,-11.78269 27.31122,-17.63876 46.43613,-17.63876 11.22089,0 19.83063,1.26999 25.54693,4.02164 0.70572,0.28222 1.27029,0.7761 1.62315,1.4111 0.35286,0.63499 0.494,1.34054 0.494,2.11665 v 16.08655 c 0,0.42333 -0.0706,0.84666 -0.14114,1.34054 -0.14115,0.49389 -0.42343,0.98777 -0.84686,1.34055 -0.49401,0.35277 -1.19972,0.49388 -1.76429,0.35277 -0.42343,-0.14111 -0.77629,-0.28222 -1.12915,-0.56444 -7.12774,-3.52775 -15.03176,-5.22107 -23.00635,-4.93885 -11.99718,0 -21.24206,3.66886 -28.08751,10.93603 v 0 c -6.77488,7.12606 -10.30346,17.42709 -10.30346,31.11477 -0.14114,7.33772 1.05858,14.67545 3.59915,21.58984 1.97601,5.29163 5.29288,10.01882 9.66832,13.54657 3.74029,2.96331 7.97459,5.22107 12.49118,6.77328 4.44601,1.4111 9.10374,2.18721 13.76146,2.11665 7.19831,0.0706 14.39662,-1.05832 21.24206,-3.38664 0.77629,-0.35278 1.69372,-0.35278 2.47001,0.14111 0.70572,0.56444 1.05858,1.4111 0.988,2.25776 v 14.81656 c 0.0706,1.55221 -0.70571,3.03386 -2.11714,3.73941 z"
   style="stroke-width:0.705633" />
</svg>
