<?xml version="1.0" encoding="UTF-8" standalone="no"?>
<svg
   viewBox="0 0 300 300"
   version="1.1"
   id="svg6"
   sodipodi:docname="mongodb.svg"
   width="300"
   height="300"
   inkscape:version="1.2 (dc2aedaf03, 2022-05-15)"
   xmlns:inkscape="http://www.inkscape.org/namespaces/inkscape"
   xmlns:sodipodi="http://sodipodi.sourceforge.net/DTD/sodipodi-0.dtd"
   xmlns="http://www.w3.org/2000/svg"
   xmlns:svg="http://www.w3.org/2000/svg">
  <defs
     id="defs10">
    <style
       id="style13709">.cls-1{fill:#00ed64;}</style>
  </defs>
  <sodipodi:namedview
     id="namedview8"
     pagecolor="#505050"
     bordercolor="#ffffff"
     borderopacity="1"
     inkscape:pageshadow="0"
     inkscape:pageopacity="0"
     inkscape:pagecheckerboard="1"
     showgrid="false"
     inkscape:zoom="1.3857143"
     inkscape:cx="68.5567"
     inkscape:cy="158.76288"
     inkscape:window-width="1297"
     inkscape:window-height="1027"
     inkscape:window-x="1220"
     inkscape:window-y="48"
     inkscape:window-maximized="0"
     inkscape:current-layer="svg6"
     inkscape:showpageshadow="0"
     inkscape:deskcolor="#505050" />
  <g
     id="g322"
     transform="matrix(0.3401326,0,0,0.33875745,-50.820412,190.32242)">
    <path
       class="cls-1"
       d="m 637.4309,-457.36229 c -22.73775,-26.82496 -42.3023,-54.23811 -46.29505,-59.80475 a 0.9036255,0.90326837 0 0 0 -1.47101,0 c -3.97175,5.62967 -23.5363,33.04282 -46.23201,59.86778 -194.82586,247.97867 30.70226,415.335395 30.70226,415.335395 l 1.82825,1.281379 c 1.72319,25.879695 5.96813,63.018742 5.96813,63.018742 h 16.95875 c 0,0 4.20291,-37.055015 5.94711,-63.018742 l 1.84929,-1.449422 c 0,0 225.5281,-167.188682 30.74428,-415.230382 m -47.00954,411.722332 v 0 c 0,0 -10.10801,-8.612542 -12.8399,-12.939826 v -0.462145 l 12.23048,-270.056241 a 0.65145094,0.65119346 0 0 1 1.28188,0 l 12.27249,270.098246 v 0.462145 c -2.73189,4.201247 -12.83988,12.939847 -12.83988,12.939847"
       id="path6"
       style="fill:#ebebeb;fill-opacity:1;stroke-width:2.10104" />
    <g
       id="g311"
       transform="translate(-30.577542,1.4848784)">
      <path
         class="cls-1"
         d="M 260.39571,198.18465 215.85529,89.715262 215.72535,89.405521 h -34.73472 v 7.263932 h 5.57754 a 6.3272174,6.3247168 0 0 1 6.32722,6.394657 l -0.99956,109.24874 a 6.3172218,6.3147251 0 0 1 -6.19727,6.27476 l -5.70749,0.0599 v 7.22397 h 33.80513 v -7.21398 l -3.47847,-0.0699 a 6.3671998,6.3646834 0 0 1 -6.20727,-6.33471 V 109.33887 l 48.58863,116.46272 a 4.4880262,4.4862525 0 0 0 8.27636,0 l 47.47912,-113.90486 0.65971,100.34618 a 6.3472086,6.3447001 0 0 1 -6.25725,6.37468 h -3.56843 v 7.22396 h 39.5626 v -7.22396 h -5.41762 a 6.3572042,6.3546918 0 0 1 -6.25725,-6.30474 l -0.31985,-109.21876 a 6.3572042,6.3546918 0 0 1 6.23725,-6.354695 l 5.77746,-0.04996 V 89.40552 h -33.75515 z"
         id="path8"
         style="fill:#ebebeb;fill-opacity:1;stroke-width:0.999363" />
      <path
         class="cls-1"
         d="m 571.82874,216.91901 a 5.857424,5.8551091 0 0 1 -1.68926,-4.38634 v -53.48532 c 0,-10.16151 -2.99868,-18.1948 -8.99604,-23.88006 -5.99736,-5.68525 -14.1038,-8.55285 -24.25933,-8.55285 -14.3337,0 -25.58875,5.79516 -33.46528,17.21562 a 0.63971866,0.63946584 0 0 1 -0.64972,0.26977 0.62972306,0.62947418 0 0 1 -0.51977,-0.4796 l -3.69837,-14.29805 h -6.18728 l -15.93299,9.11239 v 4.99582 h 4.10819 a 6.6870591,6.6844163 0 0 1 4.60797,1.51873 5.857424,5.8551091 0 0 1 1.66927,4.56619 v 63.04733 a 5.807446,5.8051508 0 0 1 -6.07733,6.08492 h -3.99824 v 7.26393 h 36.62389 v -7.26393 h -3.99824 a 5.807446,5.8051508 0 0 1 -6.08732,-6.08492 v -41.75512 a 38.732966,38.717658 0 0 1 3.49846,-15.75683 31.226267,31.213926 0 0 1 10.24549,-12.67941 26.578311,26.567807 0 0 1 15.99297,-4.93588 c 6.99692,0 12.26461,2.20816 15.57315,6.57451 3.30855,4.36635 4.9978,10.10156 4.9978,16.92586 v 51.5969 a 5.807446,5.8051508 0 0 1 -6.07732,6.08492 h -3.99825 v 7.26393 h 36.6239 v -7.26393 h -3.99824 a 5.8474284,5.8451174 0 0 1 -4.38807,-1.69858"
         id="path10"
         style="fill:#ebebeb;fill-opacity:1;stroke-width:0.999363" />
      <path
         class="cls-1"
         d="m 907.41116,97.588685 a 71.55853,71.530249 0 0 0 -33.92508,-8.183164 h -47.9789 v 7.263932 h 4.64795 a 7.8365536,7.8334565 0 0 1 7.24682,7.243947 v 107.46024 a 6.9969229,6.9941576 0 0 1 -2.279,4.99582 6.8569844,6.8542744 0 0 1 -4.9978,2.2781 h -4.64796 v 7.26393 h 47.9789 a 71.55853,71.530249 0 0 0 33.92508,-8.18316 61.792825,61.768403 0 0 0 24.48923,-23.61028 c 5.99736,-10.22146 9.07601,-22.48122 9.07601,-36.44955 0,-13.96833 -2.99868,-26.2181 -9.07601,-36.43956 A 61.862794,61.838345 0 0 0 907.38117,97.61866 m 14.36368,60.04984 c 0,12.75934 -2.28899,23.62027 -6.817,32.28303 -4.52801,8.66277 -10.53537,15.15734 -17.90213,19.35384 a 48.688588,48.669345 0 0 1 -24.33929,6.31472 h -9.68574 a 6.8469888,6.8442828 0 0 1 -4.9978,-2.2681 6.9969229,6.9941576 0 0 1 -2.279,-4.99583 V 106.93088 a 7.8365536,7.8334565 0 0 1 7.24681,-7.233956 h 9.68574 a 48.688588,48.669345 0 0 1 24.3393,6.314726 c 7.36676,4.19649 13.38411,10.70106 17.90212,19.34384 4.51802,8.64278 6.81701,19.53368 6.81701,32.28303"
         id="path12"
         style="fill:#ebebeb;fill-opacity:1;stroke-width:0.999363" />
      <path
         class="cls-1"
         d="m 1054.0667,164.86249 c -4.3581,-5.05578 -12.8544,-9.36218 -22.92,-11.66026 13.834,-6.86427 20.8509,-16.62611 20.8509,-29.04574 a 31.336219,31.323834 0 0 0 -5.4077,-18.08489 35.984175,35.969953 0 0 0 -15.2133,-12.269751 55.025801,55.004054 0 0 0 -22.67,-4.396328 h -53.8763 v 7.263932 h 4.26813 a 7.8365536,7.8334565 0 0 1 7.24681,7.243947 v 107.46024 a 6.9369492,6.9342077 0 0 1 -2.279,4.99582 6.817002,6.8143078 0 0 1 -4.9978,2.2781 h -4.64796 v 7.26393 h 58.47432 a 66.19089,66.164731 0 0 0 24.6791,-4.48625 40.752078,40.735972 0 0 0 17.8322,-13.22895 c 4.3681,-5.80515 6.5871,-12.89922 6.5871,-21.10237 a 32.985494,32.972457 0 0 0 -7.9965,-22.20146 m -66.97056,48.45953 a 6.9969229,6.9941576 0 0 1 -2.27899,-4.99583 v -48.30965 h 27.76775 c 9.7557,0 17.3324,2.52789 22.5001,7.50373 5.1678,4.97585 7.7766,11.56035 7.7766,19.47374 a 29.527015,29.515345 0 0 1 -3.4285,13.79847 26.818206,26.807607 0 0 1 -10.2655,10.64111 c -4.548,2.70774 -10.1255,4.08659 -16.5927,4.08659 h -20.52094 a 6.8469888,6.8442828 0 0 1 -4.9978,-2.26811 m -2.16904,-63.49696 v -42.8542 a 7.8365536,7.8334565 0 0 1 7.24681,-7.233956 h 13.20417 c 9.4858,0 16.5328,2.358026 20.9308,6.994156 4.3981,4.63613 6.6371,10.72105 6.6371,18.04493 0,7.57367 -2.0691,13.70855 -6.1573,18.24476 -4.0882,4.53621 -10.3055,6.79432 -18.5119,6.79432 z"
         id="path14"
         style="fill:#ebebeb;fill-opacity:1;stroke-width:0.999363" />
      <path
         class="cls-1"
         d="m 432.38007,132.91917 a 54.735928,54.714296 0 0 0 -51.20748,0 47.299199,47.280505 0 0 0 -18.29196,17.98498 56.115321,56.093144 0 0 0 0,53.33545 47.299199,47.280505 0 0 0 18.29196,17.98497 54.77591,54.754262 0 0 0 51.20748,0 47.229229,47.210564 0 0 0 18.30195,-17.98497 56.115321,56.093144 0 0 0 0,-53.33545 47.329185,47.31048 0 0 0 -18.30195,-17.98498 m 7.39674,44.66269 c 0,12.32971 -2.99868,22.25142 -8.99604,29.48537 -5.99736,7.23396 -13.99384,10.85094 -23.98945,10.85094 -9.9956,0 -18.07205,-3.65694 -23.98945,-10.85094 -5.9174,-7.19399 -8.99604,-17.14567 -8.99604,-29.48537 0,-12.33969 2.99868,-22.2614 8.99604,-29.49536 5.99736,-7.23395 13.99385,-10.84094 23.98945,-10.84094 9.99561,0 18.07205,3.64695 23.98945,10.84094 5.9174,7.19399 8.99604,17.15567 8.99604,29.49536"
         id="path16"
         style="fill:#ebebeb;fill-opacity:1;stroke-width:0.999363" />
      <path
         class="cls-1"
         d="m 785.16492,132.91917 a 54.755919,54.734279 0 0 0 -51.21748,0 47.299199,47.280505 0 0 0 -18.29195,17.98498 56.115321,56.093144 0 0 0 0,53.33545 47.299199,47.280505 0 0 0 18.29195,17.98497 54.795902,54.774246 0 0 0 51.21748,0 47.209238,47.19058 0 0 0 18.29195,-17.98497 56.115321,56.093144 0 0 0 0,-53.33545 47.299199,47.280505 0 0 0 -18.29195,-17.98498 m 7.38675,44.66269 c 0,12.32971 -2.99868,22.25142 -8.99604,29.48537 -5.99737,7.23396 -13.99385,10.85094 -23.98945,10.85094 -9.99561,0 -18.07206,-3.65694 -23.98945,-10.85094 -5.9174,-7.19399 -8.99605,-17.14567 -8.99605,-29.48537 0,-12.33969 2.99868,-22.2614 8.99605,-29.49536 5.99736,-7.23395 13.99384,-10.84094 23.98945,-10.84094 9.9956,0 18.07205,3.64695 23.98945,10.84094 5.91739,7.19399 8.99604,17.15567 8.99604,29.49536"
         id="path18"
         style="fill:#ebebeb;fill-opacity:1;stroke-width:0.999363" />
      <path
         class="cls-1"
         d="m 642.76754,126.56448 a 47.169256,47.150614 0 0 0 -21.86038,5.08575 39.562601,39.546965 0 0 0 -15.49319,13.84843 35.144544,35.130654 0 0 0 -5.60753,19.18398 33.885098,33.871706 0 0 0 4.28811,16.98581 37.493511,37.478693 0 0 0 11.40499,12.34969 l -14.25374,19.36382 a 7.8865316,7.8834148 0 0 0 6.35721,12.54952 h 4.0882 a 30.826443,30.81426 0 0 0 -9.39587,9.65193 25.748676,25.7385 0 0 0 -3.89828,13.43878 c 0,8.57284 3.79833,15.64693 11.27504,20.98247 7.47671,5.33554 17.82216,7.99332 30.87642,7.99332 a 75.096974,75.067294 0 0 0 25.73868,-4.34636 45.979779,45.961607 0 0 0 19.3215,-12.8193 29.886856,29.875045 0 0 0 7.33678,-20.1132 c 0,-8.17317 -2.99869,-13.98831 -9.99561,-19.56365 -5.99736,-4.72606 -15.38323,-7.23396 -27.08809,-7.23396 h -39.98241 a 0.2498901,0.24979134 0 0 1 -0.2299,-0.12989 0.2498901,0.24979134 0 0 1 0,-0.25979 l 10.37544,-13.98831 a 37.083691,37.069035 0 0 0 7.68662,2.57785 40.79206,40.775939 0 0 0 7.99648,0.7194 49.128394,49.108978 0 0 0 22.57007,-5.08576 40.122355,40.106498 0 0 0 15.68311,-13.84843 34.594786,34.581113 0 0 0 5.71748,-19.18397 c 0,-7.41381 -3.55843,-20.91253 -13.37412,-27.79678 a 0.06996923,0.06994158 0 0 1 0.09,-0.0599 l 21.55053,2.36802 v -9.85177 H 659.5502 a 50.907612,50.887492 0 0 0 -16.78262,-2.81765 m 11.99473,62.51778 v 0 a 25.298874,25.288876 0 0 1 -11.99473,3.05744 24.839076,24.829259 0 0 1 -17.57227,-7.11405 c -4.9978,-4.70607 -7.48671,-11.55035 -7.48671,-20.353 0,-8.80265 2.5189,-15.65692 7.48671,-20.36299 a 24.879059,24.869226 0 0 1 17.57227,-7.10407 25.298874,25.288876 0 0 1 11.99473,3.05745 24.259331,24.249744 0 0 1 9.37587,9.17234 c 2.41894,4.0666 3.6484,9.19232 3.6484,15.23727 0,6.04495 -1.22946,11.17067 -3.6484,15.22728 a 24.119393,24.10986 0 0 1 -9.37587,9.17234 m -27.14806,36.79926 h 27.09808 c 7.53669,0 12.31458,1.45878 15.53317,4.72605 a 17.252413,17.245594 0 0 1 4.7779,12.52953 21.620492,21.611947 0 0 1 -8.61621,17.8351 c -5.78746,4.53622 -13.60402,6.8343 -23.23978,6.8343 -8.43629,0 -15.35325,-1.85845 -20.54097,-5.53538 -5.18772,-3.67693 -7.7366,-9.05244 -7.7366,-16.08656 a 21.270646,21.262239 0 0 1 3.6384,-12.0899 23.389714,23.38047 0 0 1 9.12599,-8.18317"
         id="path20"
         style="fill:#ebebeb;fill-opacity:1;stroke-width:0.999363" />
    </g>
  </g>
</svg>
