<?xml version="1.0" encoding="UTF-8" standalone="no"?>
<svg
   viewBox="0 0 1062 278"
   version="1.1"
   id="svg6"
   sodipodi:docname="mongodb.svg"
   width="1062"
   height="278"
   inkscape:version="1.1.2 (0a00cf5339, 2022-02-04, custom)"
   xmlns:inkscape="http://www.inkscape.org/namespaces/inkscape"
   xmlns:sodipodi="http://sodipodi.sourceforge.net/DTD/sodipodi-0.dtd"
   xmlns="http://www.w3.org/2000/svg"
   xmlns:svg="http://www.w3.org/2000/svg">
  <defs
     id="defs10">
    <style
       id="style13709">.cls-1{fill:#00ed64;}</style>
  </defs>
  <sodipodi:namedview
     id="namedview8"
     pagecolor="#505050"
     bordercolor="#ffffff"
     borderopacity="1"
     inkscape:pageshadow="0"
     inkscape:pageopacity="0"
     inkscape:pagecheckerboard="1"
     showgrid="false"
     inkscape:zoom="0.48992398"
     inkscape:cx="229.62746"
     inkscape:cy="612.33989"
     inkscape:window-width="1895"
     inkscape:window-height="2063"
     inkscape:window-x="1925"
     inkscape:window-y="58"
     inkscape:window-maximized="1"
     inkscape:current-layer="svg6" />
  <g
     id="g17347"
     transform="matrix(0.99956041,0,0,0.99916537,188.73263,-287.17636)">
    <path
       class="cls-1"
       d="m -106.35541,316.06645 c -10.82,-12.77 -20.13,-25.82 -22.03,-28.47 a 0.43,0.43 0 0 0 -0.7,0 c -1.89,2.68 -11.2,15.73 -22,28.5 -92.71,118.05 14.61,197.72 14.61,197.72 l 0.87,0.61 c 0.82,12.32 2.84,30 2.84,30 h 8.07 c 0,0 2,-17.64 2.83,-30 l 0.88,-0.69 c 0,0 107.320003,-79.59 14.63,-197.67 m -22.37,196 v 0 c 0,0 -4.81,-4.1 -6.11,-6.16 v -0.22 l 5.82,-128.56 a 0.31,0.31 0 0 1 0.61,0 l 5.84,128.58 v 0.22 c -1.3,2 -6.11,6.16 -6.11,6.16"
       id="path6"
       style="fill:#ebebeb;fill-opacity:1" />
    <path
       class="cls-1"
       d="m 71.694593,485.76645 -44.56,-108.56 -0.13,-0.31 h -34.75 v 7.27 h 5.58 a 6.33,6.33 0 0 1 6.33,6.4 l -1,109.34 a 6.32,6.32 0 0 1 -6.2,6.28 l -5.71,0.06 v 7.23 h 33.82 v -7.22 l -3.48,-0.07 a 6.37,6.37 0 0 1 -6.21,-6.34 v -103 l 48.61,116.56 a 4.49,4.49 0 0 0 8.28,0 l 47.499997,-114 0.66,100.43 a 6.35,6.35 0 0 1 -6.26,6.38 h -3.57 v 7.23 h 39.58 v -7.23 h -5.42 a 6.36,6.36 0 0 1 -6.26,-6.31 l -0.32,-109.31 a 6.36,6.36 0 0 1 6.24,-6.36 l 5.78,-0.05 v -7.29 h -33.77 z"
       id="path8"
       style="fill:#ebebeb;fill-opacity:1" />
    <path
       class="cls-1"
       d="m 383.26459,504.51645 a 5.86,5.86 0 0 1 -1.69,-4.39 v -53.53 c 0,-10.17 -3,-18.21 -9,-23.9 -6,-5.69 -14.11,-8.56 -24.27,-8.56 -14.34,0 -25.6,5.8 -33.48,17.23 a 0.64,0.64 0 0 1 -0.65,0.27 0.63,0.63 0 0 1 -0.52,-0.48 l -3.7,-14.31 h -6.19 l -15.94,9.12 v 5 h 4.11 a 6.69,6.69 0 0 1 4.61,1.52 5.86,5.86 0 0 1 1.67,4.57 v 63.1 a 5.81,5.81 0 0 1 -6.08,6.09 h -4 v 7.27 h 36.64 v -7.27 h -4 a 5.81,5.81 0 0 1 -6.09,-6.09 v -41.79 a 38.75,38.75 0 0 1 3.5,-15.77 31.24,31.24 0 0 1 10.25,-12.69 26.59,26.59 0 0 1 16,-4.94 c 7,0 12.27,2.21 15.58,6.58 3.31,4.37 5,10.11 5,16.94 v 51.64 a 5.81,5.81 0 0 1 -6.08,6.09 h -4 v 7.27 h 36.64 v -7.27 h -4 a 5.85,5.85 0 0 1 -4.39,-1.7"
       id="path10"
       style="fill:#ebebeb;fill-opacity:1" />
    <path
       class="cls-1"
       d="m 718.99459,385.08645 a 71.59,71.59 0 0 0 -33.94,-8.19 h -48 v 7.27 h 4.65 a 7.84,7.84 0 0 1 7.25,7.25 v 107.55 a 7,7 0 0 1 -2.28,5 6.86,6.86 0 0 1 -5,2.28 h -4.65 v 7.27 h 48 a 71.59,71.59 0 0 0 33.94,-8.19 61.82,61.82 0 0 0 24.5,-23.63 c 6,-10.23 9.08,-22.5 9.08,-36.48 0,-13.98 -3,-26.24 -9.08,-36.47 a 61.89,61.89 0 0 0 -24.5,-23.63 m 14.37,60.1 c 0,12.77 -2.29,23.64 -6.82,32.31 -4.53,8.67 -10.54,15.17 -17.91,19.37 a 48.71,48.71 0 0 1 -24.35,6.32 h -9.69 a 6.85,6.85 0 0 1 -5,-2.27 7,7 0 0 1 -2.28,-5 v -101.51 a 7.84,7.84 0 0 1 7.25,-7.24 h 9.69 a 48.71,48.71 0 0 1 24.35,6.32 c 7.37,4.2 13.39,10.71 17.91,19.36 4.52,8.65 6.82,19.55 6.82,32.31"
       id="path12"
       style="fill:#ebebeb;fill-opacity:1" />
    <path
       class="cls-1"
       d="m 865.71459,452.41645 c -4.36,-5.06 -12.86,-9.37 -22.93,-11.67 13.84,-6.87 20.86,-16.64 20.86,-29.07 a 31.35,31.35 0 0 0 -5.41,-18.1 36,36 0 0 0 -15.22,-12.28 55.05,55.05 0 0 0 -22.68,-4.4 h -53.9 v 7.27 h 4.27 a 7.84,7.84 0 0 1 7.25,7.25 v 107.55 a 6.94,6.94 0 0 1 -2.28,5 6.82,6.82 0 0 1 -5,2.28 h -4.65 v 7.27 h 58.5 a 66.22,66.22 0 0 0 24.69,-4.49 40.77,40.77 0 0 0 17.84,-13.24 c 4.37,-5.81 6.59,-12.91 6.59,-21.12 a 33,33 0 0 0 -8,-22.22 m -67,48.5 a 7,7 0 0 1 -2.28,-5 v -48.35 h 27.78 c 9.76,0 17.34,2.53 22.51,7.51 5.17,4.98 7.78,11.57 7.78,19.49 a 29.54,29.54 0 0 1 -3.43,13.81 26.83,26.83 0 0 1 -10.27,10.65 c -4.55,2.71 -10.13,4.09 -16.6,4.09 h -20.53 a 6.85,6.85 0 0 1 -5,-2.27 m -2.17,-63.55 v -42.89 a 7.84,7.84 0 0 1 7.25,-7.24 h 13.21 c 9.49,0 16.54,2.36 20.94,7 4.4,4.64 6.64,10.73 6.64,18.06 0,7.58 -2.07,13.72 -6.16,18.26 -4.09,4.54 -10.31,6.8 -18.52,6.8 z"
       id="path14"
       style="fill:#ebebeb;fill-opacity:1" />
    <path
       class="cls-1"
       d="m 243.75459,420.44645 a 54.76,54.76 0 0 0 -51.23,0 47.32,47.32 0 0 0 -18.3,18 56.14,56.14 0 0 0 0,53.38 47.32,47.32 0 0 0 18.3,18 54.8,54.8 0 0 0 51.23,0 47.25,47.25 0 0 0 18.31,-18 56.14,56.14 0 0 0 0,-53.38 47.35,47.35 0 0 0 -18.31,-18 m 7.4,44.7 c 0,12.34 -3,22.27 -9,29.51 -6,7.24 -14,10.86 -24,10.86 -10,0 -18.08,-3.66 -24,-10.86 -5.92,-7.2 -9,-17.16 -9,-29.51 0,-12.35 3,-22.28 9,-29.52 6,-7.24 14,-10.85 24,-10.85 10,0 18.08,3.65 24,10.85 5.92,7.2 9,17.17 9,29.52"
       id="path16"
       style="fill:#ebebeb;fill-opacity:1" />
    <path
       class="cls-1"
       d="m 596.69459,420.44645 a 54.78,54.78 0 0 0 -51.24,0 47.32,47.32 0 0 0 -18.3,18 56.14,56.14 0 0 0 0,53.38 47.32,47.32 0 0 0 18.3,18 54.82,54.82 0 0 0 51.24,0 47.23,47.23 0 0 0 18.3,-18 56.14,56.14 0 0 0 0,-53.38 47.32,47.32 0 0 0 -18.3,-18 m 7.39,44.7 c 0,12.34 -3,22.27 -9,29.51 -6,7.24 -14,10.86 -24,10.86 -10,0 -18.08,-3.66 -24,-10.86 -5.92,-7.2 -9,-17.16 -9,-29.51 0,-12.35 3,-22.28 9,-29.52 6,-7.24 14,-10.85 24,-10.85 10,0 18.08,3.65 24,10.85 5.92,7.2 9,17.17 9,29.52"
       id="path18"
       style="fill:#ebebeb;fill-opacity:1" />
    <path
       class="cls-1"
       d="m 454.23459,414.08645 a 47.19,47.19 0 0 0 -21.87,5.09 39.58,39.58 0 0 0 -15.5,13.86 35.16,35.16 0 0 0 -5.61,19.2 33.9,33.9 0 0 0 4.29,17 37.51,37.51 0 0 0 11.41,12.36 l -14.26,19.38 a 7.89,7.89 0 0 0 6.36,12.56 h 4.09 a 30.84,30.84 0 0 0 -9.4,9.66 25.76,25.76 0 0 0 -3.9,13.45 c 0,8.58 3.8,15.66 11.28,21 7.48,5.34 17.83,8 30.89,8 a 75.13,75.13 0 0 0 25.75,-4.35 46,46 0 0 0 19.33,-12.83 29.9,29.9 0 0 0 7.34,-20.13 c 0,-8.18 -3,-14 -10,-19.58 -6,-4.73 -15.39,-7.24 -27.1,-7.24 h -40 a 0.25,0.25 0 0 1 -0.23,-0.13 0.25,0.25 0 0 1 0,-0.26 l 10.38,-14 a 37.1,37.1 0 0 0 7.69,2.58 40.81,40.81 0 0 0 8,0.72 49.15,49.15 0 0 0 22.58,-5.09 40.14,40.14 0 0 0 15.69,-13.86 34.61,34.61 0 0 0 5.72,-19.2 c 0,-7.42 -3.56,-20.93 -13.38,-27.82 a 0.07,0.07 0 0 1 0.09,-0.06 l 21.56,2.37 v -9.86 h -34.41 a 50.93,50.93 0 0 0 -16.79,-2.82 m 12,62.57 v 0 a 25.31,25.31 0 0 1 -12,3.06 24.85,24.85 0 0 1 -17.58,-7.12 c -5,-4.71 -7.49,-11.56 -7.49,-20.37 0,-8.81 2.52,-15.67 7.49,-20.38 a 24.89,24.89 0 0 1 17.58,-7.11 25.31,25.31 0 0 1 12,3.06 24.27,24.27 0 0 1 9.38,9.18 c 2.42,4.07 3.65,9.2 3.65,15.25 0,6.05 -1.23,11.18 -3.65,15.24 a 24.13,24.13 0 0 1 -9.38,9.18 m -27.16,36.83 h 27.11 c 7.54,0 12.32,1.46 15.54,4.73 a 17.26,17.26 0 0 1 4.78,12.54 21.63,21.63 0 0 1 -8.62,17.85 c -5.79,4.54 -13.61,6.84 -23.25,6.84 -8.44,0 -15.36,-1.86 -20.55,-5.54 -5.19,-3.68 -7.74,-9.06 -7.74,-16.1 a 21.28,21.28 0 0 1 3.64,-12.1 23.4,23.4 0 0 1 9.13,-8.19"
       id="path20"
       style="fill:#ebebeb;fill-opacity:1" />
  </g>
</svg>
