<?xml version="1.0" encoding="UTF-8" standalone="no"?>
<svg
   viewBox="0 0 300 300"
   version="1.1"
   id="svg6"
   sodipodi:docname="nodejs.svg"
   width="300"
   height="300"
   inkscape:version="1.2 (dc2aedaf03, 2022-05-15)"
   xmlns:inkscape="http://www.inkscape.org/namespaces/inkscape"
   xmlns:sodipodi="http://sodipodi.sourceforge.net/DTD/sodipodi-0.dtd"
   xmlns="http://www.w3.org/2000/svg"
   xmlns:svg="http://www.w3.org/2000/svg">
  <defs
     id="defs10">
    <clipPath
       clipPathUnits="userSpaceOnUse"
       id="clipPath17471">
      <path
         d="M 0,600 H 600 V 0 H 0 Z"
         id="path17469" />
    </clipPath>
    <linearGradient
       x1="0"
       y1="0"
       x2="1"
       y2="0"
       gradientUnits="userSpaceOnUse"
       gradientTransform="matrix(-34.424583,70.226151,-70.226151,-34.424583,163.14392,72.980185)"
       spreadMethod="pad"
       id="linearGradient17519">
      <stop
         style="stop-opacity:1;stop-color:#687e67"
         offset="0"
         id="stop17513" />
      <stop
         style="stop-opacity:1;stop-color:#687e67"
         offset="0.5288042"
         id="stop17515" />
      <stop
         style="stop-opacity:1;stop-color:#83a178"
         offset="1"
         id="stop17517" />
    </linearGradient>
    <linearGradient
       x1="0"
       y1="0"
       x2="1"
       y2="0"
       gradientUnits="userSpaceOnUse"
       gradientTransform="matrix(96.592852,-71.367959,71.367959,96.592852,141.85151,109.73258)"
       spreadMethod="pad"
       id="linearGradient17545">
      <stop
         style="stop-opacity:1;stop-color:#687e67"
         offset="0"
         id="stop17535" />
      <stop
         style="stop-opacity:1;stop-color:#687e67"
         offset="0.137556"
         id="stop17537" />
      <stop
         style="stop-opacity:1;stop-color:#9bb48f"
         offset="0.69737407"
         id="stop17539" />
      <stop
         style="stop-opacity:1;stop-color:#9bb48f"
         offset="0.908084"
         id="stop17541" />
      <stop
         style="stop-opacity:1;stop-color:#9bb48f"
         offset="1"
         id="stop17543" />
    </linearGradient>
    <clipPath
       clipPathUnits="userSpaceOnUse"
       id="clipPath17555">
      <path
         d="m 239.032,373.393 -42.134,-24.315 c -1.575,-0.909 -2.545,-2.588 -2.545,-4.407 v -48.666 c 0,-1.818 0.97,-3.497 2.544,-4.408 l 42.133,-24.334 c 1.576,-0.909 3.516,-0.909 5.091,0 l 42.124,24.334 c 1.574,0.911 2.543,2.59 2.543,4.408 v 48.668 c 0,1.817 -0.969,3.496 -2.545,4.405 l -42.123,24.315 c -0.787,0.454 -1.666,0.682 -2.544,0.682 -0.879,0 -1.757,-0.228 -2.544,-0.682"
         id="path17553" />
    </clipPath>
    <linearGradient
       x1="0"
       y1="0"
       x2="1"
       y2="0"
       gradientUnits="userSpaceOnUse"
       gradientTransform="matrix(88.100621,0,0,88.100621,103.60101,48.6706)"
       spreadMethod="pad"
       id="linearGradient17579">
      <stop
         style="stop-opacity:1;stop-color:#9bb48f"
         offset="0"
         id="stop17569" />
      <stop
         style="stop-opacity:1;stop-color:#9bb48f"
         offset="0.0919165"
         id="stop17571" />
      <stop
         style="stop-opacity:1;stop-color:#9bb48f"
         offset="0.30262629"
         id="stop17573" />
      <stop
         style="stop-opacity:1;stop-color:#687e67"
         offset="0.862444"
         id="stop17575" />
      <stop
         style="stop-opacity:1;stop-color:#687e67"
         offset="1"
         id="stop17577" />
    </linearGradient>
    <linearGradient
       x1="0"
       y1="0"
       x2="1"
       y2="0"
       gradientUnits="userSpaceOnUse"
       gradientTransform="matrix(88.100621,0,0,88.100621,103.60101,104.57598)"
       spreadMethod="pad"
       id="linearGradient17605">
      <stop
         style="stop-opacity:1;stop-color:#9bb48f"
         offset="0"
         id="stop17595" />
      <stop
         style="stop-opacity:1;stop-color:#9bb48f"
         offset="0.0919165"
         id="stop17597" />
      <stop
         style="stop-opacity:1;stop-color:#9bb48f"
         offset="0.30262629"
         id="stop17599" />
      <stop
         style="stop-opacity:1;stop-color:#687e67"
         offset="0.862444"
         id="stop17601" />
      <stop
         style="stop-opacity:1;stop-color:#687e67"
         offset="1"
         id="stop17603" />
    </linearGradient>
    <clipPath
       clipPathUnits="userSpaceOnUse"
       id="clipPath17615">
      <path
         d="m 239.032,373.393 -42.134,-24.315 c -1.575,-0.909 -2.545,-2.588 -2.545,-4.407 v -48.666 c 0,-1.818 0.97,-3.497 2.544,-4.408 l 42.133,-24.334 c 1.576,-0.909 3.516,-0.909 5.091,0 l 42.124,24.334 c 1.574,0.911 2.543,2.59 2.543,4.408 v 48.668 c 0,1.817 -0.969,3.496 -2.545,4.405 l -42.123,24.315 c -0.787,0.454 -1.666,0.682 -2.544,0.682 -0.879,0 -1.757,-0.228 -2.544,-0.682"
         id="path17613" />
    </clipPath>
    <linearGradient
       x1="0"
       y1="0"
       x2="1"
       y2="0"
       gradientUnits="userSpaceOnUse"
       gradientTransform="matrix(88.100621,0,0,88.100621,103.60101,129.72695)"
       spreadMethod="pad"
       id="linearGradient17639">
      <stop
         style="stop-opacity:1;stop-color:#9bb48f"
         offset="0"
         id="stop17629" />
      <stop
         style="stop-opacity:1;stop-color:#9bb48f"
         offset="0.0919165"
         id="stop17631" />
      <stop
         style="stop-opacity:1;stop-color:#9bb48f"
         offset="0.30262629"
         id="stop17633" />
      <stop
         style="stop-opacity:1;stop-color:#687e67"
         offset="0.862444"
         id="stop17635" />
      <stop
         style="stop-opacity:1;stop-color:#687e67"
         offset="1"
         id="stop17637" />
    </linearGradient>
    <clipPath
       clipPathUnits="userSpaceOnUse"
       id="clipPath17649">
      <path
         d="m 239.032,373.393 -42.134,-24.315 c -1.575,-0.909 -2.545,-2.588 -2.545,-4.407 v -48.666 c 0,-1.818 0.97,-3.497 2.544,-4.408 l 42.133,-24.334 c 1.576,-0.909 3.516,-0.909 5.091,0 l 42.124,24.334 c 1.574,0.911 2.543,2.59 2.543,4.408 v 48.668 c 0,1.817 -0.969,3.496 -2.545,4.405 l -42.123,24.315 c -0.787,0.454 -1.666,0.682 -2.544,0.682 -0.879,0 -1.757,-0.228 -2.544,-0.682"
         id="path17647" />
    </clipPath>
    <linearGradient
       x1="0"
       y1="0"
       x2="1"
       y2="0"
       gradientUnits="userSpaceOnUse"
       gradientTransform="matrix(88.100621,0,0,88.100621,103.60101,141.09453)"
       spreadMethod="pad"
       id="linearGradient17673">
      <stop
         style="stop-opacity:1;stop-color:#9bb48f"
         offset="0"
         id="stop17663" />
      <stop
         style="stop-opacity:1;stop-color:#9bb48f"
         offset="0.0919165"
         id="stop17665" />
      <stop
         style="stop-opacity:1;stop-color:#9bb48f"
         offset="0.30262629"
         id="stop17667" />
      <stop
         style="stop-opacity:1;stop-color:#687e67"
         offset="0.862444"
         id="stop17669" />
      <stop
         style="stop-opacity:1;stop-color:#687e67"
         offset="1"
         id="stop17671" />
    </linearGradient>
    <clipPath
       clipPathUnits="userSpaceOnUse"
       id="clipPath17683">
      <path
         d="m 239.032,373.393 -42.134,-24.315 c -1.575,-0.909 -2.545,-2.588 -2.545,-4.407 v -48.666 c 0,-1.818 0.97,-3.497 2.544,-4.408 l 42.133,-24.334 c 1.576,-0.909 3.516,-0.909 5.091,0 l 42.124,24.334 c 1.574,0.911 2.543,2.59 2.543,4.408 v 48.668 c 0,1.817 -0.969,3.496 -2.545,4.405 l -42.123,24.315 c -0.787,0.454 -1.666,0.682 -2.544,0.682 -0.879,0 -1.757,-0.228 -2.544,-0.682"
         id="path17681" />
    </clipPath>
    <linearGradient
       x1="0"
       y1="0"
       x2="1"
       y2="0"
       gradientUnits="userSpaceOnUse"
       gradientTransform="matrix(-54.33486,110.84312,-110.84312,-54.33486,204.53683,70.898136)"
       spreadMethod="pad"
       id="linearGradient17703">
      <stop
         style="stop-opacity:1;stop-color:#687e67"
         offset="0"
         id="stop17697" />
      <stop
         style="stop-opacity:1;stop-color:#687e67"
         offset="0.5288042"
         id="stop17699" />
      <stop
         style="stop-opacity:1;stop-color:#83a178"
         offset="1"
         id="stop17701" />
    </linearGradient>
  </defs>
  <sodipodi:namedview
     id="namedview8"
     pagecolor="#505050"
     bordercolor="#ffffff"
     borderopacity="1"
     inkscape:pageshadow="0"
     inkscape:pageopacity="0"
     inkscape:pagecheckerboard="1"
     showgrid="false"
     inkscape:zoom="1.3857143"
     inkscape:cx="179.69072"
     inkscape:cy="160.20618"
     inkscape:window-width="1297"
     inkscape:window-height="1027"
     inkscape:window-x="1220"
     inkscape:window-y="1104"
     inkscape:window-maximized="0"
     inkscape:current-layer="svg6"
     inkscape:showpageshadow="0"
     inkscape:deskcolor="#505050" />
  <g
     id="g18197"
     transform="matrix(0.74987721,0,0,0.74963384,-2.3933418e-7,116.32652)">
    <path
       d="m 197.73729,245.01759 c -1.32037,0 -2.63351,-0.34456 -3.78929,-1.01379 l -12.06244,-7.13726 c -1.80059,-1.00747 -0.92155,-1.36469 -0.32738,-1.57179 2.4029,-0.83383 2.88945,-1.02645 5.45423,-2.48068 0.26679,-0.15102 0.6213,-0.0931 0.89713,0.0687 l 9.26704,5.50125 c 0.33552,0.1863 0.80941,0.1863 1.1187,0 l 36.12943,-20.85287 c 0.33642,-0.19172 0.55166,-0.57879 0.55166,-0.97762 v -41.69489 c 0,-0.40787 -0.21524,-0.78861 -0.56071,-0.99571 l -36.11405,-20.83478 c -0.33371,-0.19535 -0.77685,-0.19535 -1.11327,0 l -36.10501,20.84111 c -0.35089,0.20077 -0.57336,0.59417 -0.57336,0.98938 v 41.69489 c 0,0.39883 0.22247,0.77685 0.56975,0.96587 l 9.89738,5.7183 c 5.37012,2.68507 8.6584,-0.4775 8.6584,-3.65454 v -41.16584 c 0,-0.58241 0.46756,-1.04093 1.04997,-1.04093 h 4.58061 c 0.57337,0 1.04726,0.45852 1.04726,1.04093 v 41.16584 c 0,7.1671 -3.90325,11.27744 -10.69775,11.27744 -2.08818,0 -3.73232,0 -8.32197,-2.26182 l -9.47414,-5.45423 c -2.3405,-1.35293 -3.7893,-3.88244 -3.7893,-6.59102 v -41.69489 c 0,-2.70858 1.4488,-5.23809 3.7893,-6.58469 L 193.948,147.3967 c 2.28623,-1.29234 5.3249,-1.29234 7.59305,0 l 36.12671,20.87729 c 2.3396,1.35293 3.79472,3.87611 3.79472,6.58469 v 41.69489 c 0,2.70858 -1.45512,5.22905 -3.79472,6.59102 l -36.12671,20.85921 c -1.15487,0.66923 -2.4653,1.01379 -3.80376,1.01379"
       style="fill:#689f63;fill-opacity:1;fill-rule:nonzero;stroke:none;stroke-width:0.904366"
       id="path17475" />
    <path
       d="m 208.89735,216.29239 c -15.81013,0 -19.12192,-7.25663 -19.12192,-13.34392 0,-0.5788 0.46485,-1.04093 1.04364,-1.04093 h 4.67105 c 0.52182,0 0.95682,0.37532 1.03822,0.88447 0.7054,4.75516 2.80805,7.15535 12.36901,7.15535 7.61114,0 10.85149,-1.72192 10.85149,-5.75991 0,-2.32784 -0.91884,-4.05608 -12.74704,-5.21457 -9.88563,-0.97762 -16.00005,-3.16167 -16.00005,-11.06944 0,-7.2901 6.14427,-11.63739 16.44681,-11.63739 11.57407,0 17.30142,4.0172 18.02672,12.63581 0.0271,0.29753 -0.0778,0.58241 -0.27583,0.80398 -0.19805,0.2071 -0.47389,0.33371 -0.76509,0.33371 h -4.68914 c -0.48564,0 -0.91522,-0.34547 -1.01379,-0.81664 -1.12503,-5.00386 -3.86074,-6.60278 -11.28287,-6.60278 -8.31022,0 -9.27609,2.89487 -9.27609,5.06445 0,2.62809 1.1395,3.39228 12.35997,4.87724 11.10291,1.46779 16.37717,3.54602 16.37717,11.3498 0,7.8716 -6.56389,12.38077 -18.01226,12.38077"
       style="fill:#689f63;fill-opacity:1;fill-rule:nonzero;stroke:none;stroke-width:0.904366"
       id="path17479" />
    <path
       d="m 85.8578,81.890479 c 0,-1.664938 -0.876331,-3.195125 -2.313368,-4.019907 L 45.240007,55.826649 C 44.592481,55.445007 43.866275,55.246951 43.13193,55.217106 h -0.396112 c -0.732537,0.02985 -1.457839,0.227901 -2.115313,0.609543 L 2.3160808,77.870572 C 0.88808683,78.695354 -6.3822e-7,80.225541 -6.3822e-7,81.890479 L 0.08410541,141.24855 c 0,0.82568 0.42866951,1.59349 1.15487549,1.99864 0.7108317,0.42596 1.5898755,0.42596 2.2979941,0 l 22.764702,-13.03553 c 1.439751,-0.85462 2.316082,-2.36401 2.316082,-4.01448 V 98.4657 c 0,-1.653181 0.875426,-3.183368 2.309751,-4.005437 l 9.692995,-5.582652 c 0.722589,-0.416913 1.5121,-0.621299 2.318795,-0.621299 0.789511,0 1.598919,0.204386 2.300707,0.621299 l 9.690282,5.582652 c 1.434325,0.822069 2.313369,2.352256 2.313369,4.005437 v 27.73148 c 0,1.65047 0.888087,3.1689 2.318794,4.01448 l 22.758372,13.03553 c 0.713545,0.42596 1.60525,0.42596 2.312464,0 0.705406,-0.40515 1.14945,-1.17296 1.14945,-1.99864 z"
       style="fill:#ffffff;fill-opacity:1;fill-rule:evenodd;stroke:none;stroke-width:0.904366"
       id="path17487" />
    <path
       d="m 266.61028,112.79809 c 0,0.41239 -0.22067,0.79494 -0.57879,1.00023 l -13.15672,7.58401 c -0.35723,0.20529 -0.79765,0.20529 -1.15488,0 l -13.15671,-7.58401 c -0.35904,-0.20529 -0.5788,-0.58784 -0.5788,-1.00023 V 97.605645 c 0,-0.412391 0.21976,-0.794938 0.57789,-1.002038 l 13.15581,-7.598484 c 0.35904,-0.2071 0.79946,-0.2071 1.1585,0 l 13.15581,7.598484 c 0.35722,0.2071 0.57789,0.589647 0.57789,1.002038 z M 270.16534,0.29223904 c -0.71716,-0.39792107 -1.59168,-0.38978177 -2.2998,0.0262266 -0.70631,0.41510403 -1.14131,1.17477156 -1.14131,1.99503156 V 61.097291 c 0,0.57789 -0.30929,1.113275 -0.8085,1.402672 -0.50102,0.289397 -1.1187,0.289397 -1.61972,0 l -9.59442,-5.527486 c -1.43071,-0.825686 -3.19151,-0.823877 -4.62312,9.05e-4 l -38.3189,22.114463 c -1.43251,0.826591 -2.31427,2.354065 -2.31427,4.007246 v 44.237969 c 0,1.65318 0.88176,3.17975 2.31247,4.00815 l 38.31799,22.13074 c 1.43251,0.82659 3.19602,0.82659 4.62854,0 l 38.32432,-22.13074 c 1.43071,-0.8284 2.31337,-2.35497 2.31337,-4.00815 V 17.058281 c 0,-1.676694 -0.90798,-3.22316 -2.37306,-4.040707 z"
       style="fill:#ffffff;fill-opacity:1;fill-rule:evenodd;stroke:none;stroke-width:0.904366"
       id="path17491" />
    <path
       d="m 397.76298,97.208541 c 1.42528,-0.827495 2.30252,-2.352256 2.30252,-4.000915 V 82.48727 c 0,-1.648659 -0.87724,-3.174325 -2.30433,-4.00182 L 359.68826,56.380031 c -1.43251,-0.832921 -3.20055,-0.833826 -4.63668,-0.0063 l -38.30533,22.114464 c -1.43161,0.82659 -2.31337,2.35316 -2.31337,4.006341 v 44.226214 c 0,1.66403 0.89261,3.19874 2.33688,4.02081 l 38.06748,21.69122 c 1.40358,0.80127 3.12459,0.81031 4.53721,0.0253 l 23.02516,-12.79768 c 0.73073,-0.40697 1.18562,-1.17296 1.19015,-2.00679 0.005,-0.83473 -0.43862,-1.60706 -1.16121,-2.02216 l -38.5486,-22.12532 c -0.71988,-0.41239 -1.16302,-1.17929 -1.16302,-2.00679 V 97.639019 c 0,-0.82659 0.44133,-1.591684 1.15849,-2.004075 l 11.99732,-6.916592 c 0.71355,-0.41239 1.59531,-0.41239 2.30976,0 l 12.00274,6.916592 c 0.71716,0.412391 1.15759,1.177485 1.15759,2.004075 v 10.904851 c 0,0.82839 0.44314,1.59349 1.1603,2.00588 0.71716,0.4142 1.60073,0.41058 2.31608,-0.005 z"
       style="fill:#ffffff;fill-opacity:1;fill-rule:evenodd;stroke:none;stroke-width:0.904366"
       id="path17495" />
    <path
       d="m 356.80533,95.137 c 0.27493,-0.159168 0.61316,-0.159168 0.88809,0 l 7.35249,4.241477 c 0.27493,0.159168 0.44405,0.452183 0.44405,0.769613 v 8.49019 c 0,0.31834 -0.16912,0.61045 -0.44405,0.76962 l -7.35249,4.24238 c -0.27493,0.15917 -0.61316,0.15917 -0.88809,0 l -7.34707,-4.24238 c -0.27493,-0.15917 -0.44404,-0.45128 -0.44404,-0.76962 v -8.49019 c 0,-0.31743 0.16911,-0.610445 0.44404,-0.769613 z"
       style="fill:#689f63;fill-opacity:1;fill-rule:evenodd;stroke:none;stroke-width:0.904366"
       id="path17499" />
    <path
       d="m 145.35532,56.604314 -38.10456,21.989661 c -1.42528,0.822068 -2.30161,2.340499 -2.30161,3.985541 v 0 44.011874 c 0,1.64414 0.87633,3.16257 2.30071,3.98645 v 0 l 38.10365,22.00684 c 1.42528,0.82207 3.17975,0.82207 4.60413,0 v 0 l 38.09551,-22.00684 c 1.42348,-0.82388 2.29981,-2.34231 2.29981,-3.98645 v 0 -44.013683 c 0,-1.643233 -0.87633,-3.161664 -2.30161,-3.983732 v 0 L 149.95673,56.604314 c -0.71173,-0.410582 -1.50667,-0.616778 -2.3007,-0.616778 v 0 c -0.79494,0 -1.58897,0.206196 -2.30071,0.616778"
       style="fill:url(#linearGradient17519);stroke:none;stroke-width:0.904366"
       id="path17521" />
    <path
       d="m 105.89602,129.38679 c 0.36265,0.47479 0.81936,0.88176 1.35384,1.19105 v 0 l 32.6865,18.87774 5.44157,3.1291 c 0.81393,0.46937 1.74271,0.66833 2.65522,0.60141 v 0 c 0.30477,-0.0253 0.60864,-0.0814 0.90527,-0.16731 v 0 L 189.1194,79.44227 c -0.30748,-0.330094 -0.66561,-0.616778 -1.06805,-0.848295 v 0 L 163.1017,64.191945 149.91694,56.604314 c -0.37712,-0.217048 -0.78137,-0.373503 -1.19647,-0.475697 v 0 z"
       style="fill:url(#linearGradient17545);stroke:none;stroke-width:0.904366"
       id="path17547" />
    <path
       d="m 144.08469,48.52109 -0.52454,0.299345 h 0.69998 z"
       style="fill:url(#linearGradient17579);stroke:none;stroke-width:0.904366"
       id="path17581" />
    <path
       d="m 147.1939,56.011954 c -0.63758,0.06331 -1.26431,0.261362 -1.83858,0.59236 v 0 l -37.99604,21.926355 40.96146,74.621961 c 0.56794,-0.0823 1.12412,-0.27222 1.6369,-0.56795 v 0 l 38.09551,-22.00684 c 1.17659,-0.68099 1.97966,-1.83677 2.22294,-3.14448 v 0 L 148.51427,56.087921 c -0.30839,-0.0615 -0.6222,-0.09225 -0.93602,-0.09225 v 0 c -0.12842,0 -0.25684,0.0054 -0.38435,0.01628"
       style="fill:url(#linearGradient17605);stroke:none;stroke-width:0.904366"
       id="path17607" />
    <path
       d="m 191.70137,129.86972 -0.25232,-0.43138 v 0.57789 z"
       style="fill:url(#linearGradient17639);stroke:none;stroke-width:0.904366"
       id="path17641" />
    <path
       d="m 188.14902,130.57784 -38.14345,22.00594 c -0.52453,0.30296 -1.097,0.49288 -1.68302,0.57246 l 0.75966,1.38368 42.36684,-24.52369 v -0.57789 l -1.04726,-1.78974 c -0.31381,1.21908 -1.14221,2.28624 -2.25277,2.92924"
       style="fill:url(#linearGradient17673);stroke:none;stroke-width:0.904366"
       id="path17675" />
    <path
       d="m 188.14902,130.57784 -38.14345,22.00594 c -0.52453,0.30296 -1.097,0.49288 -1.68302,0.57246 l 0.75966,1.38368 42.36684,-24.52369 v -0.57789 l -1.04726,-1.78974 c -0.31381,1.21908 -1.14221,2.28624 -2.25277,2.92924"
       style="fill:url(#linearGradient17703);stroke:none;stroke-width:0.904366"
       id="path17705" />
  </g>
</svg>
