<?xml version="1.0" encoding="UTF-8" standalone="no"?>
<svg
   viewBox="0 0 290 300"
   version="1.1"
   id="svg6"
   sodipodi:docname="postgresql.svg"
   width="290"
   height="300"
   inkscape:version="1.2 (dc2aedaf03, 2022-05-15)"
   xmlns:inkscape="http://www.inkscape.org/namespaces/inkscape"
   xmlns:sodipodi="http://sodipodi.sourceforge.net/DTD/sodipodi-0.dtd"
   xmlns="http://www.w3.org/2000/svg"
   xmlns:svg="http://www.w3.org/2000/svg">
  <defs
     id="defs10">
    <clipPath
       clipPathUnits="userSpaceOnUse"
       id="clipPath17471">
      <path
         d="M 0,600 H 600 V 0 H 0 Z"
         id="path17469" />
    </clipPath>
    <linearGradient
       x1="0"
       y1="0"
       x2="1"
       y2="0"
       gradientUnits="userSpaceOnUse"
       gradientTransform="matrix(-34.424583,70.226151,-70.226151,-34.424583,163.14392,72.980185)"
       spreadMethod="pad"
       id="linearGradient17519">
      <stop
         style="stop-opacity:1;stop-color:#687e67"
         offset="0"
         id="stop17513" />
      <stop
         style="stop-opacity:1;stop-color:#687e67"
         offset="0.5288042"
         id="stop17515" />
      <stop
         style="stop-opacity:1;stop-color:#83a178"
         offset="1"
         id="stop17517" />
    </linearGradient>
    <linearGradient
       x1="0"
       y1="0"
       x2="1"
       y2="0"
       gradientUnits="userSpaceOnUse"
       gradientTransform="matrix(96.592852,-71.367959,71.367959,96.592852,141.85151,109.73258)"
       spreadMethod="pad"
       id="linearGradient17545">
      <stop
         style="stop-opacity:1;stop-color:#687e67"
         offset="0"
         id="stop17535" />
      <stop
         style="stop-opacity:1;stop-color:#687e67"
         offset="0.137556"
         id="stop17537" />
      <stop
         style="stop-opacity:1;stop-color:#9bb48f"
         offset="0.69737407"
         id="stop17539" />
      <stop
         style="stop-opacity:1;stop-color:#9bb48f"
         offset="0.908084"
         id="stop17541" />
      <stop
         style="stop-opacity:1;stop-color:#9bb48f"
         offset="1"
         id="stop17543" />
    </linearGradient>
    <clipPath
       clipPathUnits="userSpaceOnUse"
       id="clipPath17555">
      <path
         d="m 239.032,373.393 -42.134,-24.315 c -1.575,-0.909 -2.545,-2.588 -2.545,-4.407 v -48.666 c 0,-1.818 0.97,-3.497 2.544,-4.408 l 42.133,-24.334 c 1.576,-0.909 3.516,-0.909 5.091,0 l 42.124,24.334 c 1.574,0.911 2.543,2.59 2.543,4.408 v 48.668 c 0,1.817 -0.969,3.496 -2.545,4.405 l -42.123,24.315 c -0.787,0.454 -1.666,0.682 -2.544,0.682 -0.879,0 -1.757,-0.228 -2.544,-0.682"
         id="path17553" />
    </clipPath>
    <linearGradient
       x1="0"
       y1="0"
       x2="1"
       y2="0"
       gradientUnits="userSpaceOnUse"
       gradientTransform="matrix(88.100621,0,0,88.100621,103.60101,48.6706)"
       spreadMethod="pad"
       id="linearGradient17579">
      <stop
         style="stop-opacity:1;stop-color:#9bb48f"
         offset="0"
         id="stop17569" />
      <stop
         style="stop-opacity:1;stop-color:#9bb48f"
         offset="0.0919165"
         id="stop17571" />
      <stop
         style="stop-opacity:1;stop-color:#9bb48f"
         offset="0.30262629"
         id="stop17573" />
      <stop
         style="stop-opacity:1;stop-color:#687e67"
         offset="0.862444"
         id="stop17575" />
      <stop
         style="stop-opacity:1;stop-color:#687e67"
         offset="1"
         id="stop17577" />
    </linearGradient>
    <linearGradient
       x1="0"
       y1="0"
       x2="1"
       y2="0"
       gradientUnits="userSpaceOnUse"
       gradientTransform="matrix(88.100621,0,0,88.100621,103.60101,104.57598)"
       spreadMethod="pad"
       id="linearGradient17605">
      <stop
         style="stop-opacity:1;stop-color:#9bb48f"
         offset="0"
         id="stop17595" />
      <stop
         style="stop-opacity:1;stop-color:#9bb48f"
         offset="0.0919165"
         id="stop17597" />
      <stop
         style="stop-opacity:1;stop-color:#9bb48f"
         offset="0.30262629"
         id="stop17599" />
      <stop
         style="stop-opacity:1;stop-color:#687e67"
         offset="0.862444"
         id="stop17601" />
      <stop
         style="stop-opacity:1;stop-color:#687e67"
         offset="1"
         id="stop17603" />
    </linearGradient>
    <clipPath
       clipPathUnits="userSpaceOnUse"
       id="clipPath17615">
      <path
         d="m 239.032,373.393 -42.134,-24.315 c -1.575,-0.909 -2.545,-2.588 -2.545,-4.407 v -48.666 c 0,-1.818 0.97,-3.497 2.544,-4.408 l 42.133,-24.334 c 1.576,-0.909 3.516,-0.909 5.091,0 l 42.124,24.334 c 1.574,0.911 2.543,2.59 2.543,4.408 v 48.668 c 0,1.817 -0.969,3.496 -2.545,4.405 l -42.123,24.315 c -0.787,0.454 -1.666,0.682 -2.544,0.682 -0.879,0 -1.757,-0.228 -2.544,-0.682"
         id="path17613" />
    </clipPath>
    <linearGradient
       x1="0"
       y1="0"
       x2="1"
       y2="0"
       gradientUnits="userSpaceOnUse"
       gradientTransform="matrix(88.100621,0,0,88.100621,103.60101,129.72695)"
       spreadMethod="pad"
       id="linearGradient17639">
      <stop
         style="stop-opacity:1;stop-color:#9bb48f"
         offset="0"
         id="stop17629" />
      <stop
         style="stop-opacity:1;stop-color:#9bb48f"
         offset="0.0919165"
         id="stop17631" />
      <stop
         style="stop-opacity:1;stop-color:#9bb48f"
         offset="0.30262629"
         id="stop17633" />
      <stop
         style="stop-opacity:1;stop-color:#687e67"
         offset="0.862444"
         id="stop17635" />
      <stop
         style="stop-opacity:1;stop-color:#687e67"
         offset="1"
         id="stop17637" />
    </linearGradient>
    <clipPath
       clipPathUnits="userSpaceOnUse"
       id="clipPath17649">
      <path
         d="m 239.032,373.393 -42.134,-24.315 c -1.575,-0.909 -2.545,-2.588 -2.545,-4.407 v -48.666 c 0,-1.818 0.97,-3.497 2.544,-4.408 l 42.133,-24.334 c 1.576,-0.909 3.516,-0.909 5.091,0 l 42.124,24.334 c 1.574,0.911 2.543,2.59 2.543,4.408 v 48.668 c 0,1.817 -0.969,3.496 -2.545,4.405 l -42.123,24.315 c -0.787,0.454 -1.666,0.682 -2.544,0.682 -0.879,0 -1.757,-0.228 -2.544,-0.682"
         id="path17647" />
    </clipPath>
    <linearGradient
       x1="0"
       y1="0"
       x2="1"
       y2="0"
       gradientUnits="userSpaceOnUse"
       gradientTransform="matrix(88.100621,0,0,88.100621,103.60101,141.09453)"
       spreadMethod="pad"
       id="linearGradient17673">
      <stop
         style="stop-opacity:1;stop-color:#9bb48f"
         offset="0"
         id="stop17663" />
      <stop
         style="stop-opacity:1;stop-color:#9bb48f"
         offset="0.0919165"
         id="stop17665" />
      <stop
         style="stop-opacity:1;stop-color:#9bb48f"
         offset="0.30262629"
         id="stop17667" />
      <stop
         style="stop-opacity:1;stop-color:#687e67"
         offset="0.862444"
         id="stop17669" />
      <stop
         style="stop-opacity:1;stop-color:#687e67"
         offset="1"
         id="stop17671" />
    </linearGradient>
    <clipPath
       clipPathUnits="userSpaceOnUse"
       id="clipPath17683">
      <path
         d="m 239.032,373.393 -42.134,-24.315 c -1.575,-0.909 -2.545,-2.588 -2.545,-4.407 v -48.666 c 0,-1.818 0.97,-3.497 2.544,-4.408 l 42.133,-24.334 c 1.576,-0.909 3.516,-0.909 5.091,0 l 42.124,24.334 c 1.574,0.911 2.543,2.59 2.543,4.408 v 48.668 c 0,1.817 -0.969,3.496 -2.545,4.405 l -42.123,24.315 c -0.787,0.454 -1.666,0.682 -2.544,0.682 -0.879,0 -1.757,-0.228 -2.544,-0.682"
         id="path17681" />
    </clipPath>
    <linearGradient
       x1="0"
       y1="0"
       x2="1"
       y2="0"
       gradientUnits="userSpaceOnUse"
       gradientTransform="matrix(-54.33486,110.84312,-110.84312,-54.33486,204.53683,70.898136)"
       spreadMethod="pad"
       id="linearGradient17703">
      <stop
         style="stop-opacity:1;stop-color:#687e67"
         offset="0"
         id="stop17697" />
      <stop
         style="stop-opacity:1;stop-color:#687e67"
         offset="0.5288042"
         id="stop17699" />
      <stop
         style="stop-opacity:1;stop-color:#83a178"
         offset="1"
         id="stop17701" />
    </linearGradient>
  </defs>
  <sodipodi:namedview
     id="namedview8"
     pagecolor="#505050"
     bordercolor="#ffffff"
     borderopacity="1"
     inkscape:pageshadow="0"
     inkscape:pageopacity="0"
     inkscape:pagecheckerboard="1"
     showgrid="false"
     inkscape:zoom="2.7714285"
     inkscape:cx="28.324743"
     inkscape:cy="204.94846"
     inkscape:window-width="3840"
     inkscape:window-height="2083"
     inkscape:window-x="0"
     inkscape:window-y="48"
     inkscape:window-maximized="1"
     inkscape:current-layer="svg6"
     inkscape:showpageshadow="0"
     inkscape:deskcolor="#505050" />
  <g
     id="g1087"
     transform="scale(0.99995028,1.0000502)">
    <g
       id="path18378" />
    <g
       id="path18380" />
    <path
       id="path18384"
       style="clip-rule:nonzero;fill:#ffffff;fill-opacity:1;fill-rule:nonzero;stroke:none;stroke-width:1.78273;stroke-linecap:round;stroke-linejoin:round;stroke-miterlimit:4"
       d="m 240.67969,74.931641 c -2.44706,0.131986 -4.32371,2.222876 -4.19141,4.669921 0.56614,10.469252 -2.43645,18.049384 -2.8457,30.843748 -0.31283,9.60777 1.84308,19.09135 2.30078,28.35352 0.4577,9.26217 -0.54289,18.08748 -6.67578,27.22656 -1.36543,2.03443 -0.8233,4.79054 1.21094,6.15625 2.03494,1.36505 4.79117,0.82203 6.15625,-1.21289 7.40069,-11.02833 8.67646,-22.35691 8.16992,-32.60742 -0.50654,-10.25051 -2.55509,-19.6365 -2.29492,-27.62695 l 0.002,-0.004 c 0.36497,-11.418614 3.50177,-19.330692 2.83789,-31.607423 -0.13199,-2.447059 -2.22288,-4.323701 -4.66992,-4.191406 z m -20.34375,12.048828 c -1.94376,0.270247 -3.66317,0.814339 -4.93164,1.521484 -0.63424,0.353573 -1.15875,0.746045 -1.54297,1.210938 -0.38422,0.464892 -0.63872,1.048825 -0.55469,1.666015 v 0.002 0.002 c 0.0834,0.590586 0.39332,1.11823 0.83203,1.66211 0.43871,0.54388 1.02422,1.084566 1.72852,1.560547 1.40858,0.951961 3.31534,1.649862 5.40429,1.359375 2.09128,-0.289281 3.86335,-1.484958 5.10938,-2.791016 0.62301,-0.653029 1.11576,-1.336257 1.45312,-1.986328 0.31892,-0.614518 0.49316,-1.185035 0.43946,-1.789063 -0.003,-0.03495 0.0303,-0.06833 0.0254,-0.103515 -0.0863,-0.617098 -0.49,-1.110817 -0.98633,-1.453125 -0.49633,-0.342309 -1.10974,-0.577078 -1.81641,-0.744141 -1.41333,-0.334125 -3.21635,-0.387436 -5.16015,-0.117187 z m -99.0586,2.224609 c -2.01948,-0.281044 -3.89567,-0.234285 -5.43164,0.128906 -0.76826,0.181662 -1.45793,0.436671 -2.06445,0.855469 -0.2556,0.176492 -0.48743,0.421302 -0.69922,0.683594 h -0.41601 l -0.17969,1.271484 c -3.1e-4,0.0022 3e-4,0.0037 0,0.0059 -0.12877,0.922464 0.1634,1.609926 0.53906,2.333984 0.37655,0.725758 0.90662,1.456762 1.57422,2.15625 1.33519,1.398977 3.23135,2.691622 5.54492,3.011719 2.30955,0.320777 4.39026,-0.444912 5.91602,-1.476563 0.76311,-0.515979 1.39794,-1.102017 1.88867,-1.710937 0.49073,-0.60892 0.8737,-1.205324 0.98828,-2.025391 0.12173,-0.871978 -0.24376,-1.67127 -0.71289,-2.240234 -0.46913,-0.568965 -1.06422,-1.0041 -1.75391,-1.388672 -1.37889,-0.76888 -3.16954,-1.324475 -5.1914,-1.605469 z m -0.40625,2.929688 c 1.71523,0.238197 3.2246,0.73809 4.16016,1.259765 0.46778,0.260838 0.78276,0.531037 0.91016,0.685547 0.12739,0.154511 0.0459,0.09819 0.0664,-0.04883 0.0134,-0.09582 -0.0799,0.228953 -0.36133,0.578125 -0.28139,0.349172 -0.71554,0.759142 -1.24218,1.115234 -1.05329,0.712184 -2.43379,1.195623 -3.85352,0.998047 h -0.002 c -1.42295,-0.196874 -2.82815,-1.095761 -3.8086,-2.123047 -0.49022,-0.513642 -0.87004,-1.05292 -1.08984,-1.476562 -0.21915,-0.422392 -0.20823,-0.757557 -0.23633,-0.560547 -8e-5,5.83e-4 9e-5,-0.0025 0,-0.002 l 0.002,-0.0078 c -0.0206,0.150776 -0.11767,0.183926 0.0469,0.07031 0.16454,-0.113613 0.54296,-0.286846 1.06445,-0.410156 1.04299,-0.246621 2.63182,-0.316557 4.34375,-0.07813 z m -6.92127,0.217568 c -0.20526,1.449931 2.66039,5.319009 6.39692,5.83598 3.73011,0.5191 6.92287,-2.504486 7.12526,-3.952992 0.20241,-1.449929 -2.65968,-3.047056 -6.39763,-3.566155 -3.73226,-0.519814 -6.92644,0.236795 -7.12385,1.683167 z m 3.89979,-17.147256 c -3.42449,-0.0016 -6.86802,0.498154 -10.18555,1.261719 -6.63506,1.52713 -12.837131,4.181491 -17.558591,6.804687 -2.36073,1.311598 -4.337044,2.601666 -5.896485,3.867188 -0.77972,0.632761 -1.455213,1.24341 -2.083984,2.003906 -0.628771,0.760496 -1.520114,1.576185 -1.535156,3.816406 -0.01892,2.8885 0.505741,7.788726 0.667968,14.994146 0.162228,7.20541 -0.02217,16.31687 -1.386718,26.05273 -3.804574,27.14615 16.024007,50.83275 40.490236,51.36133 0.0426,0.59673 -0.057,1.18755 0.0352,1.78711 0.37246,2.42145 2.63705,4.08273 5.0586,3.71093 2.42234,-0.37242 4.08392,-2.63829 3.71094,-5.06054 -0.6824,-4.43822 1.83411,-11.59292 5.14257,-20.49024 l 0.002,-0.002 c 4.49235,-12.05958 16.69421,-28.04357 7.38672,-70.992188 -1.93992,-8.949276 -7.29661,-14.864361 -13.77735,-17.361328 -3.24037,-1.248483 -6.64582,-1.752261 -10.07031,-1.753906 z m -0.0449,8.916016 c 2.57369,0.0012 4.94378,0.355497 6.92578,1.11914 3.96399,1.527288 6.84146,4.253817 8.29492,10.958985 8.90206,41.077771 -1.65677,51.587621 -7.03125,66.017581 l -0.002,0.002 c -1.81602,4.8837 -3.64714,9.50764 -4.77539,14.07617 -19.28861,-0.0186 -35.716634,-18.50968 -32.556644,-41.05664 1.454775,-10.37964 1.638092,-19.96297 1.46875,-27.48437 -0.154754,-6.87345 -0.542322,-11.53837 -0.609375,-13.466801 0.119523,-0.108486 0.11995,-0.126913 0.28125,-0.257812 0.961918,-0.780618 2.598384,-1.881411 4.615235,-3.001953 4.033701,-2.241084 9.641354,-4.623918 15.238284,-5.91211 2.79846,-0.644095 5.5767,-0.995315 8.15039,-0.99414 z m 13.83006,94.191406 c -3.16893,0.27615 -6.54111,2.06402 -9.52539,5.39648 -5.06572,5.64664 -6.88431,8.74834 -8.91797,10.36524 -2.03416,1.61729 -5.34935,2.95017 -14.841801,4.90039 -5.230626,1.07579 -8.687092,2.24738 -11.30664,4.37891 -1.309774,1.06576 -2.458395,2.54611 -2.88086,4.375 -0.422464,1.82888 0.02069,3.70216 0.742188,5.0371 1.443,2.6699 3.593077,4.03035 5.816406,5.24415 2.222781,1.21349 4.616837,2.10946 6.878906,2.67382 4.852481,1.21159 12.988511,2.73493 22.087891,1.18164 9.09938,-1.55329 19.18974,-6.41803 26.9707,-17.28906 3.22585,-4.50612 3.08938,-10.06174 1.41992,-14.55664 -1.66945,-4.4949 -4.79349,-8.42344 -9.30859,-10.29101 v -0.002 c -1.47797,-0.61086 -3.96584,-1.69021 -7.13476,-1.41406 z m 0.76953,8.8418 c 0.7071,-0.0616 1.57767,0.19606 2.97461,0.77343 1.43493,0.59354 3.4651,2.7213 4.3789,5.18164 0.9138,2.46035 0.79129,4.75815 -0.31445,6.30274 h -0.002 c -6.44321,9.002 -13.99079,12.46624 -21.24805,13.70508 -7.25726,1.23883 -14.19648,0.0174 -18.44336,-1.04297 h -0.002 c -1.489284,-0.37147 -3.344065,-1.07211 -4.775391,-1.85352 -0.577456,-0.31525 -0.535348,-0.3721 -0.912109,-0.67578 1.194722,-0.55653 2.973165,-1.24071 6.07617,-1.8789 9.84867,-2.02341 14.78087,-3.62547 18.57812,-6.64454 3.79726,-3.01906 5.3946,-6.25538 10.00196,-11.39062 l 0.004,-0.002 c 1.95666,-2.18495 2.97649,-2.41299 3.6836,-2.47461 z M 152.22656,3.390625 c -18.26953,-0.298939 -32.35218,5.2731782 -42.67578,13.849609 -10.323597,8.576432 -16.897215,19.96271 -21.136718,31.171875 -8.479005,22.41833 -7.822265,44.69336 -7.822265,44.69336 0.06458,2.449747 2.102995,4.383222 4.552734,4.318359 2.449747,-0.06458 4.383223,-2.102995 4.31836,-4.552734 0,0 -0.483326,-20.873546 7.25,-41.320313 3.866659,-10.223383 9.738669,-20.199325 18.507809,-27.484375 8.76914,-7.28505 20.42727,-12.073561 36.85938,-11.804687 33.22986,0.543605 54.73517,17.344413 68.01562,34.285156 6.64023,8.470372 11.13987,16.971748 13.76563,23.267578 0.81181,1.946489 1.1224,3.146181 1.58203,4.582031 -15.56075,-1.537143 -26.19631,1.047149 -32.13086,7.822266 -6.72386,7.676221 -6.33936,18.54201 -3.71289,29.04883 2.62646,10.50682 7.6914,21.30056 12.33984,30.20117 2.32422,4.45031 4.54845,8.41828 6.3086,11.56836 1.76014,3.15008 3.11431,5.67921 3.40039,6.37109 h -0.002 c 2.68562,6.49676 6.10931,11.10527 8.79883,14.49414 1.86801,2.35375 2.38704,3.29214 3.08203,4.41016 -1.05561,0.2946 -1.78643,0.41781 -3.25586,1.07812 -2.51862,1.1318 -5.42095,3.21888 -7.30468,6.66407 -1.88373,3.44518 -2.74795,7.96841 -2.40821,13.91992 v 0.002 c 0.13389,2.33873 1.43951,4.47637 2.98828,5.80078 1.54878,1.32442 3.304,2.09754 5.1875,2.68164 3.76701,1.16821 8.20815,1.54096 13.01172,1.48829 9.60716,-0.10535 20.41761,-1.94176 27.97071,-5.43946 8.51574,-3.94609 15.17238,-8.72762 18.5332,-13.78515 0.84021,-1.26439 1.55905,-2.60087 1.73633,-4.4375 0.17727,-1.83663 -0.75267,-4.36699 -2.41992,-5.63282 -3.33451,-2.53165 -6.54801,-1.88424 -10.9336,-0.98047 -17.43543,3.5909 -26.18467,2.2292 -30.01172,0.64844 -1.91352,-0.79038 -2.64607,-1.57564 -2.95703,-1.97656 -0.13962,-0.18002 -0.15402,-0.15635 -0.15039,-0.10938 -0.96363,-4.18054 -3.5967,-6.67372 -6.11719,-9.8496 -2.53932,-3.19963 -5.30634,-6.94241 -7.54882,-12.36719 -0.78953,-1.90949 -2.08635,-4.14943 -3.85157,-7.3086 -1.76521,-3.15916 -3.94113,-7.0409 -6.1914,-11.34961 -4.50054,-8.61741 -9.28248,-18.98256 -11.59766,-28.24414 -2.31518,-9.261576 -1.96764,-16.773128 1.7793,-21.050777 3.74693,-4.277649 12.37033,-7.174122 30.23242,-4.320312 l 1.59766,-0.03711 c 1.23094,-0.254149 2.2971,-1.11389 2.8125,-1.830078 0.51539,-0.716188 0.67673,-1.284889 0.7832,-1.726562 0.21294,-0.883347 0.17814,-1.395891 0.15039,-1.910157 -0.0555,-1.028531 -0.24091,-1.973436 -0.51953,-3.117187 -0.55724,-2.287502 -1.53213,-5.226526 -2.99024,-8.722656 C 239.13652,59.40813 234.29147,50.273718 227.07812,41.072266 212.65143,22.669361 188.41564,3.9826398 152.22656,3.390625 Z m 91.31836,174.964845 c 0.005,0.0119 0.0156,0.0449 0.0156,0.0449 -0.006,-0.008 -0.0117,-0.017 -0.0176,-0.0254 -0.001,-0.006 0.003,-0.0138 0.002,-0.0195 z m -4.71094,7.53906 c 1.17062,0.95128 2.56429,1.86936 4.39844,2.62695 6.36731,2.63002 16.77451,3.63352 35.18164,-0.15625 -2.71998,2.44988 -7.1833,5.6616 -12.42773,8.0918 -5.52119,2.55626 -15.90189,4.52468 -24.33789,4.61719 -4.21837,0.0463 -8.01302,-0.38522 -10.28516,-1.08985 -1.07014,-0.33186 -1.68779,-0.7103 -1.92969,-0.89648 -0.20278,-4.55075 0.49065,-7.26158 1.31836,-8.77539 0.85578,-1.56514 1.81435,-2.22511 3.15625,-2.82813 1.3419,-0.60301 2.94146,-0.88936 4.88867,-1.57421 0.0112,-0.004 0.0259,-0.0117 0.0371,-0.0156 z M 211.85742,0.01171875 c -11.08847,0.10277542 -20.72663,1.75777805 -27.39258,3.31250005 -3.33297,0.7773609 -5.91826,1.528609 -7.58789,2.0624999 -0.83481,0.2669455 -1.41784,0.4700581 -1.84375,0.6328125 -0.10647,0.040689 -0.19981,0.077935 -0.32812,0.1328125 -0.0642,0.027439 -0.13426,0.055541 -0.25977,0.1171875 -0.1255,0.061646 -0.11151,-0.1000063 -0.96484,0.6367188 -0.42667,0.3683626 -0.6997,5.962227 -0.69922,5.962891 4.8e-4,6.63e-4 3.36356,1.847626 3.75586,1.833984 0.7846,-0.02728 0.77838,-0.09403 0.90039,-0.123047 0.24401,-0.05804 0.32121,-0.08459 0.43164,-0.11914 0.29281,-0.121532 0.57174,-0.274096 0.83203,-0.455079 -0.0541,0.01566 -0.30558,0.209767 -0.34375,0.228516 -0.10229,0.05024 -0.13964,0.06573 -0.16406,0.07617 -0.0489,0.02089 -0.0301,0.01252 0.008,-0.002 0.15155,-0.05791 0.65973,-0.238782 1.37891,-0.46875 1.43835,-0.459936 3.81317,-1.153005 6.90039,-1.873047 6.17443,-1.440084 15.20961,-2.9870334 25.45898,-3.0820314 20.49874,-0.189996 45.48778,5.2042024 63.80078,28.5527344 2.25137,2.87076 4.03171,9.757361 3.88477,19.25 -0.14694,9.492639 -1.96152,21.482622 -5.38477,34.707031 -6.84649,26.448818 -20.10698,57.871348 -38.70507,85.408198 -1.37118,2.03112 -0.83599,4.78925 1.19531,6.16016 2.03061,1.37156 4.78862,0.83727 6.16015,-1.19336 19.25176,-28.50468 32.82761,-60.67086 39.94141,-88.152342 3.5569,-13.740738 5.50359,-26.299875 5.66602,-36.792968 C 288.66047,46.331125 287.2983,37.795425 282.72266,31.960937 262.3812,6.0261895 234.03437,-0.19383208 211.85742,0.01171875 Z m -35.6289,5.82421875 c 0.0634,-0.00221 0.41817,0.2193756 0.61328,0.3007812 -0.52671,-0.1483782 -1.07632,-0.1980419 -1.6211,-0.1464843 -0.0141,0.00441 -0.025,0.00199 0.16407,-0.042969 0.0945,-0.02248 0.0695,-0.084405 0.84375,-0.1113279 z m 3.36914,1.6503906 c 0.061,0.033287 0.37504,0.1836602 0.375,0.1835938 -2e-5,-2.88e-5 -0.0146,0.2260174 -0.0156,0.2460937 C 179.84644,7.76536 179.72641,7.6218449 179.59769,7.4863281 Z M 68.228516,4.2011719 c -3.625532,-0.1702951 -7.311229,-0.1758952 -11,0.035156 C 42.47343,5.080534 27.324343,9.4953292 16.277344,21.171875 5.2303441,32.848421 -1.1991303,51.359689 0.17773437,78.826172 0.50130271,85.282869 2.7121073,98.688571 6.4433594,115.30469 c 3.7312516,16.61611 8.9812926,36.12481 15.4355466,53.64258 6.454254,17.51776 13.8785,33.01249 23.171875,42.02539 4.646688,4.50645 10.126984,7.53545 16.173828,7.27929 6.046845,-0.25615 11.793384,-3.79744 16.970703,-10.00781 13.611342,-16.33905 25.925778,-29.16016 25.925778,-29.16016 1.69786,-1.76687 1.64189,-4.57559 -0.125,-6.27343 -1.76687,-1.69786 -4.575598,-1.64189 -6.273434,0.125 0,0 -12.508778,13.02141 -26.34375,29.6289 -4.210563,5.05031 -7.662022,6.70081 -10.529297,6.82227 -2.867506,0.12147 -6.017134,-1.28801 -9.621093,-4.7832 C 44.020596,197.61313 36.459049,182.85307 30.205078,165.87891 23.951107,148.90474 18.767792,129.68593 15.101563,113.35938 11.435333,97.032819 9.2845595,83.27967 9.0390625,78.380859 7.7402114,52.470635 13.693385,36.81738 22.724609,27.271484 31.755833,17.725589 44.380638,13.859731 57.734375,13.095703 c 26.707475,-1.528056 54.958985,9.806641 54.958985,9.806641 2.269,0.924856 4.85815,-0.164668 5.7832,-2.433594 0.92486,-2.269004 -0.16466,-4.858154 -2.43359,-5.783203 0,0 -22.435733,-9.2923097 -47.814454,-10.4843751 z M 144.9668,190.87305 c -2.44903,-0.0682 -4.48981,1.86153 -4.5586,4.31054 -0.49614,17.69885 -0.43567,35.44367 0.1875,49.92969 0.31159,7.24301 0.76266,13.66666 1.36719,18.91406 0.60453,5.24741 1.24289,9.1702 2.46289,12.21485 1.76458,4.40101 4.7154,11.56792 11.16211,16.98633 6.44672,5.4184 16.44757,8.57524 30.1582,5.64453 h 0.002 c 11.08576,-2.37139 19.30282,-6.01018 25.13476,-12.0586 5.83195,-6.04842 8.87767,-14.11407 10.63281,-24.27148 2.54203,-14.696 7.23545,-53.71968 7.89454,-62.48828 0.18305,-2.44311 -1.64874,-4.57218 -4.0918,-4.75586 -2.4431,-0.18305 -4.57218,1.64873 -4.75586,4.09179 -0.56244,7.48282 -5.39282,47.77614 -7.79102,61.64063 -1.59869,9.25198 -4.09398,15.28838 -8.27539,19.625 -4.18141,4.33662 -10.44941,7.36655 -20.60547,9.53906 -11.71388,2.50343 -18.12353,-0.003 -22.59375,-3.75976 -4.47048,-3.75741 -6.94434,-9.27808 -8.63476,-13.49414 -0.50645,-1.2639 -1.31744,-5.00521 -1.88477,-9.92969 -0.56732,-4.92448 -1.01099,-11.17984 -1.3164,-18.2793 -0.61082,-14.19891 -0.67255,-31.78896 -0.18164,-49.30078 0.0682,-2.44977 -1.86272,-4.49086 -4.3125,-4.55859 z"
       sodipodi:nodetypes="cccscccsccccccsscccsscssccsscccssccccsscsscsscccsscssccsssccsscccccccccsssscsccccccccscccscccccscsssccscscsssscscsccssccsccsccsccscccccsscccsscsscssssccscssccssscssscsscscssssccsssscscccccssccsscsssssssssssssssccsscssscsscccsccssccsscscscssscssssccsccsssscsscccsscsscsccscccccscccsscss" />
  </g>
</svg>
