<?xml version="1.0" encoding="UTF-8" standalone="no"?>
<svg
   viewBox="0 0 300 300"
   version="1.1"
   id="svg6"
   sodipodi:docname="postgresql.svg"
   width="300"
   height="300"
   inkscape:version="1.1.2 (0a00cf5339, 2022-02-04, custom)"
   xmlns:inkscape="http://www.inkscape.org/namespaces/inkscape"
   xmlns:sodipodi="http://sodipodi.sourceforge.net/DTD/sodipodi-0.dtd"
   xmlns="http://www.w3.org/2000/svg"
   xmlns:svg="http://www.w3.org/2000/svg">
  <defs
     id="defs10"><clipPath
   clipPathUnits="userSpaceOnUse"
   id="clipPath17471">
  <path
     d="M 0,600 H 600 V 0 H 0 Z"
     id="path17469" />
</clipPath>
<linearGradient
   x1="0"
   y1="0"
   x2="1"
   y2="0"
   gradientUnits="userSpaceOnUse"
   gradientTransform="matrix(-34.424583,70.226151,-70.226151,-34.424583,163.14392,72.980185)"
   spreadMethod="pad"
   id="linearGradient17519">
  <stop
     style="stop-opacity:1;stop-color:#687e67"
     offset="0"
     id="stop17513" />
  <stop
     style="stop-opacity:1;stop-color:#687e67"
     offset="0.5288042"
     id="stop17515" />
  <stop
     style="stop-opacity:1;stop-color:#83a178"
     offset="1"
     id="stop17517" />
</linearGradient>
<linearGradient
   x1="0"
   y1="0"
   x2="1"
   y2="0"
   gradientUnits="userSpaceOnUse"
   gradientTransform="matrix(96.592852,-71.367959,71.367959,96.592852,141.85151,109.73258)"
   spreadMethod="pad"
   id="linearGradient17545">
  <stop
     style="stop-opacity:1;stop-color:#687e67"
     offset="0"
     id="stop17535" />
  <stop
     style="stop-opacity:1;stop-color:#687e67"
     offset="0.137556"
     id="stop17537" />
  <stop
     style="stop-opacity:1;stop-color:#9bb48f"
     offset="0.69737407"
     id="stop17539" />
  <stop
     style="stop-opacity:1;stop-color:#9bb48f"
     offset="0.908084"
     id="stop17541" />
  <stop
     style="stop-opacity:1;stop-color:#9bb48f"
     offset="1"
     id="stop17543" />
</linearGradient>
<clipPath
   clipPathUnits="userSpaceOnUse"
   id="clipPath17555">
  <path
     d="m 239.032,373.393 -42.134,-24.315 c -1.575,-0.909 -2.545,-2.588 -2.545,-4.407 v -48.666 c 0,-1.818 0.97,-3.497 2.544,-4.408 l 42.133,-24.334 c 1.576,-0.909 3.516,-0.909 5.091,0 l 42.124,24.334 c 1.574,0.911 2.543,2.59 2.543,4.408 v 48.668 c 0,1.817 -0.969,3.496 -2.545,4.405 l -42.123,24.315 c -0.787,0.454 -1.666,0.682 -2.544,0.682 -0.879,0 -1.757,-0.228 -2.544,-0.682"
     id="path17553" />
</clipPath>
<linearGradient
   x1="0"
   y1="0"
   x2="1"
   y2="0"
   gradientUnits="userSpaceOnUse"
   gradientTransform="matrix(88.100621,0,0,88.100621,103.60101,48.6706)"
   spreadMethod="pad"
   id="linearGradient17579">
  <stop
     style="stop-opacity:1;stop-color:#9bb48f"
     offset="0"
     id="stop17569" />
  <stop
     style="stop-opacity:1;stop-color:#9bb48f"
     offset="0.0919165"
     id="stop17571" />
  <stop
     style="stop-opacity:1;stop-color:#9bb48f"
     offset="0.30262629"
     id="stop17573" />
  <stop
     style="stop-opacity:1;stop-color:#687e67"
     offset="0.862444"
     id="stop17575" />
  <stop
     style="stop-opacity:1;stop-color:#687e67"
     offset="1"
     id="stop17577" />
</linearGradient>
<linearGradient
   x1="0"
   y1="0"
   x2="1"
   y2="0"
   gradientUnits="userSpaceOnUse"
   gradientTransform="matrix(88.100621,0,0,88.100621,103.60101,104.57598)"
   spreadMethod="pad"
   id="linearGradient17605">
  <stop
     style="stop-opacity:1;stop-color:#9bb48f"
     offset="0"
     id="stop17595" />
  <stop
     style="stop-opacity:1;stop-color:#9bb48f"
     offset="0.0919165"
     id="stop17597" />
  <stop
     style="stop-opacity:1;stop-color:#9bb48f"
     offset="0.30262629"
     id="stop17599" />
  <stop
     style="stop-opacity:1;stop-color:#687e67"
     offset="0.862444"
     id="stop17601" />
  <stop
     style="stop-opacity:1;stop-color:#687e67"
     offset="1"
     id="stop17603" />
</linearGradient>
<clipPath
   clipPathUnits="userSpaceOnUse"
   id="clipPath17615">
  <path
     d="m 239.032,373.393 -42.134,-24.315 c -1.575,-0.909 -2.545,-2.588 -2.545,-4.407 v -48.666 c 0,-1.818 0.97,-3.497 2.544,-4.408 l 42.133,-24.334 c 1.576,-0.909 3.516,-0.909 5.091,0 l 42.124,24.334 c 1.574,0.911 2.543,2.59 2.543,4.408 v 48.668 c 0,1.817 -0.969,3.496 -2.545,4.405 l -42.123,24.315 c -0.787,0.454 -1.666,0.682 -2.544,0.682 -0.879,0 -1.757,-0.228 -2.544,-0.682"
     id="path17613" />
</clipPath>
<linearGradient
   x1="0"
   y1="0"
   x2="1"
   y2="0"
   gradientUnits="userSpaceOnUse"
   gradientTransform="matrix(88.100621,0,0,88.100621,103.60101,129.72695)"
   spreadMethod="pad"
   id="linearGradient17639">
  <stop
     style="stop-opacity:1;stop-color:#9bb48f"
     offset="0"
     id="stop17629" />
  <stop
     style="stop-opacity:1;stop-color:#9bb48f"
     offset="0.0919165"
     id="stop17631" />
  <stop
     style="stop-opacity:1;stop-color:#9bb48f"
     offset="0.30262629"
     id="stop17633" />
  <stop
     style="stop-opacity:1;stop-color:#687e67"
     offset="0.862444"
     id="stop17635" />
  <stop
     style="stop-opacity:1;stop-color:#687e67"
     offset="1"
     id="stop17637" />
</linearGradient>
<clipPath
   clipPathUnits="userSpaceOnUse"
   id="clipPath17649">
  <path
     d="m 239.032,373.393 -42.134,-24.315 c -1.575,-0.909 -2.545,-2.588 -2.545,-4.407 v -48.666 c 0,-1.818 0.97,-3.497 2.544,-4.408 l 42.133,-24.334 c 1.576,-0.909 3.516,-0.909 5.091,0 l 42.124,24.334 c 1.574,0.911 2.543,2.59 2.543,4.408 v 48.668 c 0,1.817 -0.969,3.496 -2.545,4.405 l -42.123,24.315 c -0.787,0.454 -1.666,0.682 -2.544,0.682 -0.879,0 -1.757,-0.228 -2.544,-0.682"
     id="path17647" />
</clipPath>
<linearGradient
   x1="0"
   y1="0"
   x2="1"
   y2="0"
   gradientUnits="userSpaceOnUse"
   gradientTransform="matrix(88.100621,0,0,88.100621,103.60101,141.09453)"
   spreadMethod="pad"
   id="linearGradient17673">
  <stop
     style="stop-opacity:1;stop-color:#9bb48f"
     offset="0"
     id="stop17663" />
  <stop
     style="stop-opacity:1;stop-color:#9bb48f"
     offset="0.0919165"
     id="stop17665" />
  <stop
     style="stop-opacity:1;stop-color:#9bb48f"
     offset="0.30262629"
     id="stop17667" />
  <stop
     style="stop-opacity:1;stop-color:#687e67"
     offset="0.862444"
     id="stop17669" />
  <stop
     style="stop-opacity:1;stop-color:#687e67"
     offset="1"
     id="stop17671" />
</linearGradient>
<clipPath
   clipPathUnits="userSpaceOnUse"
   id="clipPath17683">
  <path
     d="m 239.032,373.393 -42.134,-24.315 c -1.575,-0.909 -2.545,-2.588 -2.545,-4.407 v -48.666 c 0,-1.818 0.97,-3.497 2.544,-4.408 l 42.133,-24.334 c 1.576,-0.909 3.516,-0.909 5.091,0 l 42.124,24.334 c 1.574,0.911 2.543,2.59 2.543,4.408 v 48.668 c 0,1.817 -0.969,3.496 -2.545,4.405 l -42.123,24.315 c -0.787,0.454 -1.666,0.682 -2.544,0.682 -0.879,0 -1.757,-0.228 -2.544,-0.682"
     id="path17681" />
</clipPath>
<linearGradient
   x1="0"
   y1="0"
   x2="1"
   y2="0"
   gradientUnits="userSpaceOnUse"
   gradientTransform="matrix(-54.33486,110.84312,-110.84312,-54.33486,204.53683,70.898136)"
   spreadMethod="pad"
   id="linearGradient17703">
  <stop
     style="stop-opacity:1;stop-color:#687e67"
     offset="0"
     id="stop17697" />
  <stop
     style="stop-opacity:1;stop-color:#687e67"
     offset="0.5288042"
     id="stop17699" />
  <stop
     style="stop-opacity:1;stop-color:#83a178"
     offset="1"
     id="stop17701" />
</linearGradient>

	












</defs>
  <sodipodi:namedview
     id="namedview8"
     pagecolor="#505050"
     bordercolor="#ffffff"
     borderopacity="1"
     inkscape:pageshadow="0"
     inkscape:pageopacity="0"
     inkscape:pagecheckerboard="1"
     showgrid="false"
     inkscape:zoom="1.9596959"
     inkscape:cx="227.84147"
     inkscape:cy="156.65696"
     inkscape:window-width="1895"
     inkscape:window-height="2063"
     inkscape:window-x="1925"
     inkscape:window-y="58"
     inkscape:window-maximized="1"
     inkscape:current-layer="svg6" />
  <g
     id="g18777"
     transform="translate(-7.5230125,0.01003878)">
    <path
       d="m 128.62523,162.76037 c -0.82526,29.34475 0.20736,58.89395 3.09429,66.07547 2.88871,7.18151 9.07073,21.14983 30.32911,16.62035 17.76011,-3.78691 24.22217,-11.1154 27.02628,-27.29128 2.06524,-11.90123 6.04675,-44.95348 6.5574,-51.72549"
       id="path18366"
       style="clip-rule:nonzero;fill:none;fill-rule:nonzero;stroke:#ffffff;stroke-width:7.40727;stroke-linecap:round;stroke-linejoin:round;stroke-miterlimit:4" />
    <path
       d="m 103.1452,15.652591 c 0,0 -96.2433877,-39.123174 -91.769099,49.845657 0.951582,18.927471 27.277728,143.217742 58.675809,105.675712 11.47382,-13.72891 21.850666,-24.49643 21.850666,-24.49643"
       id="path18368"
       style="clip-rule:nonzero;fill:none;fill-rule:nonzero;stroke:#ffffff;stroke-width:7.40727;stroke-linecap:round;stroke-linejoin:round;stroke-miterlimit:4" />
    <path
       d="m 155.13073,8.5119684 c -3.33144,1.0388864 53.53654,-20.6763244 85.85522,20.3966076 11.41602,14.509993 -1.81319,73.793904 -33.45915,120.499204"
       id="path18370"
       style="clip-rule:nonzero;fill:none;fill-rule:nonzero;stroke:#ffffff;stroke-width:7.40727;stroke-linecap:round;stroke-linejoin:round;stroke-miterlimit:4" />
    <path
       style="clip-rule:nonzero;fill:none;fill-rule:nonzero;stroke:#ffffff;stroke-width:7.40727;stroke-linecap:round;stroke-linejoin:bevel;stroke-miterlimit:4"
       d="m 207.52621,149.40778 c 0,0 2.06226,10.09608 32.03565,3.94278 13.13268,-2.69766 5.22923,7.57028 -8.08995,13.72239 -10.931,5.04567 -35.43799,6.33879 -35.83841,-0.63353 -1.03023,-17.98933 12.89852,-12.52408 11.8933,-17.03164 -0.90868,-4.05953 -7.13776,-8.04379 -11.25811,-17.97926 -3.59719,-8.67198 -49.33456,-75.174735 12.684,-65.297932 C 211.22469,65.663001 192.77756,7.4588634 134.73694,6.5124321 76.709419,5.5659963 78.613181,77.487186 78.613181,77.487186"
       id="path18372" />
    <path
       d="m 112.38098,155.55989 c -8.08994,8.98785 -5.71069,10.56603 -21.881647,13.87766 -16.361632,3.35429 -6.748674,9.32387 -0.474898,10.88368 7.607901,1.89346 25.208915,4.57393 37.101625,-11.98835 3.62161,-5.0427 -0.0215,-13.08886 -4.99626,-15.13996 -2.40369,-0.99028 -5.61774,-2.23126 -9.74882,2.36697 z"
       id="path18374"
       style="clip-rule:nonzero;fill:none;fill-rule:nonzero;stroke:#ffffff;stroke-width:7.40727;stroke-linecap:round;stroke-linejoin:round;stroke-miterlimit:4" />
    <path
       d="m 111.85127,155.40285 c -0.81514,-5.2845 1.74586,-11.57292 4.49037,-18.92985 4.12452,-11.03835 13.64095,-22.07849 6.02829,-57.093538 -5.67435,-26.092984 -43.73351,-5.430287 -43.757344,-1.892276 -0.02324,3.536829 1.72143,17.933036 -0.63578,34.697404 -3.075813,21.87581 13.995486,40.37718 33.653394,38.48431"
       id="path18376"
       style="clip-rule:nonzero;fill:none;fill-rule:nonzero;stroke:#ffffff;stroke-width:7.40727;stroke-linecap:round;stroke-linejoin:round;stroke-miterlimit:4" />
    <path
       style="clip-rule:nonzero;fill:#ffffff;fill-rule:nonzero;stroke:#ffffff;stroke-width:2.46908;stroke-linecap:butt;stroke-linejoin:miter;stroke-miterlimit:4"
       d="m 102.79544,76.956782 c -0.17161,1.208378 2.22433,4.432884 5.34841,4.86373 3.11871,0.43262 5.78815,-2.087249 5.95737,-3.29444 0.16923,-1.208377 -2.22374,-2.539429 -5.349,-2.972049 -3.12051,-0.433215 -5.79114,0.197346 -5.95619,1.402759 z"
       id="path18378" />
    <path
       style="clip-rule:nonzero;fill:#ffffff;fill-rule:nonzero;stroke:#ffffff;stroke-width:1.23454;stroke-linecap:butt;stroke-linejoin:miter;stroke-miterlimit:4"
       d="m 197.78931,74.493211 c 0.16923,1.208377 -2.22373,4.432888 -5.34841,4.863729 -3.1211,0.43262 -5.79053,-2.087248 -5.96155,-3.294439 -0.16505,-1.208378 2.22851,-2.539425 5.3502,-2.97205 3.1217,-0.432619 5.79054,0.197347 5.95976,1.403355 z"
       id="path18380" />
    <path
       d="m 208.95269,66.130588 c 0.51422,9.47855 -2.05272,15.934678 -2.37627,26.024828 -0.47907,14.666444 7.03051,31.453334 -4.28481,48.260954"
       id="path18382"
       style="clip-rule:nonzero;fill:none;fill-rule:nonzero;stroke:#ffffff;stroke-width:7.40727;stroke-linecap:round;stroke-linejoin:round;stroke-miterlimit:4" />
  </g>
  <path
     style="clip-rule:nonzero;fill:none;fill-rule:nonzero;stroke:#ffffff;stroke-width:1.78273;stroke-linecap:round;stroke-linejoin:round;stroke-miterlimit:4"
     d="M 2.4812732e-6,28.676263"
     id="path18384" />
</svg>
