<?xml version="1.0" encoding="UTF-8" standalone="no"?>
<!-- Generator: Adobe Illustrator 25.0.0, SVG Export Plug-In . SVG Version: 6.00 Build 0)  -->

<svg
   version="1.1"
   id="Layer_1"
   x="0px"
   y="0px"
   viewBox="0 0 300 300"
   xml:space="preserve"
   sodipodi:docname="Adobe Photoshop CC.svg"
   width="300"
   height="300"
   inkscape:version="1.2 (dc2aedaf03, 2022-05-15)"
   xmlns:inkscape="http://www.inkscape.org/namespaces/inkscape"
   xmlns:sodipodi="http://sodipodi.sourceforge.net/DTD/sodipodi-0.dtd"
   xmlns="http://www.w3.org/2000/svg"
   xmlns:svg="http://www.w3.org/2000/svg"><defs
   id="defs3616">
	
	
</defs><sodipodi:namedview
   id="namedview3614"
   pagecolor="#505050"
   bordercolor="#ffffff"
   borderopacity="1"
   inkscape:showpageshadow="0"
   inkscape:pageopacity="0"
   inkscape:pagecheckerboard="1"
   inkscape:deskcolor="#505050"
   showgrid="false"
   inkscape:zoom="0.472"
   inkscape:cx="45.550847"
   inkscape:cy="250"
   inkscape:window-width="3840"
   inkscape:window-height="2083"
   inkscape:window-x="0"
   inkscape:window-y="48"
   inkscape:window-maximized="1"
   inkscape:current-layer="Layer_1" />
<style
   type="text/css"
   id="style3599">
	.st0{fill:#001E36;}
	.st1{fill:#31A8FF;}
</style>
<g
   id="Outlined_Mnemonics_Logos"
   transform="matrix(0.70555033,0,0,0.723589,-26.387582,-30.89725)">
		<g
   id="Ps">
			<path
   class="st1"
   d="M 133.1,333.4 V 151.1 c 0,-1.2 0.5,-1.9 1.8,-1.9 3,0 5.8,0 9.9,-0.2 4.3,-0.2 8.7,-0.2 13.5,-0.4 4.8,-0.2 9.9,-0.2 15.4,-0.4 5.5,-0.2 10.8,-0.2 16.1,-0.2 14.5,0 26.6,1.8 36.5,5.5 8.9,3 17,8 23.7,14.5 5.7,5.7 10.1,12.6 12.9,20.2 2.7,7.4 4.1,15.1 4.1,23 0,15.2 -3.5,27.8 -10.6,37.7 -7.1,9.9 -17,17.4 -28.5,21.6 -12,4.4 -25.3,6 -39.9,6 -4.3,0 -7.1,0 -8.9,-0.2 -1.8,-0.2 -4.3,-0.2 -7.6,-0.2 V 333 c 0.2,1.2 -0.7,2.3 -1.9,2.5 -0.2,0 -0.4,0 -0.7,0 h -33.7 c -1.4,0.2 -2.1,-0.5 -2.1,-2.1 z m 38.6,-150 v 59.5 c 2.5,0.2 4.8,0.4 6.9,0.4 h 9.4 c 6.9,0 13.8,-1.1 20.4,-3.2 5.7,-1.6 10.6,-5 14.5,-9.4 3.7,-4.4 5.5,-10.5 5.5,-18.2 0.2,-5.5 -1.2,-11 -4.1,-15.8 -3,-4.6 -7.3,-8.1 -12.4,-10.1 -6.6,-2.7 -13.6,-3.7 -20.9,-3.5 -4.6,0 -8.7,0 -12,0.2 -3.6,-0.3 -6.1,-0.1 -7.3,0.1 z"
   id="path3606" />
			<path
   class="st1"
   d="m 377.6,232.1 c -5.3,-2.8 -11,-4.8 -17,-6 -6.6,-1.4 -13.1,-2.3 -19.8,-2.3 -3.5,-0.2 -7.3,0.4 -10.6,1.2 -2.3,0.5 -4.3,1.8 -5.5,3.5 -0.9,1.4 -1.4,3.2 -1.4,4.8 0,1.6 0.7,3.2 1.8,4.6 1.6,1.9 3.7,3.5 6,4.8 4.1,2.1 8.3,4.1 12.6,5.8 9.6,3.2 18.8,7.6 27.3,12.9 5.8,3.7 10.6,8.7 14,14.7 2.8,5.7 4.3,11.9 4.1,18.2 0.2,8.3 -2.3,16.7 -6.9,23.6 -5,7.1 -11.9,12.6 -19.8,15.8 -8.7,3.7 -19.3,5.7 -32.1,5.7 -8.1,0 -16.1,-0.7 -24.1,-2.3 -6.2,-1.1 -12.4,-3 -18.1,-5.7 -1.2,-0.7 -2.1,-1.9 -1.9,-3.4 v -30.8 c 0,-0.5 0.2,-1.2 0.7,-1.6 0.5,-0.4 1.1,-0.2 1.6,0.2 6.9,4.1 14.2,6.9 22,8.7 6.7,1.8 13.8,2.7 20.9,2.7 6.7,0 11.5,-0.9 14.7,-2.5 2.8,-1.2 4.8,-4.3 4.8,-7.4 0,-2.5 -1.4,-4.8 -4.3,-7.1 -2.8,-2.3 -8.7,-5 -17.4,-8.3 -9,-3.2 -17.4,-7.4 -25.2,-12.8 -5.5,-3.9 -10.1,-9 -13.5,-15.1 -2.8,-5.7 -4.3,-11.9 -4.1,-18.1 0,-7.6 2.1,-14.9 6,-21.4 4.4,-7.1 11,-12.8 18.6,-16.3 8.3,-4.3 18.8,-6.2 31.4,-6.2 7.3,0 14.7,0.5 22,1.6 5.3,0.7 10.5,2.1 15.2,4.1 0.7,0.2 1.4,0.9 1.8,1.6 0.2,0.7 0.4,1.4 0.4,2.1 v 28.9 c 0,0.7 -0.4,1.4 -0.9,1.8 -1.7,0.4 -2.6,0.4 -3.3,0 z"
   id="path3608" />
		</g>
	</g>
</svg>
