<?xml version="1.0" encoding="UTF-8" standalone="no"?>
<svg
   viewBox="0 0 320 300"
   version="1.1"
   id="svg6"
   sodipodi:docname="react.svg"
   width="320"
   height="300"
   inkscape:version="1.1.2 (0a00cf5339, 2022-02-04, custom)"
   xmlns:inkscape="http://www.inkscape.org/namespaces/inkscape"
   xmlns:sodipodi="http://sodipodi.sourceforge.net/DTD/sodipodi-0.dtd"
   xmlns="http://www.w3.org/2000/svg"
   xmlns:svg="http://www.w3.org/2000/svg">
  <defs
     id="defs10"><clipPath
   clipPathUnits="userSpaceOnUse"
   id="clipPath17471">
  <path
     d="M 0,600 H 600 V 0 H 0 Z"
     id="path17469" />
</clipPath>
<linearGradient
   x1="0"
   y1="0"
   x2="1"
   y2="0"
   gradientUnits="userSpaceOnUse"
   gradientTransform="matrix(-34.424583,70.226151,-70.226151,-34.424583,163.14392,72.980185)"
   spreadMethod="pad"
   id="linearGradient17519">
  <stop
     style="stop-opacity:1;stop-color:#687e67"
     offset="0"
     id="stop17513" />
  <stop
     style="stop-opacity:1;stop-color:#687e67"
     offset="0.5288042"
     id="stop17515" />
  <stop
     style="stop-opacity:1;stop-color:#83a178"
     offset="1"
     id="stop17517" />
</linearGradient>
<linearGradient
   x1="0"
   y1="0"
   x2="1"
   y2="0"
   gradientUnits="userSpaceOnUse"
   gradientTransform="matrix(96.592852,-71.367959,71.367959,96.592852,141.85151,109.73258)"
   spreadMethod="pad"
   id="linearGradient17545">
  <stop
     style="stop-opacity:1;stop-color:#687e67"
     offset="0"
     id="stop17535" />
  <stop
     style="stop-opacity:1;stop-color:#687e67"
     offset="0.137556"
     id="stop17537" />
  <stop
     style="stop-opacity:1;stop-color:#9bb48f"
     offset="0.69737407"
     id="stop17539" />
  <stop
     style="stop-opacity:1;stop-color:#9bb48f"
     offset="0.908084"
     id="stop17541" />
  <stop
     style="stop-opacity:1;stop-color:#9bb48f"
     offset="1"
     id="stop17543" />
</linearGradient>
<clipPath
   clipPathUnits="userSpaceOnUse"
   id="clipPath17555">
  <path
     d="m 239.032,373.393 -42.134,-24.315 c -1.575,-0.909 -2.545,-2.588 -2.545,-4.407 v -48.666 c 0,-1.818 0.97,-3.497 2.544,-4.408 l 42.133,-24.334 c 1.576,-0.909 3.516,-0.909 5.091,0 l 42.124,24.334 c 1.574,0.911 2.543,2.59 2.543,4.408 v 48.668 c 0,1.817 -0.969,3.496 -2.545,4.405 l -42.123,24.315 c -0.787,0.454 -1.666,0.682 -2.544,0.682 -0.879,0 -1.757,-0.228 -2.544,-0.682"
     id="path17553" />
</clipPath>
<linearGradient
   x1="0"
   y1="0"
   x2="1"
   y2="0"
   gradientUnits="userSpaceOnUse"
   gradientTransform="matrix(88.100621,0,0,88.100621,103.60101,48.6706)"
   spreadMethod="pad"
   id="linearGradient17579">
  <stop
     style="stop-opacity:1;stop-color:#9bb48f"
     offset="0"
     id="stop17569" />
  <stop
     style="stop-opacity:1;stop-color:#9bb48f"
     offset="0.0919165"
     id="stop17571" />
  <stop
     style="stop-opacity:1;stop-color:#9bb48f"
     offset="0.30262629"
     id="stop17573" />
  <stop
     style="stop-opacity:1;stop-color:#687e67"
     offset="0.862444"
     id="stop17575" />
  <stop
     style="stop-opacity:1;stop-color:#687e67"
     offset="1"
     id="stop17577" />
</linearGradient>
<linearGradient
   x1="0"
   y1="0"
   x2="1"
   y2="0"
   gradientUnits="userSpaceOnUse"
   gradientTransform="matrix(88.100621,0,0,88.100621,103.60101,104.57598)"
   spreadMethod="pad"
   id="linearGradient17605">
  <stop
     style="stop-opacity:1;stop-color:#9bb48f"
     offset="0"
     id="stop17595" />
  <stop
     style="stop-opacity:1;stop-color:#9bb48f"
     offset="0.0919165"
     id="stop17597" />
  <stop
     style="stop-opacity:1;stop-color:#9bb48f"
     offset="0.30262629"
     id="stop17599" />
  <stop
     style="stop-opacity:1;stop-color:#687e67"
     offset="0.862444"
     id="stop17601" />
  <stop
     style="stop-opacity:1;stop-color:#687e67"
     offset="1"
     id="stop17603" />
</linearGradient>
<clipPath
   clipPathUnits="userSpaceOnUse"
   id="clipPath17615">
  <path
     d="m 239.032,373.393 -42.134,-24.315 c -1.575,-0.909 -2.545,-2.588 -2.545,-4.407 v -48.666 c 0,-1.818 0.97,-3.497 2.544,-4.408 l 42.133,-24.334 c 1.576,-0.909 3.516,-0.909 5.091,0 l 42.124,24.334 c 1.574,0.911 2.543,2.59 2.543,4.408 v 48.668 c 0,1.817 -0.969,3.496 -2.545,4.405 l -42.123,24.315 c -0.787,0.454 -1.666,0.682 -2.544,0.682 -0.879,0 -1.757,-0.228 -2.544,-0.682"
     id="path17613" />
</clipPath>
<linearGradient
   x1="0"
   y1="0"
   x2="1"
   y2="0"
   gradientUnits="userSpaceOnUse"
   gradientTransform="matrix(88.100621,0,0,88.100621,103.60101,129.72695)"
   spreadMethod="pad"
   id="linearGradient17639">
  <stop
     style="stop-opacity:1;stop-color:#9bb48f"
     offset="0"
     id="stop17629" />
  <stop
     style="stop-opacity:1;stop-color:#9bb48f"
     offset="0.0919165"
     id="stop17631" />
  <stop
     style="stop-opacity:1;stop-color:#9bb48f"
     offset="0.30262629"
     id="stop17633" />
  <stop
     style="stop-opacity:1;stop-color:#687e67"
     offset="0.862444"
     id="stop17635" />
  <stop
     style="stop-opacity:1;stop-color:#687e67"
     offset="1"
     id="stop17637" />
</linearGradient>
<clipPath
   clipPathUnits="userSpaceOnUse"
   id="clipPath17649">
  <path
     d="m 239.032,373.393 -42.134,-24.315 c -1.575,-0.909 -2.545,-2.588 -2.545,-4.407 v -48.666 c 0,-1.818 0.97,-3.497 2.544,-4.408 l 42.133,-24.334 c 1.576,-0.909 3.516,-0.909 5.091,0 l 42.124,24.334 c 1.574,0.911 2.543,2.59 2.543,4.408 v 48.668 c 0,1.817 -0.969,3.496 -2.545,4.405 l -42.123,24.315 c -0.787,0.454 -1.666,0.682 -2.544,0.682 -0.879,0 -1.757,-0.228 -2.544,-0.682"
     id="path17647" />
</clipPath>
<linearGradient
   x1="0"
   y1="0"
   x2="1"
   y2="0"
   gradientUnits="userSpaceOnUse"
   gradientTransform="matrix(88.100621,0,0,88.100621,103.60101,141.09453)"
   spreadMethod="pad"
   id="linearGradient17673">
  <stop
     style="stop-opacity:1;stop-color:#9bb48f"
     offset="0"
     id="stop17663" />
  <stop
     style="stop-opacity:1;stop-color:#9bb48f"
     offset="0.0919165"
     id="stop17665" />
  <stop
     style="stop-opacity:1;stop-color:#9bb48f"
     offset="0.30262629"
     id="stop17667" />
  <stop
     style="stop-opacity:1;stop-color:#687e67"
     offset="0.862444"
     id="stop17669" />
  <stop
     style="stop-opacity:1;stop-color:#687e67"
     offset="1"
     id="stop17671" />
</linearGradient>
<clipPath
   clipPathUnits="userSpaceOnUse"
   id="clipPath17683">
  <path
     d="m 239.032,373.393 -42.134,-24.315 c -1.575,-0.909 -2.545,-2.588 -2.545,-4.407 v -48.666 c 0,-1.818 0.97,-3.497 2.544,-4.408 l 42.133,-24.334 c 1.576,-0.909 3.516,-0.909 5.091,0 l 42.124,24.334 c 1.574,0.911 2.543,2.59 2.543,4.408 v 48.668 c 0,1.817 -0.969,3.496 -2.545,4.405 l -42.123,24.315 c -0.787,0.454 -1.666,0.682 -2.544,0.682 -0.879,0 -1.757,-0.228 -2.544,-0.682"
     id="path17681" />
</clipPath>
<linearGradient
   x1="0"
   y1="0"
   x2="1"
   y2="0"
   gradientUnits="userSpaceOnUse"
   gradientTransform="matrix(-54.33486,110.84312,-110.84312,-54.33486,204.53683,70.898136)"
   spreadMethod="pad"
   id="linearGradient17703">
  <stop
     style="stop-opacity:1;stop-color:#687e67"
     offset="0"
     id="stop17697" />
  <stop
     style="stop-opacity:1;stop-color:#687e67"
     offset="0.5288042"
     id="stop17699" />
  <stop
     style="stop-opacity:1;stop-color:#83a178"
     offset="1"
     id="stop17701" />
</linearGradient>

	












</defs>
  <sodipodi:namedview
     id="namedview8"
     pagecolor="#505050"
     bordercolor="#ffffff"
     borderopacity="1"
     inkscape:pageshadow="0"
     inkscape:pageopacity="0"
     inkscape:pagecheckerboard="1"
     showgrid="false"
     inkscape:zoom="1.9596959"
     inkscape:cx="227.84147"
     inkscape:cy="156.65696"
     inkscape:window-width="1895"
     inkscape:window-height="2063"
     inkscape:window-x="1925"
     inkscape:window-y="58"
     inkscape:window-maximized="1"
     inkscape:current-layer="svg6" />
  <path
     style="clip-rule:nonzero;fill:none;fill-rule:nonzero;stroke:#ffffff;stroke-width:1.78273;stroke-linecap:round;stroke-linejoin:round;stroke-miterlimit:4"
     d="M 2.4812732e-6,28.676263"
     id="path18384" />
  <circle
     cx="140.20818"
     cy="125.03572"
     r="24.993629"
     fill="#61dafb"
     id="circle18859"
     style="stroke-width:12.192" />
  <ellipse
     rx="134.11217"
     ry="51.206459"
     id="ellipse18861"
     cx="140.20818"
     cy="125.03572"
     style="fill:none;stroke:#61dafb;stroke-width:12.192" />
  <ellipse
     rx="134.11217"
     ry="51.206463"
     transform="rotate(60.000001)"
     id="ellipse18863"
     cx="178.3882"
     cy="-58.905979"
     style="fill:none;stroke:#61dafb;stroke-width:12.192" />
  <ellipse
     rx="134.11217"
     ry="51.206463"
     transform="rotate(120)"
     id="ellipse18865"
     cx="38.180027"
     cy="-183.9417"
     style="fill:none;stroke:#61dafb;stroke-width:12.192" />
</svg>
