<?xml version="1.0" encoding="UTF-8" standalone="no"?>
<svg
   viewBox="0 0 300 300"
   version="1.1"
   id="svg6"
   sodipodi:docname="css.svg"
   width="300"
   height="300"
   inkscape:version="1.2 (dc2aedaf03, 2022-05-15)"
   xml:space="preserve"
   xmlns:inkscape="http://www.inkscape.org/namespaces/inkscape"
   xmlns:sodipodi="http://sodipodi.sourceforge.net/DTD/sodipodi-0.dtd"
   xmlns="http://www.w3.org/2000/svg"
   xmlns:svg="http://www.w3.org/2000/svg"><defs
     id="defs10" /><sodipodi:namedview
     id="namedview8"
     pagecolor="#505050"
     bordercolor="#ffffff"
     borderopacity="1"
     inkscape:pageshadow="0"
     inkscape:pageopacity="0"
     inkscape:pagecheckerboard="1"
     showgrid="false"
     inkscape:zoom="0.69285715"
     inkscape:cx="405.56701"
     inkscape:cy="432.98969"
     inkscape:window-width="1323"
     inkscape:window-height="1027"
     inkscape:window-x="2517"
     inkscape:window-y="48"
     inkscape:window-maximized="0"
     inkscape:current-layer="svg6"
     inkscape:showpageshadow="0"
     inkscape:deskcolor="#505050" /><path
     fill="#264de4"
     d="M 41.810742,270.01113 17.7375,0 h 264.525 L 258.16348,269.96836 149.83828,300 Z"
     id="path325"
     style="stroke-width:0.585938" /><path
     id="path329"
     style="stroke-width:0.585938;fill:#d9d9d9;fill-opacity:1"
     d="M 66.960938 55.193359 L 69.972656 88.308594 L 149.88477 88.308594 L 150 88.308594 L 196.54883 88.308594 L 193.53516 122.2207 L 150 122.2207 L 149.88477 122.2207 L 72.925781 122.2207 L 75.894531 155.33594 L 149.88477 155.33594 L 150 155.33594 L 190.66406 155.33594 L 186.82031 198.28516 L 149.88477 208.25391 L 149.88477 208.25586 L 149.85547 208.26367 L 112.97266 198.30664 L 110.61523 171.89453 L 77.373047 171.89453 L 82.011719 223.89062 L 149.84766 242.72266 L 150 242.67969 L 150 242.67578 L 217.77539 223.89062 L 218.27344 218.29492 L 226.05469 131.11328 L 226.86328 122.2207 L 232.8418 55.193359 L 150 55.193359 L 149.88477 55.193359 L 66.960938 55.193359 z " /></svg>
