<?xml version="1.0" encoding="UTF-8" standalone="no"?>
<!-- Created with Inkscape (http://www.inkscape.org/) -->

<svg
   version="1.1"
   id="svg170"
   width="213"
   height="270"
   viewBox="0 0 213 270"
   sodipodi:docname="dstor.svg"
   xml:space="preserve"
   inkscape:version="1.2 (dc2aedaf03, 2022-05-15)"
   xmlns:inkscape="http://www.inkscape.org/namespaces/inkscape"
   xmlns:sodipodi="http://sodipodi.sourceforge.net/DTD/sodipodi-0.dtd"
   xmlns="http://www.w3.org/2000/svg"
   xmlns:svg="http://www.w3.org/2000/svg"><defs
     id="defs174" /><sodipodi:namedview
     id="namedview172"
     pagecolor="#ffffff"
     bordercolor="#666666"
     borderopacity="1.0"
     inkscape:showpageshadow="2"
     inkscape:pageopacity="0.0"
     inkscape:pagecheckerboard="0"
     inkscape:deskcolor="#d1d1d1"
     showgrid="false"
     inkscape:zoom="0.45254834"
     inkscape:cx="1031.934"
     inkscape:cy="-742.46212"
     inkscape:current-layer="g176" /><g
     inkscape:groupmode="layer"
     inkscape:label="Image"
     id="g176"><g
       id="g9685"><g
         id="g9560"
         transform="translate(213.36847,-0.00448627)"><rect
           style="fill:#761e20;fill-opacity:1;stroke:none;stroke-width:3.98;stroke-linecap:round;stroke-linejoin:round;stroke-dasharray:none;stroke-opacity:1;paint-order:stroke fill markers"
           id="rect1567"
           width="213"
           height="270"
           x="-213.36847"
           y="0.0044862744" /><g
           id="g6994"><path
             d="m -176.11351,252.21135 c 0,4.216 -3.332,7.548 -7.956,7.548 -7.208,0 -11.9,-5.644 -14.076,-11.968 h -1.496 l 1.972,14.62 h 1.496 c 0.204,-1.7 0.952,-2.244 2.04,-2.244 2.176,0 5.916,2.244 10.608,2.244 9.248,0 14.28,-6.392 14.28,-12.444 0,-8.16 -6.188,-11.084 -15.436,-16.592 -2.924,-1.768 -7.208,-4.624 -7.208,-8.568 0,-4.284 3.128,-6.46 7.208,-6.46 6.256,0 10.744,5.304 12.308,11.696 h 1.632 l -1.428,-14.552 h -1.496 c -0.544,1.7 -1.224,2.244 -2.244,2.244 -1.972,0 -5.032,-2.244 -9.86,-2.244 -6.528,0 -11.968,4.692 -11.968,11.424 0,13.94 21.624,13.396 21.624,25.296 z"
             style="font-size:68px;line-height:0;font-family:Kinnari;-inkscape-font-specification:Kinnari;letter-spacing:5.25px;fill:#fefdfd"
             id="path3657" /><path
             d="m -142.30352,219.29935 v 36.72 c 0,1.972 -0.544,3.876 -5.916,4.148 v 1.292 h 18.904 v -1.292 c -5.032,-0.272 -5.984,-2.176 -5.984,-4.148 v -36.72 h 3.672 c 7.752,0 9.248,1.224 10.88,8.704 h 1.564 l -0.408,-11.56 h -38.352 l -0.34,11.56 h 1.564 c 1.564,-7.412 3.196,-8.704 10.88,-8.704 z"
             style="font-size:68px;line-height:0;font-family:Kinnari;-inkscape-font-specification:Kinnari;letter-spacing:5.25px;fill:#fefdfd"
             id="path3659" /><path
             d="m -66.061477,239.01935 c 0,-11.356 -6.936001,-23.528 -22.168001,-23.528 -13.872002,0 -22.236002,10.268 -22.236002,23.528 0,14.28 10.2,23.392 22.236002,23.392 13.6,0 22.168,-10.336 22.168001,-23.392 z m -7.684,0 c 0,13.124 -6.052,20.944 -15.368,20.944 -7.616,0 -13.668003,-7.48 -13.668003,-20.944 0,-17.952 8.908003,-21.012 14.824003,-21.012 10.336,0 14.212,10.404 14.212,21.012 z"
             style="font-size:68px;line-height:0;font-family:Kinnari;-inkscape-font-specification:Kinnari;letter-spacing:5.25px;fill:#fefdfd"
             id="path3661" /><path
             d="m -14.095432,261.45935 v -1.36 c -3.06,-0.204 -4.624,-1.564 -6.392,-3.74 l -13.464001,-16.592 c 6.392,-0.884 12.308,-4.216 12.308,-11.424 0,-7.956 -6.8,-11.9 -18.088,-11.9 h -17.952 v 1.36 c 4.828001,0 5.780001,2.176 5.780001,4.08 v 34.136 c 0,1.972 -0.952,4.08 -5.780001,4.08 v 1.36 h 18.700001 v -1.36 c -4.964,0 -5.916,-2.108 -5.916,-4.08 v -15.368 l 3.74,-0.068 16.184,20.876 z m -14.960001,-32.98 c 0,7.276 -6.052,9.384 -15.844,9.656 v -15.844 c 0,-3.264 0.476,-3.264 4.964,-3.264 6.052,0 10.88,2.72 10.88,9.452 z"
             style="font-size:68px;line-height:0;font-family:Kinnari;-inkscape-font-specification:Kinnari;letter-spacing:5.25px;fill:#fefdfd"
             id="path3663" /></g><rect
           style="fill:none;fill-opacity:1;stroke:#ffffff;stroke-width:3.98;stroke-linecap:butt;stroke-linejoin:miter;stroke-dasharray:none;stroke-opacity:1;paint-order:stroke fill markers"
           id="rect1565"
           width="197.5537"
           height="198.35094"
           x="-205.64532"
           y="8.0959187" /><path
           id="path558"
           style="font-size:254.741px;line-height:1.25;font-family:Kinnari;-inkscape-font-specification:Kinnari;fill:#ffffff;fill-opacity:1;stroke-width:3.98033"
           d="m -191.95246,22.952055 v 1.13086 c 9.97994,1.28996 22.28034,8.328461 22.41797,19.24805 V 171.21181 c 0,7.38748 -3.56716,15.28516 -22.41797,15.28516 v 0.7539 h 62.04492 c 33.694823,0 58.793377,-7.95168 75.421877,-22.04101 16.62851,-14.08933 24.99414,-34.36428 24.99414,-59.7793 0,-28.071915 -9.59247,-48.551755 -27.09766,-62.246075 -14.53784,-11.37297 -34.71221,-18.04281 -59.570307,-19.98243 -3.28933,-0.15539 -6.63461,-0.25 -10.06836,-0.25 z m 57.20508,5.33985 c 50.010516,1.193229 84.586842,33.946957 85.195307,79.998035 0,45.08911 -27.51136,73.11132 -75.912107,73.11132 -5.57707,0 -12.70679,-0.12725 -17.64063,-2.14258 -4.3412,-1.845 -8.15234,-6.066 -8.15234,-13.19921 V 43.274325 c 0,-3.18826 0.14851,-5.67877 0.63867,-7.75391 0.49015,-2.07513 1.40839,-3.81495 2.88672,-4.98437 2.95666,-2.33884 6.96975,-2.24414 12.98438,-2.24414 z m 0,3.98047 c -5.95818,0 -9.20538,0.34829 -10.51563,1.38476 -0.65513,0.51823 -1.12079,1.24632 -1.48242,2.77735 -0.36164,1.53102 -0.53321,3.78695 -0.53321,6.83984 V 166.05947 c 0,5.73144 2.33179,8.02484 5.52344,9.43554 -1.10308,-1.77819 -1.79492,-4.07008 -1.79492,-7.08593 V 45.623935 c 0,-12.4823 2.54672,-12.99024 14.51953,-12.99024 1.49958,0 2.98403,0.02657 4.45313,0.07813 -3.30235,-0.28112 -6.68699,-0.43945 -10.16992,-0.43945 z m 85.740227,12.22851 c 15.20114,14.35875 23.4961,34.76014 23.4961,60.929675 0,26.29729 -8.82999,47.92706 -26.40039,62.81445 -17.5704,14.88741 -43.675214,22.98438 -77.996097,22.98438 h -62.04492 v 0.36133 h 67.76172 c 68.015777,0 102.406247,-32.09623 102.406247,-83.8086 0,-28.182765 -9.64717,-49.206575 -27.22266,-63.281235 z"
           sodipodi:nodetypes="cccsccsssscscccccsssscssssscssscscsssccssc" /></g><path
         style="fill:#e3d5a8;fill-opacity:1;stroke:none;stroke-width:1px;stroke-linecap:butt;stroke-linejoin:miter;stroke-opacity:1"
         d="m 151.2719,33.638687 c 5.69393,-13.86788 11.30883,-15.908641 23.13362,-15.908641 10.37533,0 17.74255,7.763504 17.74255,17.624455 0,7.553961 -5.86649,9.489048 -11.35374,9.489048 -11.28738,0 -13.94805,-17.506445 -4.61245,-17.506445 2.14202,0 5.56922,1.369132 5.56922,3.986312 0,2.018798 -1.00868,4.06283 -2.77481,5.304802 1.19436,0.320027 6.63466,-0.152682 6.63466,-6.298659 -0.24306,-6.415972 -6.17821,-7.723964 -8.99069,-7.723964 -4.09335,0 -6.26705,1.3087 -9.14824,5.163515 -1.51344,-1.228795 -3.6621,-1.583642 -5.21198,-0.962207 1.34802,0.920427 3.84509,2.795701 4.0207,7.901535 0,10.766644 16.40772,17.140258 18.86551,17.140258 -1.192,0 -1.30434,1.680762 -1.30434,2.003904 0,2.47165 4.57384,4.034467 4.57384,7.950347 0,3.157016 -0.69179,4.620758 -1.64617,6.942421 2.5023,-1.256119 5.24823,-3.134859 6.08474,-7.346208 4.38596,4.385963 3.57036,10.166717 0.61664,12.740586 1.17721,0.178811 2.11196,-0.113877 2.85611,-0.777209 0,3.930356 -1.97457,5.274301 -4.81777,6.234733 4.12574,-0.0116 9.31922,-2.231064 9.31922,-8.225201 0,-3.756276 -0.85443,-7.77769 -3.93392,-11.487977 1.96012,-0.935898 2.15725,-2.598056 2.3184,-4.717508 -3.94763,2.76957 -9.72287,0.997998 -9.72287,-1.574123 0,-1.46591 1.51651,-4.184263 3.18936,-5.857103 2.13391,-2.13392 4.90664,-6.254136 4.90664,-13.049054 0,-5.079105 -2.45024,-9.720205 -5.88858,-13.719092 3.49965,-1.860283 5.03556,-3.576761 5.78453,-6.371947 -3.24595,1.874049 -8.04191,2.333834 -10.71927,1.696263 -3.02991,-0.811861 -7.50786,-2.918792 -14.45406,-2.918792 -19.36608,0 -28.31077,12.644442 -29.23649,16.099288 2.56841,0.688203 6.0988,2.656866 8.19964,4.166663 z"
         id="path4498"
         sodipodi:nodetypes="cccccccccccccccccccccccccscccccc" /><path
         style="fill:#e3d5a8;fill-opacity:1;stroke:none;stroke-width:0.5;stroke-linecap:butt;stroke-linejoin:miter;stroke-dasharray:none;stroke-opacity:1"
         d="m 195.65095,196.45964 c -3.59211,0.83077 -6.13801,-2.75032 -6.13801,-6.07709 0,-9.32237 2.00874,-24.28102 -10.0901,-24.62561 -6.64569,0 -12.08212,4.14304 -12.08212,11.90139 0,5.88726 5.80853,11.21009 12.91879,11.47517 l 1.43395,-5.48901 c -3.74897,-0.0397 -10.11761,-0.38328 -10.11761,-6.00557 0,-2.99457 1.53799,-6.86394 6.92735,-6.86394 3.82274,0 3.40446,4.39631 -0.66009,6.49629 3.10822,1.79453 5.44664,1.27257 7.46188,-2.2532 1.68134,6.27483 -3.23427,13.73586 -3.23427,20.45278 0,4.21569 5.69342,8.95183 9.62111,5.75138 -1.25369,-0.33592 -2.42776,-1.19235 -2.65513,-2.53209 5.89328,1.83392 6.61425,-1.11613 6.61425,-2.2305 z"
         id="path6996"
         sodipodi:nodetypes="cccccccccccccc" /><path
         style="fill:#e3d5a8;fill-opacity:1;stroke:none;stroke-width:1px;stroke-linecap:butt;stroke-linejoin:miter;stroke-opacity:1"
         d="m 189.12129,142.17248 c 13.84491,14.95101 9.45109,27.38754 3.4293,33.40933 l -1.61356,-7.08932 c 5.37515,-8.6356 -2.04294,-18.12204 -4.49219,-20.2954 1.02332,-1.44665 2.23833,-4.11294 2.67645,-6.02461 z"
         id="path9415"
         sodipodi:nodetypes="ccccc" /><path
         style="fill:#e3d5a8;fill-opacity:1;stroke:none;stroke-width:1px;stroke-linecap:butt;stroke-linejoin:miter;stroke-opacity:1"
         d="m 146.95551,191.11328 -3.44446,3.53882 c 4.25741,1.10626 7.55279,1.99598 12.86659,1.99598 9.07827,0 8.21835,-11.54068 6.6635,-13.34826 -0.77758,2.54143 -1.98463,6.24147 -4.18281,6.24147 0.93586,-1.70812 0.53138,-3.14177 -0.56271,-3.77345 -1.29265,4.82424 -6.74896,5.65147 -11.34011,5.34544 z"
         id="path9419"
         sodipodi:nodetypes="ccccccc" /><path
         style="fill:#e3d5a8;fill-opacity:1;stroke:none;stroke-width:1px;stroke-linecap:butt;stroke-linejoin:miter;stroke-opacity:1"
         d="m 153.22446,181.58869 c -8.95076,12.67167 -13.81577,15.51756 -25.52037,19.99655 2.27138,-2.09362 3.60669,-3.93067 3.60669,-5.76462 -9.50752,2.14783 -13.05342,0.2835 -16.08414,-3.30644 10.57337,-1.46401 14.45224,-2.85001 23.51114,-5.05098 -1.66635,1.67429 -3.36098,3.03593 -8.68805,4.95509 5.25112,-0.73524 10.15176,-2.28306 15.72665,-7.19568 z"
         id="path9421"
         sodipodi:nodetypes="cccccccc" /><path
         style="fill:#e3d5a8;fill-opacity:1;stroke:none;stroke-width:1px;stroke-linecap:butt;stroke-linejoin:miter;stroke-opacity:1"
         d="m 193.38938,100.4055 c 2.41096,0 3.99131,1.87005 3.99131,4.39837 0,4.57529 -2.15536,5.62392 -4.0951,6.41565 1.24731,0.32665 2.24481,0.47188 3.22247,-0.649 1.18728,2.39418 -0.43796,5.37995 -3.29496,5.37995 1.93607,1.53246 7.80598,0.10378 7.80598,-9.00747 0,-1.57628 -0.15771,-8.146163 -7.8447,-10.920838 0.2035,1.408381 0.2933,3.355222 0.215,4.383338 z"
         id="path9423"
         sodipodi:nodetypes="cccccccc" /><path
         style="fill:#e3d5a8;fill-opacity:1;stroke:none;stroke-width:1px;stroke-linecap:butt;stroke-linejoin:miter;stroke-opacity:1"
         d="m 41.110802,174.70411 c -10.37533,0 -17.687532,-5.7844 -17.687532,-15.64535 0,-10.03576 7.585942,-14.16814 18.017395,-14.16814 0,-1.38027 0.0145,-3.60123 0.0145,-5.33091 -2.539242,-1.19025 -4.82623,-1.27965 -7.587752,-1.00371 1.85958,-1.7616 2.77956,-2.98241 2.77956,-5.8994 -0.21699,-3.59355 -3.37865,-5.93989 -3.37865,-11.00911 0,-3.15701 0.23087,-4.64332 1.18525,-6.96499 -2.5023,1.25612 -5.24823,3.13486 -6.08474,7.34621 -2.4223,-2.81013 -2.71325,-6.16427 -0.95201,-10.0422 -1.17721,-0.17881 -2.11196,0.11387 -2.85611,0.77721 0.84986,-3.36937 2.29948,-4.23342 4.89745,-5.8293 -4.12574,0.0116 -9.83407,2.55927 -9.83407,7.57742 0,2.96963 0.92996,6.81817 3.65579,10.14054 -3.3906,0.71281 -5.03695,2.32154 -6.43268,4.059 5.62251,-1.05178 12.29895,2.80774 12.29895,5.37987 0,1.46591 1.02038,7.01481 -2.81196,8.57809 -4.34439,1.75482 -8.19216,7.47814 -8.19216,16.495 0,2.95483 0.74749,10.41643 4.18583,14.41531 -3.49965,1.86029 -5.03556,3.57676 -5.78453,6.37195 3.24595,-1.87405 8.04191,-2.33383 10.71927,-1.69626 3.02991,0.81186 6.469459,2.19237 9.663961,2.19237 1.901417,0 4.184241,-3.8996 4.184241,-5.7436 z"
         id="path9574"
         sodipodi:nodetypes="ccccccccccccccccccccccc" /><path
         style="fill:#e3d5a8;fill-opacity:1;stroke:none;stroke-width:1px;stroke-linecap:butt;stroke-linejoin:miter;stroke-opacity:1"
         d="m 34.409125,43.925539 c -1.996687,2.116411 -3.549324,12.709094 5.759376,12.709094 0,1.991794 0.08889,3.329632 0.08889,4.74556 -7.43765,-1.184293 -15.679005,-7.858181 -20.264475,4.180679 -1.385,-3.65322 -0.24501,-7.06911 7.90823,-9.82578 -15.89701,-12.30506 -11.178783,-23.607794 -6.768941,-28.309621 2.042437,0.494987 3.910176,1.058994 5.711355,1.649296 -10.370537,9.890143 -0.432984,19.690814 4.214676,23.732944 -0.63876,-3.34166 -0.773729,-6.796451 3.350885,-8.882172 z"
         id="path9580"
         sodipodi:nodetypes="cccccccccc" /><path
         style="fill:#e3d5a8;fill-opacity:1;stroke:none;stroke-width:1px;stroke-linecap:butt;stroke-linejoin:miter;stroke-opacity:1"
         d="M 41.946167,93.167725 C 40.844166,90.857014 40.28334,88.255369 40.28334,81.770122 c 0,-4.06649 -0.0281,-16.26369 -0.0281,-16.26369 l -4.57805,-1.82286 -0.44246,23.82769 c 0,5.77752 -5.39659,9.026464 -9.57761,9.026464 -1.07836,0 -6.20789,0.143712 -6.39502,-6.766304 0,-2.0966 0.92531,-3.7906 2.58448,-5.9306 -1.58696,-0.33159 -3.22967,0.16392 -4.20733,1.2848 -0.16458,-2.65195 2.24165,-5.70101 6.14801,-7.05362 -3.56061,0.34149 -10.12643,-0.5717 -10.12643,11.3011 0,4.85515 3.86646,11.182008 11.88059,11.182008 5.89962,0 10.31908,-2.707267 12.51581,-6.893108 0.672927,1.650412 3.01612,4.000944 3.855006,7.131708 0,-2.241665 0.03393,-4.926748 0.03393,-7.625985 z"
         id="path9588"
         sodipodi:nodetypes="csccccccccccccc" /><path
         style="fill:#e3d5a8;fill-opacity:1;stroke:none;stroke-width:1px;stroke-linecap:butt;stroke-linejoin:miter;stroke-opacity:1"
         d="m 74.10126,167.09232 -0.8482,-3.11433 c 31.39318,5.10674 34.37845,-6.44826 33.61929,-20.19944 2.40217,1.21428 4.38286,3.54418 5.29816,8.69409 0.90506,0.37195 1.53292,-0.62375 2.12906,-1.77595 1.40703,2.9051 -3.435,9.01132 -6.71571,14.31776 12.95656,-4.97562 19.54819,-12.17657 26.11762,-19.38528 l 3.32327,2.28225 -1.83289,4.3565 c 3.39637,-1.96089 11.46474,-1.42354 12.94078,1.13303 -0.90109,1.41598 -2.68521,3.36183 -4.19507,4.51384 -1.2148,-2.10411 -5.93095,-2.43626 -9.96331,-1.3558 -10.55596,3.58839 -18.43425,8.8064 -27.6482,13.21154 0.0151,2.55542 2.76245,4.90906 6.26917,4.87074 -1.25312,0.75734 -4.28376,1.91987 -7.97383,2.73491 -0.22211,-3.11933 -0.32731,-3.82605 -3.54454,-4.6881 z"
         id="path9612"
         sodipodi:nodetypes="ccccccccccccccccc" /><path
         style="fill:#e3d5a8;fill-opacity:1;stroke:none;stroke-width:1px;stroke-linecap:butt;stroke-linejoin:miter;stroke-opacity:1"
         d="m 137.46694,53.266974 c 0,7.28433 3.86181,10.505424 6.04635,10.505424 -1.11881,-2.640289 -1.54543,-4.052607 -0.8668,-6.004258 -1.19192,-1.215613 -2.98098,-3.092874 -5.17955,-4.501166 z"
         id="path9614"
         sodipodi:nodetypes="cccc" /><path
         style="fill:#e3d5a8;fill-opacity:1;stroke:none;stroke-width:1px;stroke-linecap:butt;stroke-linejoin:miter;stroke-opacity:1"
         d="m 136.23733,69.845488 -5.34364,9.40064 c -5.41063,-1.74163 -8.85136,1.0046 -10.31134,2.75111 -0.46176,-3.53894 1.86109,-6.47987 7.24034,-8.37146 -17.47838,-6.10912 -26.93217,-2.03407 -35.14845,3.61154 l -3.07371,-3.50698 c 8.11392,-4.61342 16.01073,-11.80281 38.13406,-5.11577 -16.59317,-14.18375 -17.42425,-22.5266 -17.22715,-31.33579 l 4.35583,1.889692 c 0.24676,6.88866 2.70729,11.656238 8.79655,17.745498 -0.0545,-3.75642 1.54921,-7.58566 5.3066,-9.38772 -1.29009,5.6824 -1.21473,15.98841 7.27091,22.31924 z"
         id="path9616"
         sodipodi:nodetypes="cccccccccccc" /><path
         style="fill:#e3d5a8;fill-opacity:1;stroke:none;stroke-width:1px;stroke-linecap:butt;stroke-linejoin:miter;stroke-opacity:1"
         d="m 118.09174,62.299748 -3.37791,-4.84812 c -7.20609,0.74642 -22.496238,2.538038 -22.496238,-10.158082 0,-3.846067 1.47948,-7.176351 5.561011,-7.176351 2.01518,0 5.110927,0.70135 5.358447,4.8182 0,1.48141 -0.5854,3.36915 -2.91847,5.02715 3.10793,0 6.39366,-2.2906 6.39366,-6.08916 0,-4.70796 -4.91145,-8.22525 -9.017227,-8.22525 -5.58664,0 -9.81518,4.90059 -9.81518,12.01991 0,5.36094 3.769435,9.175615 8.453837,12.261463 -3.59004,1.66607 -14.27235,3.2514 -14.27235,-2.26166 0,-2.48855 1.04714,-3.49876 1.95776,-4.41166 -2.25321,-0.39314 -5.37104,1.05991 -5.37104,5.7422 0,2.47455 2.47972,4.45606 4.05829,5.36214 -4.31518,0.31827 -6.59308,1.56482 -7.89953,2.83853 l -0.018,5.05628 c 2.03568,-1.69851 6.35825,-3.10791 9.63667,-3.69743 -2.09667,2.27104 -2.6088,5.07721 -2.6088,7.52131 0,5.14836 6.06295,7.63993 10.06826,7.63993 2.71515,-0.0423 6.40113,-1.75382 6.40113,-4.71921 -2.08948,1.60757 -10.77705,2.17889 -10.77705,-3.89374 0,-10.13944 20.13327,-12.55014 30.68277,-12.80645 z"
         id="path9618"
         sodipodi:nodetypes="cccccccsccccccccccccccc" /><path
         style="fill:#e3d5a8;fill-opacity:1;stroke:none;stroke-width:1px;stroke-linecap:butt;stroke-linejoin:miter;stroke-opacity:1"
         d="m 146.71268,131.62276 -3.28975,-2.79398 -3.99549,6.79591 3.1308,2.69147 z"
         id="path9620" /><path
         style="fill:#e3d5a8;fill-opacity:1;stroke:none;stroke-width:1px;stroke-linecap:butt;stroke-linejoin:miter;stroke-opacity:1"
         d="m 151.07164,121.56344 -4.19043,-1.75945 0.2438,-4.22963 4.42205,2.00777 z"
         id="path9622" /><path
         style="fill:#e3d5a8;fill-opacity:1;stroke:none;stroke-width:1px;stroke-linecap:butt;stroke-linejoin:miter;stroke-opacity:1"
         d="m 152.64528,105.53672 -5.28202,-0.43896 c 0.38972,-6.265417 -1.76499,-11.760707 -4.55538,-17.063612 l 4.40259,-1.65904 c 3.61611,5.88806 5.03164,12.384825 5.43481,19.161612 z"
         id="path9624"
         sodipodi:nodetypes="ccccc" /><path
         style="fill:#e3d5a8;fill-opacity:1;stroke:none;stroke-width:1px;stroke-linecap:butt;stroke-linejoin:miter;stroke-opacity:1"
         d="m 85.32449,85.395378 -3.39813,-3.4984 c -4.15831,5.748558 -6.9703,13.643972 -6.9703,24.905142 0,10.13094 4.88655,17.72972 12.03119,24.2764 -2.69919,1.64438 -3.89654,2.71694 -4.24999,5.11661 5.82841,1.88803 9.21086,8.63084 9.21086,11.59865 0,3.57565 -1.73389,6.65164 -5.7145,6.65164 -1.23377,0 -4.99734,0.0458 -4.99734,-3.87296 0,-2.67372 1.18138,-4.66971 3.05214,-4.86481 -2.64779,-1.18638 -7.18426,-1.30191 -7.18426,6.0021 0,4.82184 3.99617,7.39859 9.49878,7.39859 6.86308,0 10.00568,-8.01891 10.00568,-11.01819 0,-6.58141 -2.65158,-11.98544 -5.82345,-17.24382 5.03514,3.36709 11.46497,4.04524 15.91528,4.04524 8.62889,0 32.34257,-22.10595 40.41066,-22.10595 4.97909,0 10.35495,7.55728 10.35495,15.1685 0,6.57226 -4.2206,13.74832 -11.22827,14.01135 -5.37733,0 -10.76302,-4.33745 -10.76302,-8.44078 0,-4.18658 1.7921,-7.42996 6.43324,-8.01352 3.49405,0 6.775,2.95284 9.33229,6.84305 -0.19079,-5.93222 -3.23396,-10.88019 -9.5951,-10.88019 -7.08844,0 -11.34443,4.29652 -11.12556,11.3988 -1.38905,-1.12193 -3.15038,-1.82642 -4.74147,-1.82642 -3.30691,0 -2.48748,3.47736 -5.76207,5.68141 -2.01112,1.16112 -3.63593,1.57559 -5.30437,0.6285 1.01815,2.47842 2.11742,3.6622 6.04919,3.92969 3.21876,0 6.06444,-3.58284 10.22224,-4.5562 3.80297,5.99063 9.37755,10.15443 15.74346,10.15443 4.64224,0 7.54108,-2.74535 8.18659,-3.8634 2.66411,-5.01424 5.49409,-15.30039 6.37137,-21.66835 0,-11.87997 -8.35925,-13.93554 -15.36192,-13.93554 -2.42146,0 -7.63542,0.95546 -11.20368,4.52596 -0.0894,-5.17719 -0.0972,-8.29821 -0.0972,-13.228137 0,-12.019275 7.9501,-23.292085 15.18156,-23.292085 2.6061,0 4.94705,2.327574 0.27093,2.30194 -4.5906,0 -8.09358,4.53263 -9.68217,9.25883 3.45489,-1.8265 6.55596,-3.86915 10.70195,-3.86915 2.32162,0 6.15842,1.636768 7.97334,3.567968 -1.46567,-6.136963 -5.32793,-14.959634 -7.46534,-18.223358 -10.70846,0 -15.31727,4.04983 -17.09737,7.13306 -3.58117,6.202764 -4.59047,12.98463 -3.57531,19.971535 -3.22703,-3.436415 -8.96915,-5.862615 -13.40076,-5.862615 -6.70739,0 -13.81895,6.690445 -19.77847,17.389982 0,-6.05989 4.69919,-12.692607 11.23377,-17.666172 -6.94149,-0.13786 -10.60165,2.06512 -14.2867,0.3083 0,0 0.3978,2.77944 3.50603,6.271875 -3.41887,0.90098 -7.77343,5.095217 -8.76724,8.782627 0,0 1.86978,-1.62164 4.43643,-1.8962 -0.16938,2.16103 -1.21002,14.89882 -1.21002,14.89882 l 5.40539,-6.56091 c 0,0 1.17375,3.75785 0.43494,7.29024 2.8851,-2.70075 5.87317,-8.53565 6.78828,-13.77954 1.46343,3.242 2.80518,6.39144 5.86228,8.69824 -0.2637,-2.00241 -0.32864,-3.92791 0.38982,-5.55022 1.10202,1.46794 3.32126,2.11358 5.18261,1.81153 -2.0948,-1.30835 -4.26946,-3.97331 -4.26946,-6.86241 0,-4.761457 1.7932,-8.360297 6.07391,-8.360297 5.65787,0 11.6679,5.831277 11.6679,10.837337 0,8.22793 -3.91755,16.27554 -8.24419,16.27554 -2.49717,0 -2.88946,-6.72776 -9.09906,-4.035 2.15263,1.31756 5.16005,4.13409 3.02345,7.47215 -3.03021,2.81579 -6.32925,4.80668 -11.54624,4.80668 -9.38257,0 -24.692881,-7.64633 -24.692881,-21.58739 0,-13.987346 2.697042,-17.674765 5.685371,-22.850702 z"
         id="path9626"
         sodipodi:nodetypes="ccccccccccccccccccccccccccccccccccccccccccccccccccccccccccscccccc" /><path
         style="fill:#e3d5a8;fill-opacity:1;stroke:none;stroke-width:1px;stroke-linecap:butt;stroke-linejoin:miter;stroke-opacity:1"
         d="m 113.13887,23.440634 c 5.63307,-4.618432 10.57247,-3.674286 11.95751,-1.98495 -2.75112,0.808812 -4.11377,1.374342 -5.19275,3.136528 -1.69575,-0.151002 -4.28177,-0.344282 -6.76476,-1.151578 z"
         id="path9638"
         sodipodi:nodetypes="cccc" /><path
         style="fill:#e3d5a8;fill-opacity:1;stroke:none;stroke-width:1px;stroke-linecap:butt;stroke-linejoin:miter;stroke-opacity:1"
         d="m 192.77953,134.81393 c 6.41963,-3.44236 7.43337,-8.36795 6.40102,-10.29316 -1.79815,2.23372 -2.84121,3.27711 -4.88188,3.60135 -0.50804,1.62489 -1.317,4.08871 -1.51914,6.69181 z"
         id="path9640"
         sodipodi:nodetypes="cccc" /><path
         style="fill:#e3d5a8;fill-opacity:1;stroke:none;stroke-width:1px;stroke-linecap:butt;stroke-linejoin:miter;stroke-opacity:1"
         d="m 71.683971,194.28865 c -3.249419,5.62816 -9.405505,6.06745 -11.150363,4.75305 2.482245,-1.43572 3.672768,-2.60191 4.305008,-4.56908 1.960187,0 4.351981,-0.18397 6.845355,-0.18397 z"
         id="path9654"
         sodipodi:nodetypes="cccc" /></g></g></svg>
