<?xml version="1.0" encoding="UTF-8" standalone="no"?>
<svg
   viewBox="0 0 300 300"
   version="1.1"
   id="svg6"
   sodipodi:docname="ex.svg"
   width="300"
   height="300"
   inkscape:version="1.2 (dc2aedaf03, 2022-05-15)"
   xmlns:inkscape="http://www.inkscape.org/namespaces/inkscape"
   xmlns:sodipodi="http://sodipodi.sourceforge.net/DTD/sodipodi-0.dtd"
   xmlns="http://www.w3.org/2000/svg"
   xmlns:svg="http://www.w3.org/2000/svg">
  <defs
     id="defs10" />
  <sodipodi:namedview
     id="namedview8"
     pagecolor="#505050"
     bordercolor="#ffffff"
     borderopacity="1"
     inkscape:pageshadow="0"
     inkscape:pageopacity="0"
     inkscape:pagecheckerboard="1"
     showgrid="false"
     inkscape:zoom="1.3857143"
     inkscape:cx="-75.773195"
     inkscape:cy="173.19587"
     inkscape:window-width="1853"
     inkscape:window-height="1027"
     inkscape:window-x="1169"
     inkscape:window-y="654"
     inkscape:window-maximized="0"
     inkscape:current-layer="svg6"
     inkscape:showpageshadow="0"
     inkscape:deskcolor="#505050" />
  <g
     id="g4826"
     transform="matrix(0.94739179,0,0,0.94403154,-70.268591,-15.155139)" />
  <g
     aria-label="ex"
     id="text500"
     style="font-size:311.878px;line-height:1.25;fill:#d9d9d9;stroke-width:7.79696;fill-opacity:1">
    <path
       d="m 76.44674,235.88827 q -23.908615,0 -41.116727,-9.89847 Q 18.121901,215.93905 8.9848505,196.90352 8.4131956e-5,177.868 8.4131956e-5,151.37056 q 0,-26.19288 8.832482168044,-45.83754 Q 17.665048,85.736077 33.959455,74.923901 50.253862,64.111724 72.030499,64.111724 q 19.34009,0 33.502521,9.289335 14.31471,9.13705 21.92892,26.345162 7.61421,17.055829 7.61421,40.203019 v 12.18274 H 15.837638 q 0.304569,34.11165 15.837555,52.08119 15.68527,17.96953 44.771547,17.96953 14.619281,0 25.27917,-1.9797 10.81218,-2.13197 26.80202,-8.52791 v 13.70558 q -13.70558,5.93908 -25.58374,8.22334 -11.725885,2.28426 -26.49745,2.28426 z M 72.030499,77.512732 q -24.0609,0 -38.527896,15.837554 Q 19.18789,109.18784 16.751343,138.73097 H 119.08631 q 0,-19.03552 -5.63452,-32.7411 Q 107.81728,92.132012 97.157388,84.822372 86.64978,77.512732 72.030499,77.512732 Z"
       style="font-weight:300;font-family:'Open Sans';-inkscape-font-specification:'Open Sans Light';fill:#d9d9d9;fill-opacity:1"
       id="path289" />
    <path
       d="m 221.42128,147.71574 -57.7157,-80.406048 h 17.36039 l 49.34008,69.746148 48.88322,-69.746148 h 16.59897 l -56.80199,80.406048 60.91367,85.12685 h -17.51268 l -52.08119,-73.85782 -52.38576,73.85782 h -16.59897 z"
       style="font-weight:300;font-family:'Open Sans';-inkscape-font-specification:'Open Sans Light';fill:#d9d9d9;fill-opacity:1"
       id="path291" />
  </g>
</svg>
