<?xml version="1.0" encoding="UTF-8" standalone="no"?>
<svg
   viewBox="0 0 512 512"
   version="1.1"
   id="svg4"
   sodipodi:docname="hashnode.svg"
   inkscape:version="1.2.2 (b0a8486541, 2022-12-01)"
   xmlns:inkscape="http://www.inkscape.org/namespaces/inkscape"
   xmlns:sodipodi="http://sodipodi.sourceforge.net/DTD/sodipodi-0.dtd"
   xmlns="http://www.w3.org/2000/svg"
   xmlns:svg="http://www.w3.org/2000/svg">
  <defs
     id="defs8" />
  <sodipodi:namedview
     id="namedview6"
     pagecolor="#ffffff"
     bordercolor="#000000"
     borderopacity="0.25"
     inkscape:showpageshadow="2"
     inkscape:pageopacity="0.0"
     inkscape:pagecheckerboard="0"
     inkscape:deskcolor="#d1d1d1"
     showgrid="false"
     inkscape:zoom="2.0058594"
     inkscape:cx="191.93768"
     inkscape:cy="255.75073"
     inkscape:window-width="3840"
     inkscape:window-height="2087"
     inkscape:window-x="0"
     inkscape:window-y="44"
     inkscape:window-maximized="1"
     inkscape:current-layer="svg4" />
  <!--! Font Awesome Pro 6.1.1 by @fontawesome - https://fontawesome.com License - https://fontawesome.com/license (Commercial License) Copyright 2022 Fonticons, Inc. -->
  <path
     d="M35.19 171.1C-11.72 217.1-11.72 294 35.19 340.9L171.1 476.8C217.1 523.7 294 523.7 340.9 476.8L476.8 340.9C523.7 294 523.7 217.1 476.8 171.1L340.9 35.19C294-11.72 217.1-11.72 171.1 35.19L35.19 171.1zM315.5 315.5C282.6 348.3 229.4 348.3 196.6 315.5C163.7 282.6 163.7 229.4 196.6 196.6C229.4 163.7 282.6 163.7 315.5 196.6C348.3 229.4 348.3 282.6 315.5 315.5z"
     id="path2"
     style="fill:#d0ccc6;fill-opacity:1" />
</svg>
