<?xml version="1.0" encoding="UTF-8" standalone="no"?>
<svg
   viewBox="0 0 300 300"
   version="1.1"
   id="svg6"
   sodipodi:docname="html.svg"
   width="300"
   height="300"
   inkscape:version="1.2 (dc2aedaf03, 2022-05-15)"
   xml:space="preserve"
   xmlns:inkscape="http://www.inkscape.org/namespaces/inkscape"
   xmlns:sodipodi="http://sodipodi.sourceforge.net/DTD/sodipodi-0.dtd"
   xmlns="http://www.w3.org/2000/svg"
   xmlns:svg="http://www.w3.org/2000/svg"><defs
     id="defs10" /><sodipodi:namedview
     id="namedview8"
     pagecolor="#505050"
     bordercolor="#ffffff"
     borderopacity="1"
     inkscape:pageshadow="0"
     inkscape:pageopacity="0"
     inkscape:pagecheckerboard="1"
     showgrid="false"
     inkscape:zoom="1.3857143"
     inkscape:cx="145.05154"
     inkscape:cy="173.19587"
     inkscape:window-width="1323"
     inkscape:window-height="1027"
     inkscape:window-x="2517"
     inkscape:window-y="48"
     inkscape:window-maximized="0"
     inkscape:current-layer="svg6"
     inkscape:showpageshadow="0"
     inkscape:deskcolor="#505050" /><path
     fill="#e34f26"
     d="M 41.894531,269.53125 17.871094,0 H 282.12891 L 258.10547,269.53125 149.70703,300"
     id="path449"
     style="stroke-width:0.585938" /><path
     id="path453"
     style="stroke-width:0.585938;fill:#d9d9d9;fill-opacity:1"
     d="M 67.089844 55.078125 L 67.675781 63.867188 L 75.878906 155.27344 L 149.70703 155.27344 L 150.29297 155.27344 L 190.72266 155.27344 L 186.62109 198.04688 L 149.70703 208.00781 L 112.79297 198.04688 L 110.44922 171.67969 L 92.871094 171.67969 L 77.636719 171.67969 L 81.738281 223.82812 L 149.70703 242.57812 L 150.29297 242.57812 L 150.29297 242.41602 L 217.67578 223.82812 L 218.26172 217.96875 L 225.87891 130.66406 L 227.05078 121.875 L 217.67578 121.875 L 150.29297 121.875 L 149.70703 121.875 L 106.34766 121.875 L 103.41797 87.890625 L 149.70703 87.890625 L 150.29297 87.890625 L 229.98047 87.890625 L 230.56641 80.859375 L 232.32422 63.867188 L 232.91016 55.078125 L 150.29297 55.078125 L 149.70703 55.078125 L 67.089844 55.078125 z " /></svg>
