<?xml version="1.0" encoding="UTF-8" standalone="no"?>
<svg
   viewBox="0 0 300 300"
   version="1.1"
   id="svg6"
   sodipodi:docname="js.svg"
   width="300"
   height="300"
   inkscape:version="1.2 (dc2aedaf03, 2022-05-15)"
   xml:space="preserve"
   xmlns:inkscape="http://www.inkscape.org/namespaces/inkscape"
   xmlns:sodipodi="http://sodipodi.sourceforge.net/DTD/sodipodi-0.dtd"
   xmlns="http://www.w3.org/2000/svg"
   xmlns:svg="http://www.w3.org/2000/svg"><defs
     id="defs10" /><sodipodi:namedview
     id="namedview8"
     pagecolor="#505050"
     bordercolor="#ffffff"
     borderopacity="1"
     inkscape:pageshadow="0"
     inkscape:pageopacity="0"
     inkscape:pagecheckerboard="1"
     showgrid="false"
     inkscape:zoom="1.3857143"
     inkscape:cx="145.05154"
     inkscape:cy="173.19587"
     inkscape:window-width="1323"
     inkscape:window-height="1027"
     inkscape:window-x="2517"
     inkscape:window-y="48"
     inkscape:window-maximized="0"
     inkscape:current-layer="svg6"
     inkscape:showpageshadow="0"
     inkscape:deskcolor="#505050" /><rect
     width="300"
     height="300"
     fill="#f7df1e"
     id="rect909"
     x="-1.2e-06"
     y="-1.2e-06"
     style="stroke-width:0.47619"
     ry="0" /><path
     d="m 201.52381,234.37619 c 6.04286,9.86667 13.90476,17.11905 27.80952,17.11905 11.68096,0 19.14286,-5.8381 19.14286,-13.90476 0,-9.66667 -7.66667,-13.09048 -20.52381,-18.71429 l -7.04762,-3.02381 c -20.34285,-8.66667 -33.85714,-19.52381 -33.85714,-42.47619 0,-21.14286 16.10952,-37.23809 41.28571,-37.23809 17.92381,0 30.80953,6.23809 40.09524,22.57142 l -21.95238,14.09524 c -4.83333,-8.66666 -10.04762,-12.08095 -18.14286,-12.08095 -8.25714,0 -13.49047,5.23809 -13.49047,12.08095 0,8.45715 5.23809,11.88095 17.33333,17.11905 l 7.04762,3.01905 c 23.95238,10.27143 37.47619,20.74285 37.47619,44.28571 0,25.38095 -19.93809,39.28572 -46.71429,39.28572 -26.18095,0 -43.09523,-12.47619 -51.37142,-28.82857 z m -99.58572,2.44286 c 4.42858,7.85714 8.45715,14.5 18.14286,14.5 9.26191,0 15.10476,-3.62381 15.10476,-17.71429 v -95.85714 h 28.19048 v 96.23809 c 0,29.19048 -17.11429,42.4762 -42.09524,42.4762 -22.571427,0 -35.642855,-11.68096 -42.290474,-25.75 z"
     id="path911"
     style="stroke-width:0.47619" /></svg>
