<?xml version="1.0" encoding="utf-8"?>
<svg id="svg18" xmlns:inkscape="http://www.inkscape.org/namespaces/inkscape" xmlns:sodipodi="http://sodipodi.sourceforge.net/DTD/sodipodi-0.dtd" xmlns:svg="http://www.w3.org/2000/svg"
	 xmlns="http://www.w3.org/2000/svg" xmlns:xlink="http://www.w3.org/1999/xlink" x="0px" y="0px" viewBox="0 0 3900 790"
	 style="enable-background:new 0 0 3900 790;" xml:space="preserve">
<style type="text/css">
	.logo{fill:#d9d9d9;} <!-- HOT PINK: #FF0037 -->
</style>
<path id="path10260" class="logo" d="M2604,37.1v171c0,0-29.7-27.3-48.9-35.1c-19.2-7.8-40.4-11.7-63.5-11.7
	c-33.6,0-63.9,7.4-91,22.1c-26.6,14.7-47.6,35.5-62.8,62.4c-15.3,26.9-22.9,57.9-22.9,93s7.6,66.3,22.9,93.6
	c15.3,26.9,36.2,47.7,62.8,62.4c27,14.7,57.4,22.1,91,22.1c24,0,45.8-4.1,65.4-12.3c20.1-8.2,36.9-20.6,50-37.1v39.2
	c0.4,3.1,6.1,5.2,6.1,5.2h65.8c3.9,0,7.1-3.2,7.1-7.1V37.3c0-4-3.3-7.3-7.3-7.3v0h-67.6C2607.2,30,2604,33.2,2604,37.1L2604,37.1
	L2604,37.1z M2501,230.3c19.6,0,37.3,4.6,53,13.7c15.7,8.7,28.1,21.2,37.3,37.7c9.2,16.5,13.7,35.5,13.7,57.2
	c0,21.7-4.6,40.8-13.7,57.2c-9.2,16.5-21.6,29.3-37.3,38.4c-15.7,8.7-33.4,13-53,13v0c-19.6,0-37.3-4.3-53-13
	c-15.7-9.1-28.1-21.9-37.3-38.4c-9.2-16.5-13.7-35.5-13.7-57.2c0-21.7,4.6-40.7,13.7-57.2c9.2-16.5,21.6-29,37.3-37.7
	C2463.7,234.8,2481.4,230.3,2501,230.3L2501,230.3z" shape-rendering="geometricPrecision"/>
<path id="path10258_1_" class="logo" d="M1964.2,165c3.2,0,5.8,2.6,5.8,5.8v0v39.1c13.5-16,30.5-28.2,51-36.4
	c20.5-8.2,43.6-12.3,69.3-12.3l0,0c44,0,79.3,12.8,105.9,38.3s39.9,63.5,39.9,113.7v191.7c0,3.9-3.2,7.1-7.1,7.1c0,0,0.9,0,0.9,0
	h-67.7c-3.9,0-7.1-3.2-7.1-7.1v0V323.4c0-30.3-7.2-53.1-21.6-68.3c-14.4-15.6-35-23.4-61.6-23.4c-30.2,0-54,9.1-71.5,27.3
	c-17.5,17.8-26.2,43.6-26.2,77.4v170.8c0,2.6-2.1,4.7-4.7,4.7H1897c-2.8,0-5-2.3-5-5V171.2c0-3.4,1.4-6.2,7.3-6.2" shape-rendering="geometricPrecision"/>
<path id="path1965" class="logo" d="M1591,161.3c-34,0-64.6,7.4-91.6,22.1c-26.6,14.7-47.6,35.5-62.8,62.4
	c-14.8,26.4-22.2,57.4-22.2,93s7.4,66.8,22.2,93.6c15.3,26.9,36.2,47.7,62.8,62.4c27,14.7,57.6,22.1,91.6,22.1
	c24,0,45.8-4.1,65.4-12.3c20.1-8.2,50.5-37.1,50.5-37.1v40.3c0,2.3,1.9,4.1,4.1,4.1l0,0h69.3c2.5,0,4.5-2,4.5-4.5V169.2
	c0-2.3-1.9-4.2-4.2-4.2h-73.6c0,0-4.2,2.1-4.1,4.4v38.1c-14-15.2-30.6-26.7-49.8-34.5C1634.5,165.2,1613.7,161.3,1591,161.3
	L1591,161.3z M1600.2,230.3c30.1,0,55,10,74.6,29.9c19.6,19.9,29.4,46.2,29.4,78.7c0,32.5-9.8,58.7-29.5,78.7
	c-19.6,19.9-44.5,29.9-74.6,29.9l0,0c-30.1,0-55-10-74.6-29.9c-19.2-19.9-28.8-46.2-28.8-78.7c0-32.5,9.6-58.7,28.8-78.7
	C1545.2,240.2,1570.1,230.3,1600.2,230.3L1600.2,230.3z" shape-rendering="geometricPrecision"/>
<path id="path10252" class="logo" d="M1345,517c-36.2,0-64.5-9.8-84.9-29.3c-20-19.9-30.1-47.9-30.1-83.9V39.4c0-5.2,4.2-9.4,9.3-9.4
	h1h62.2c5.2,0,9.4,4.2,9.4,9.4V398c0,34.7,16.2,52,48.5,52c7.1,0,13.7-0.9,19.8-2.8c5.2-1.6,9.6,1.4,9.9,6.8l2.8,47.2
	c0.2,4.1-2.8,8.5-6.7,9.7C1373.3,515,1359.5,517,1345,517L1345,517z" shape-rendering="geometricPrecision"/>
<path id="path10250" class="logo" d="M1036,215.7c22.8-35.4,62.5-53.6,119-54.6c2.8,0,5,2.2,5,4.9v67.8c0,2.7-2.2,4.6-4.8,4.2
	c-5.1-0.8-9.8-1.1-14.1-1.1c-31.7,0-56.5,9.3-74.4,27.9c-17.8,18.1-26.7,44.5-26.7,79v161.4c0,3.7-3,6.8-6.8,6.8l0,0h-68.7
	c-3.6,0-6.5-2.9-6.5-6.5V170.7c0-3.2,2.6-5.7,5.7-5.7h67.2c2.8,0,5.1,2.3,5.1,5.1V215.7z" shape-rendering="geometricPrecision"/>
<path id="path10" class="logo" d="M657,161.3c-34,0-64.6,7.4-91.6,22.1c-26.6,14.7-47.6,35.5-62.8,62.4c-14.8,26.4-22.2,57.4-22.2,93
	s7.4,66.8,22.2,93.6c15.3,26.9,36.2,47.7,62.8,62.4c27,14.7,57.6,22.1,91.6,22.1c24,0,45.8-4.1,65.4-12.3
	c20.1-8.2,50.6-37.1,50.6-37.1v40.3c0,2.3,1.9,4.1,4.1,4.1l0,0h69.3c2.5,0,4.5-2,4.5-4.5l0,0V169.2c0-2.3-1.9-4.2-4.3-4.2l-0.3,0
	h-73.4c-2.3,0.2-4.2,2.1-4.1,4.4v0v38.1c-14-15.2-30.6-26.7-49.8-34.5C700.4,165.2,679.7,161.3,657,161.3L657,161.3z M666.2,230.3
	c30.1,0,55,10,74.6,29.9c19.6,19.9,29.4,46.2,29.4,78.7c0,32.5-9.8,58.7-29.5,78.7c-19.6,19.9-44.5,29.9-74.6,29.9l0,0
	c-30.1,0-55-10-74.6-29.9c-19.2-19.9-28.8-46.2-28.8-78.7c0-32.5,9.6-58.7,28.8-78.7C611.2,240.2,636.1,230.3,666.2,230.3
	L666.2,230.3z" shape-rendering="geometricPrecision"/>
<path id="path10282" class="logo" d="M3870,181.9V476c0,56.3-12.8,98-38.3,124.8c-25.5,26.9-64,40.3-115.5,40.3
	c-29.5,0-57.2-4.8-83.2-14.3c-24.3-8.9-44.2-21.1-59.7-36.5c-1.7-1.7-1.9-4.6-0.5-6.6l11.9-16.5c1.9-2.6,5.2-2.9,7.6-0.7
	c14.6,13.7,31.9,24.5,52,32.4c22,8.7,45.5,13,70.6,13c41.8,0,72.6-10.8,92.4-32.5c19.8-21.2,29.7-54.4,29.7-99.5v-52
	c-11.8,22.5-28.8,40.3-51,53.3c-21.8,12.6-47.3,18.8-76.5,18.8c-44.4,0-79.3-12.3-104.6-37c-25.3-24.7-37.9-60.3-37.9-106.6V180.5
	c0-4.1,3.4-7.5,7.5-7.5h16.8c4.3,0,7.7,3.5,7.7,7.7c0,0,0,0,0,0v173c0,38.2,9.8,67.2,29.5,87.1c19.7,19.9,47.4,29.9,83.3,29.9
	c38.5,0,68.8-11.9,91.1-35.8c22.7-23.8,34.1-55.9,34.1-96.2l0-161.1c0-3.7,2.9-5.8,6.4-4.8l0.1,0h17.5C3866,173,3870,177,3870,181.9
	L3870,181.9z" shape-rendering="geometricPrecision"/>
<path id="path10278" class="logo" d="M3309.1,170.5c-31.9,0-60.4,7.4-85.7,22.1c-25.3,14.7-45.1,35.1-59.6,61.1
	c-14,26-20.9,55.7-20.9,89.1s7.4,63.1,22.2,89.1c15.3,26,36.2,46.4,62.8,61.1c27,14.7,57.6,22.1,91.6,22.1
	c26.6,0,51.1-4.6,73.3-13.7c21.5-9.2,39.6-22.5,54.2-39.8c0.8-1,0.8-2.5-0.1-3.5l-14.3-16.1c-1.8-2-4.5-1.9-6.3,0.1
	c-12.1,13.8-27,24.5-44.7,32.1c-18.8,7.8-39.3,11.7-61.5,11.7c-34.9,0-64.8-9.1-89.7-27.3s-41.4-42.9-49.7-74.1l281.6-54.6
	c3.9-0.7,6.9-4.5,6.6-8.5c-2.2-27.1-9.9-51.6-23.1-73.5c-14-24.3-32.9-43.1-56.9-56.6C3365.4,177.4,3338.8,170.5,3309.1,170.5
	L3309.1,170.5z M3309.1,199.1c22.7,0,43.2,5,61.5,15c18.3,9.5,33.2,22.7,44.5,39.7c11.3,16.9,18.5,35.5,21.6,55.9l-260.5,50.7
	c-0.9-8.7-1.3-15.4-1.3-20.2c0-27.3,5.7-51.6,17-72.8c11.3-21.7,27.3-38.4,47.8-50.1C3260.2,205.1,3283.3,199.1,3309.1,199.1z" shape-rendering="geometricPrecision"/>
<path id="path12" class="logo" d="M2930.9,330.8l-88.9,80.5v94.1c0,3.6-2.9,6.5-6.5,6.5h-18.9c-4.2,0-7.6-3.4-7.6-7.6l0,0V36
	c0-3.3,2.7-6,6-6v0h20.1c3.8,0,6.9,3.1,6.9,6.9v334.2l217.1-197c0.8-0.7,1.8-1.1,2.8-1.1h31.1c0.3,0,0.7,0.1,0.9,0.3
	c2.7,1.9,2.6,4.9,0.8,6.6L2955.1,310l156.5,195.8c1.7,2.1,0.8,5.4-2.2,6.1c-0.1,0-0.3,0.1-0.5,0.1h-31.5c-0.9,0-1.8-0.4-2.3-1.1
	L2930.9,330.8z" shape-rendering="geometricPrecision"/>
<path id="path14" sodipodi:nodetypes="cccscccsccccsccccccccsccccsccc" class="logo" d="M343.1,131.4l-30.8,39
	c-28-15.1-59.4-23-91.2-23c-105.7,0-191.4,85-191.4,189.8C29.8,442,115.4,527,221.1,527l2.2,0c48.4,0.9,87,32.7,87,71.5
	c0,39.5-39.9,71.5-89.2,71.5c-49.3,0-89.2-32-89.2-71.5v-0.7c0-1.5-1.2-2.7-2.7-2.7l-91.4,0c-1.6,0-2.9,1.3-2.9,2.9l0,0v0.6
	c0,88.8,83.4,160.8,186.2,160.8c102.8,0,186.2-72,186.2-160.8c0-45-21.9-88-60.3-118.4c41.6-36,65.4-88.1,65.5-142.8
	c0-39.8-12.6-78.5-36.1-110.8l34-43c0.8-1.1,0.6-2.6-0.4-3.4l0,0l-63.1-49C345.7,130,344,130.2,343.1,131.4z M220.9,230.2
	c30.1,0,55,10,74.6,29.9c19.6,19.9,29.4,46.2,29.4,78.7c0,32.5-9.8,58.7-29.5,78.7c-19.6,19.9-44.5,29.9-74.6,29.9l0,0
	c-30.1,0-55-10-74.6-29.9c-19.2-19.9-28.8-46.2-28.8-78.7c0-32.5,9.6-58.7,28.8-78.7C166,240.2,190.8,230.2,220.9,230.2
	C220.9,230.2,220.9,230.2,220.9,230.2L220.9,230.2z" shape-rendering="geometricPrecision"/>
<path id="path16" sodipodi:nodetypes="cccccccccc" class="logo" d="M522.3,693l2192.6-69.4l-2148.5,83c-0.5,0-0.9,0.4-0.9,0.9
	c0,0.2,0.1,0.3,0.1,0.4l25.8,42.9c0.5,0.9,1.5,1.4,2.5,1.3l2892-108.3c0.3,0,0.5-0.2,0.5-0.5c0-0.3-0.2-0.5-0.5-0.5L2583,657.7
	l924.4-40.8c0.3,0,0.6-0.3,0.6-0.6c0-0.2-0.1-0.3-0.2-0.4l-45.6-43.9c-0.5-0.5-1.2-0.7-1.9-0.7L495.1,647.4c-0.5,0-0.9,0.4-0.9,0.9
	c0,0.2,0,0.3,0.1,0.4l26,43.2C520.8,692.6,521.5,693,522.3,693L522.3,693z" shape-rendering="geometricPrecision"/>
</svg>
