<?xml version="1.0" encoding="UTF-8" standalone="no"?>
<svg
   viewBox="0 0 300 300"
   version="1.1"
   id="svg6"
   sodipodi:docname="nextjs.svg"
   width="300"
   height="300"
   inkscape:version="1.2 (dc2aedaf03, 2022-05-15)"
   xml:space="preserve"
   xmlns:inkscape="http://www.inkscape.org/namespaces/inkscape"
   xmlns:sodipodi="http://sodipodi.sourceforge.net/DTD/sodipodi-0.dtd"
   xmlns="http://www.w3.org/2000/svg"
   xmlns:svg="http://www.w3.org/2000/svg"><defs
     id="defs10" /><sodipodi:namedview
     id="namedview8"
     pagecolor="#505050"
     bordercolor="#ffffff"
     borderopacity="1"
     inkscape:pageshadow="0"
     inkscape:pageopacity="0"
     inkscape:pagecheckerboard="1"
     showgrid="false"
     inkscape:zoom="1.3857143"
     inkscape:cx="145.05154"
     inkscape:cy="173.19587"
     inkscape:window-width="1323"
     inkscape:window-height="1027"
     inkscape:window-x="2517"
     inkscape:window-y="48"
     inkscape:window-maximized="0"
     inkscape:current-layer="svg6"
     inkscape:showpageshadow="0"
     inkscape:deskcolor="#505050" /><g
     id="g2622"
     style="fill:#d9d9d9;fill-opacity:1"
     transform="matrix(1.1253351,0,0,1.1253351,-1.5908371e-6,-18.800265)"><path
       d="m 70.787362,106.91849 h 56.582748 v 4.47567 H 75.974115 v 33.6853 h 48.331095 v 4.47568 H 75.974115 v 36.98316 h 51.985405 v 4.47567 H 70.787362 Z m 61.651618,0 h 6.01192 l 26.64105,36.98317 27.23044,-36.98317 37.03786,-46.977129 -60.84976,87.847059 31.35627,43.22555 h -6.24768 l -28.52713,-39.33878 -28.64502,39.33878 h -6.1298 l 31.59204,-43.22555 z m 69.66751,4.47567 v -4.47567 h 64.48077 v 4.47567 H 236.8813 v 79.61981 h -5.18675 v -79.61981 z"
       id="EXT"
       style="fill:#d9d9d9;fill-opacity:1;fill-rule:nonzero;stroke:none;stroke-width:1.45237" /><polygon
       id="Type-something"
       points="40.785176,90.53433 3.9364909,37.011173 3.7741619,90.53433 0.20292365,90.53433 0.20292365,32.632006 4.6669714,32.632006 66.223578,124.30309 "
       transform="matrix(1.452368,0,0,1.452368,-0.29471778,59.524808)"
       style="fill:#d9d9d9;fill-opacity:1;fill-rule:nonzero;stroke:none;stroke-width:1" /></g></svg>
