<?xml version="1.0" encoding="UTF-8" standalone="no"?>
<svg
   viewBox="0 0 300 300"
   version="1.1"
   id="svg6"
   sodipodi:docname="nodejs.svg"
   width="300"
   height="300"
   inkscape:version="1.2 (dc2aedaf03, 2022-05-15)"
   xml:space="preserve"
   xmlns:inkscape="http://www.inkscape.org/namespaces/inkscape"
   xmlns:sodipodi="http://sodipodi.sourceforge.net/DTD/sodipodi-0.dtd"
   xmlns="http://www.w3.org/2000/svg"
   xmlns:svg="http://www.w3.org/2000/svg"><defs
     id="defs10" /><sodipodi:namedview
     id="namedview8"
     pagecolor="#505050"
     bordercolor="#ffffff"
     borderopacity="1"
     inkscape:pageshadow="0"
     inkscape:pageopacity="0"
     inkscape:pagecheckerboard="1"
     showgrid="false"
     inkscape:zoom="3.9193919"
     inkscape:cx="115.57915"
     inkscape:cy="113.53802"
     inkscape:window-width="1323"
     inkscape:window-height="1027"
     inkscape:window-x="2517"
     inkscape:window-y="48"
     inkscape:window-maximized="0"
     inkscape:current-layer="svg6"
     inkscape:showpageshadow="0"
     inkscape:deskcolor="#505050" /><path
     d="m 201.89421,62.65065 c -0.27691,0.0038 -0.55701,0.06944 -0.80414,0.21444 -0.49344,0.289695 -0.80415,0.821733 -0.80415,1.393849 V 105.2703 c 0,0.40297 -0.18764,0.76305 -0.5361,0.96514 -0.34933,0.2026 -0.77562,0.2026 -1.1258,0 l -6.70122,-3.8599 c -0.99842,-0.57573 -2.21793,-0.57538 -3.21658,0 l -26.75124,15.4396 c -1.00015,0.57693 -1.60831,1.68686 -1.60831,2.84123 v 30.87919 c 0,1.15351 0.60901,2.20976 1.60831,2.78771 l 26.75124,15.4396 c 1.00015,0.57709 2.21645,0.57709 3.21658,0 l 26.75126,-15.4396 c 0.99928,-0.57795 1.60828,-1.6342 1.60828,-2.78771 V 74.552008 c 0,-1.171068 -0.63903,-2.270056 -1.66189,-2.841321 L 202.69836,62.81148 c -0.25004,-0.139478 -0.52723,-0.163839 -0.80415,-0.160741 z M 29.807004,101.19596 c -0.510144,0.0206 -0.989425,0.10981 -1.447462,0.37534 L 1.6082868,117.01091 C 0.61149021,117.58714 -2.4449592e-6,118.6367 -2.4449592e-6,119.79861 L 0.05349132,161.23883 c 0,0.57642 0.29736722,1.11166 0.8041514,1.39403 0.49672108,0.2973 1.11324538,0.2973 1.60828928,0 l 15.868478,-9.11383 c 1.005189,-0.59716 1.661898,-1.6359 1.661898,-2.78769 v -19.35303 c 0,-1.15436 0.607259,-2.21386 1.608296,-2.78771 l 6.754823,-3.91341 c 0.504153,-0.29147 1.0454,-0.42889 1.60829,-0.42889 0.551336,0 1.118086,0.13725 1.608295,0.42889 l 6.754824,3.91341 c 1.001002,0.57385 1.608289,1.63335 1.608289,2.78771 v 19.35303 c 0,1.15179 0.663268,2.19722 1.661904,2.78769 l 15.868478,9.11383 c 0.498358,0.2973 1.114017,0.2973 1.608289,0 0.492575,-0.28237 0.804145,-0.81761 0.804145,-1.39403 l 0.0535,-41.44022 c 0,-1.16191 -0.604718,-2.21147 -1.60829,-2.7877 l -26.7512,-15.43961 c -0.452465,-0.26556 -0.933869,-0.35442 -1.447463,-0.37534 H 29.806829 Z M 270.193,101.5713 c -0.55888,-6.7e-4 -1.10651,0.14067 -1.60829,0.42888 l -26.75126,15.4396 c -0.99928,0.57711 -1.60829,1.63334 -1.60829,2.78771 v 30.87919 c 0,1.16107 0.65404,2.21387 1.6619,2.78771 l 26.53682,15.11794 c 0.97998,0.55961 2.17656,0.60146 3.16297,0.0532 l 16.08291,-8.95292 c 0.51037,-0.28305 0.85562,-0.81178 0.85776,-1.39385 0.004,-0.58224 -0.30021,-1.1041 -0.80415,-1.39385 L 260.8113,141.88527 c -0.50393,-0.28735 -0.85776,-0.86958 -0.85776,-1.44755 v -9.64975 c 0,-0.57692 0.35811,-1.10563 0.85776,-1.39368 l 8.36312,-4.82504 c 0.49749,-0.28786 1.10863,-0.28786 1.60829,0 l 8.36312,4.82504 c 0.49964,0.28805 0.80414,0.81676 0.80414,1.39368 v 7.61276 c 0,0.57778 0.30449,1.10564 0.80415,1.39368 0.50178,0.2889 1.10864,0.29009 1.60829,0 l 16.0293,-9.32792 C 299.3867,129.88854 300,128.82955 300,127.6788 v -7.45185 c 0,-1.15094 -0.61115,-2.20975 -1.60829,-2.7877 l -26.59042,-15.43961 c -0.50072,-0.29026 -1.04942,-0.42819 -1.60829,-0.42887 z m -79.98571,23.05219 c 0.13948,0 0.30365,0.0343 0.42888,0.10638 l 9.16726,5.30745 c 0.24875,0.1441 0.42888,0.4095 0.42888,0.69684 v 10.61473 c 0,0.2882 -0.17842,0.55376 -0.42888,0.69701 l -9.16726,5.30726 c -0.24961,0.1424 -0.55453,0.1424 -0.80415,0 l -9.16726,-5.30726 c -0.2496,-0.1441 -0.42888,-0.40881 -0.42888,-0.69701 v -10.61473 c 0,-0.28734 0.18013,-0.55204 0.42888,-0.69684 l 9.16726,-5.30658 c 0.12517,-0.0721 0.23578,-0.10639 0.37527,-0.10639 z"
     id="path22"
     style="fill:#d9d9d9;fill-opacity:1;fill-rule:evenodd;stroke:none;stroke-width:0.67628" /><path
     style="fill:#83cd29;fill-opacity:1;fill-rule:evenodd;stroke:none;stroke-width:0.67628"
     d="m 270.13939,128.9663 c -0.10689,0 -0.22516,0 -0.32166,0.0532 l -5.14653,3.00214 c -0.193,0.10981 -0.32166,0.3141 -0.32166,0.53609 v 5.89708 c 0,0.22198 0.12866,0.42544 0.32166,0.5361 l 5.14653,2.94844 c 0.193,0.11146 0.39885,0.11146 0.58971,0 l 5.14653,-2.94844 c 0.19085,-0.10981 0.32166,-0.31412 0.32166,-0.5361 v -5.89708 c 0,-0.22199 -0.13072,-0.42561 -0.32166,-0.53609 l -5.14653,-3.00214 c -0.0953,-0.0566 -0.16109,-0.0532 -0.26805,-0.0532 z"
     id="path2059" /><path
     style="fill:#83cd29;fill-opacity:1;fill-rule:evenodd;stroke:none;stroke-width:0.67628"
     d="m 110.16797,101.4104 c -0.55743,0 -1.10907,0.14067 -1.60828,0.42886 l -26.751253,15.38609 c -1.000145,0.57641 -1.608297,1.68789 -1.608297,2.84122 v 30.87921 c 0,1.1547 0.608801,2.21009 1.608297,2.78769 l 26.751253,15.43961 c 1.00014,0.57762 2.21644,0.57762 3.21658,0 l 26.75125,-15.43961 c 0.99843,-0.5776 1.6083,-1.63299 1.6083,-2.78769 v -30.87921 c 0,-1.15505 -0.60816,-2.26481 -1.6083,-2.84122 l -26.75125,-15.38609 c -0.49922,-0.28819 -1.05086,-0.42886 -1.6083,-0.42886 z"
     id="path2051" /><path
     style="fill:#83cd29;fill-opacity:1;fill-rule:evenodd;stroke:none;stroke-width:0.664399;stroke-opacity:1"
     d="m 156.63615,190.21221 c -7.06381,0 -11.27092,3.0062 -11.27092,8.00551 0,5.42337 4.1755,6.91339 10.95491,7.58417 8.11086,0.79399 8.74287,1.98487 8.74287,3.58141 0,2.76924 -2.20784,3.95001 -7.42617,3.95001 -6.5561,0 -7.99708,-1.63666 -8.47953,-4.89802 -0.0567,-0.34972 -0.32653,-0.63202 -0.68467,-0.63202 h -3.21275 c -0.39605,0 -0.73734,0.34062 -0.73734,0.73736 0,4.17466 2.27103,9.11162 13.11429,9.11162 7.84962,0 12.37694,-3.0812 12.37694,-8.47961 0,-5.35173 -3.65726,-6.78817 -11.27092,-7.79485 -7.69372,-1.01796 -8.42685,-1.51615 -8.42685,-3.31798 0,-1.48735 0.62148,-3.47625 6.32014,-3.47625 5.08982,0 6.97112,1.09769 7.74217,4.52961 0.0675,0.32257 0.35183,0.57925 0.68469,0.57925 h 3.21273 c 0.19804,0 0.38974,-0.12135 0.52668,-0.26341 0.13483,-0.15169 0.22963,-0.32259 0.21067,-0.52651 -0.49718,-5.91044 -4.43884,-8.69029 -12.37694,-8.69029 z"
     id="path2057" /><path
     style="fill:#83cd29;fill-opacity:1;fill-rule:evenodd;stroke:none;stroke-width:0.664399;stroke-opacity:1"
     d="m 150.00001,169.77676 c -0.91117,0 -1.79703,0.18842 -2.58073,0.632 l -24.80655,14.32566 c -1.60532,0.92426 -2.58073,2.67131 -2.58073,4.52944 v 28.59872 c 0,1.85711 0.97541,3.60214 2.58073,4.52927 l 6.47813,3.7395 c 3.14744,1.55121 4.30824,1.52728 5.7408,1.52728 4.66005,0 7.32084,-2.82755 7.32084,-7.74209 v -28.22996 c 0,-0.39909 -0.34551,-0.68477 -0.73736,-0.68477 h -3.1074 c -0.39817,0 -0.73735,0.28568 -0.73735,0.68477 v 28.22996 c 0,2.17834 -2.26893,4.36899 -5.95147,2.52806 l -6.74147,-3.95001 c -0.23806,-0.12977 -0.42135,-0.35882 -0.42135,-0.63201 v -28.59872 c 0,-0.27152 0.18118,-0.54725 0.42135,-0.6846 l 24.75388,-14.27306 c 0.23174,-0.13315 0.50771,-0.13315 0.73735,0 l 24.75388,14.27306 c 0.23596,0.14157 0.42135,0.40482 0.42135,0.6846 v 28.59872 c 0,0.27319 -0.13703,0.55297 -0.36868,0.6846 l -24.80655,14.27306 c -0.21278,0.12641 -0.50561,0.12641 -0.73735,0 l -6.37281,-3.79208 c -0.18961,-0.11125 -0.44874,-0.10277 -0.63202,0 -1.7591,0.99724 -2.08985,1.11319 -3.73942,1.68537 -0.40659,0.14158 -1.02385,0.36186 0.21067,1.05336 l 8.32153,4.89803 c 0.79213,0.45841 1.67484,0.68459 2.58073,0.68459 0.91851,0 1.78859,-0.22618 2.58071,-0.68459 l 24.80656,-14.27307 c 1.60532,-0.9337 2.58072,-2.67216 2.58072,-4.52927 v -28.59872 c 0,-1.85813 -0.9754,-3.6013 -2.58072,-4.52944 l -24.80656,-14.32566 c -0.77737,-0.44358 -1.66955,-0.632 -2.58071,-0.632 z"
     id="path28" /></svg>
