<?xml version="1.0" encoding="UTF-8" standalone="no"?>
<svg
   viewBox="0 0 300 300"
   version="1.1"
   id="svg6"
   sodipodi:docname="postgresql.svg"
   width="300"
   height="300"
   inkscape:version="1.2 (dc2aedaf03, 2022-05-15)"
   xml:space="preserve"
   xmlns:inkscape="http://www.inkscape.org/namespaces/inkscape"
   xmlns:sodipodi="http://sodipodi.sourceforge.net/DTD/sodipodi-0.dtd"
   xmlns="http://www.w3.org/2000/svg"
   xmlns:svg="http://www.w3.org/2000/svg"><defs
     id="defs10">













	</defs><sodipodi:namedview
     id="namedview8"
     pagecolor="#505050"
     bordercolor="#ffffff"
     borderopacity="1"
     inkscape:pageshadow="0"
     inkscape:pageopacity="0"
     inkscape:pagecheckerboard="1"
     showgrid="false"
     inkscape:zoom="3.9193919"
     inkscape:cx="115.57915"
     inkscape:cy="113.53802"
     inkscape:window-width="1323"
     inkscape:window-height="1027"
     inkscape:window-x="2517"
     inkscape:window-y="48"
     inkscape:window-maximized="0"
     inkscape:current-layer="svg6"
     inkscape:showpageshadow="0"
     inkscape:deskcolor="#505050" /><path
     style="clip-rule:nonzero;fill:#000000;fill-rule:nonzero;stroke:#000000;stroke-width:25.2037;stroke-linecap:butt;stroke-linejoin:miter;stroke-miterlimit:4"
     d="m 222.13465,218.52315 c 1.90939,-15.90664 1.33718,-18.23929 13.1851,-15.66266 l 3.00798,0.2642 c 9.1102,0.4145 21.02755,-1.46523 28.02887,-4.71787 15.07157,-6.99323 24.00857,-18.66928 9.14727,-15.60132 C 241.60462,189.79873 239.274,178.32015 239.274,178.32015 275.06983,125.20839 290.03357,57.787996 277.11738,41.284884 241.88837,-3.7296668 180.90787,17.556691 179.88746,18.109356 l -0.32486,0.05998 c -6.69802,-1.389749 -14.19405,-2.220095 -22.61477,-2.356239 -15.34049,-0.252069 -26.98083,4.021648 -35.81066,10.719002 0,0 -108.786008,-44.818422 -103.725081,56.363726 1.076349,21.524275 30.852852,162.871005 66.36696,120.177645 12.98021,-15.61143 25.524351,-28.81136 25.524351,-28.81136 6.22894,4.13825 13.68654,6.24916 21.5081,5.49093 l 0.60456,-0.5156 c -0.18939,1.93837 -0.10581,3.83428 0.24196,6.07864 -9.14728,10.22228 -6.45944,12.01709 -24.75062,15.78195 -18.505512,3.81406 -7.633516,10.60443 -0.53717,12.37902 8.6054,2.15202 28.51279,5.20044 41.96749,-13.6306 l -0.53582,2.14865 c 3.58895,2.87116 3.34632,20.63664 3.85517,33.32974 0.50953,12.69376 1.35943,24.53899 3.94684,31.52278 2.58742,6.98245 5.64055,24.97102 29.67945,19.8191 20.09071,-4.30539 35.45143,-10.50198 36.85129,-68.14424"
     id="path2344" /><path
     style="clip-rule:nonzero;fill:#336791;fill-rule:nonzero;stroke:none;stroke-width:8.40125;stroke-linecap:round;stroke-linejoin:round;stroke-miterlimit:4"
     d="M 275.50724,182.80415 C 241.60462,189.79738 239.274,178.3188 239.274,178.3188 275.06983,125.20367 290.03357,57.78193 277.12008,41.28084 241.89107,-3.7310147 180.90787,17.556691 179.89016,18.109356 l -0.32756,0.05864 c -6.69802,-1.390423 -14.19405,-2.218747 -22.61881,-2.356239 -15.3405,-0.251395 -26.97679,4.021648 -35.80662,10.717654 0,0 -108.78803,-44.8164 -103.728451,56.365074 1.076349,21.525615 30.852178,162.872345 66.367634,120.178985 12.980884,-15.61143 25.523007,-28.81136 25.523007,-28.81136 6.22961,4.13825 13.68722,6.24916 21.5054,5.49093 l 0.60726,-0.5156 c -0.18872,1.93837 -0.10245,3.83428 0.24331,6.07864 -9.1493,10.22228 -6.46079,12.01709 -24.75063,15.78195 -18.506856,3.81406 -7.63486,10.60443 -0.53649,12.37902 8.6054,2.15202 28.51414,5.20044 41.96614,-13.6306 l -0.53649,2.14865 c 3.5849,2.87116 6.10222,18.6767 5.68031,33.0042 -0.42191,14.32817 -0.70363,24.16494 2.12102,31.84832 2.82466,7.68339 5.63988,24.97102 29.6835,19.8191 20.09071,-4.30539 30.5017,-15.46248 31.95009,-34.07313 1.02782,-13.23093 3.35373,-11.27504 3.50066,-23.10409 l 1.86558,-5.60011 c 2.15135,-17.93532 0.34171,-23.72145 12.71938,-21.03024 l 3.00798,0.2642 c 9.11021,0.4145 21.03361,-1.46524 28.03156,-4.71787 15.06888,-6.99324 24.00588,-18.66929 9.14795,-15.60133 z"
     id="path2346" /><path
     d="m 149.79015,193.08507 c -0.93347,33.37286 0.23454,66.97826 3.49998,75.14556 3.26746,8.16731 10.26002,24.05306 34.30566,18.90182 20.08869,-4.30675 27.39802,-12.6412 30.56978,-31.03753 2.33602,-13.53489 6.83956,-51.12419 7.41717,-58.82578"
     id="path2348"
     style="clip-rule:nonzero;fill:none;fill-rule:nonzero;stroke:#d9d9d9;stroke-width:8.40125;stroke-linecap:round;stroke-linejoin:round;stroke-miterlimit:4;stroke-opacity:1" /><path
     d="m 120.96935,25.783984 c 0,0 -108.862169,-44.493564 -103.801242,56.68791 1.076349,21.525626 30.8542,162.877066 66.368981,120.181686 12.978188,-15.61345 24.715581,-27.85902 24.715581,-27.85902"
     id="path2350"
     style="clip-rule:nonzero;fill:none;fill-rule:nonzero;stroke:#d9d9d9;stroke-width:8.40125;stroke-linecap:round;stroke-linejoin:round;stroke-miterlimit:4;stroke-opacity:1" /><path
     d="m 179.77087,17.66318 c -3.76824,1.18149 60.55589,-23.5145406 97.11197,23.196422 12.91281,16.501763 -2.05093,83.923508 -37.84608,137.039988"
     id="path2352"
     style="clip-rule:nonzero;fill:none;fill-rule:nonzero;stroke:#d9d9d9;stroke-width:8.40125;stroke-linecap:round;stroke-linejoin:round;stroke-miterlimit:4;stroke-opacity:1" /><path
     style="clip-rule:nonzero;fill:none;fill-rule:nonzero;stroke:#d9d9d9;stroke-width:8.40125;stroke-linecap:round;stroke-linejoin:bevel;stroke-miterlimit:4;stroke-opacity:1"
     d="m 239.03608,177.89959 c 0,0 2.33265,11.48195 36.23594,4.484 14.85456,-3.06797 5.91487,8.60944 -9.15064,15.60604 -12.36419,5.73828 -40.08438,7.20891 -40.5373,-0.72049 -1.16531,-20.45871 14.58968,-14.24325 13.45268,-19.36955 -1.02783,-4.61677 -8.07363,-9.14795 -12.73421,-20.44725 -4.06883,-9.86237 -55.80297,-85.493883 14.34704,-74.261307 2.56989,-0.531772 -18.2959,-66.725518 -83.94642,-67.801866 C 91.067485,14.312818 93.220856,96.10654 93.220856,96.10654"
     id="path2354" /><path
     d="m 131.41606,184.89619 c -9.15065,10.2216 -6.45944,12.01642 -24.75062,15.78263 -18.506859,3.81473 -7.633516,10.60375 -0.53716,12.37767 8.60539,2.15337 28.51413,5.20179 41.96613,-13.63398 4.09646,-5.7349 -0.0243,-14.88555 -5.65134,-17.2182 -2.71884,-1.12622 -6.35429,-2.53754 -11.02701,2.69188 z"
     id="path2356"
     style="clip-rule:nonzero;fill:none;fill-rule:nonzero;stroke:#d9d9d9;stroke-width:8.40125;stroke-linecap:round;stroke-linejoin:round;stroke-miterlimit:4;stroke-opacity:1" /><path
     d="m 130.81689,184.71759 c -0.922,-6.0099 1.97477,-13.16152 5.07913,-21.52832 4.6653,-12.55358 15.42946,-25.10918 6.81867,-64.930707 -6.41833,-29.674732 -49.467549,-6.175692 -49.494508,-2.152023 -0.02629,4.02232 1.947132,20.39468 -0.719139,39.46027 -3.479092,24.87868 15.830477,45.91971 38.065807,43.76701"
     id="path2358"
     style="clip-rule:nonzero;fill:none;fill-rule:nonzero;stroke:#d9d9d9;stroke-width:8.40125;stroke-linecap:round;stroke-linejoin:round;stroke-miterlimit:4;stroke-opacity:1" /><path
     style="clip-rule:nonzero;fill:#d9d9d9;fill-rule:nonzero;stroke:#d9d9d9;stroke-width:2.80039;stroke-linecap:butt;stroke-linejoin:miter;stroke-miterlimit:4;stroke-opacity:1;fill-opacity:1"
     d="m 120.57372,95.503327 c -0.19411,1.374248 2.51597,5.041383 6.04966,5.531363 3.52762,0.49201 6.54706,-2.37376 6.73847,-3.74666 0.19141,-1.374248 -2.5153,-2.888011 -6.05034,-3.380017 -3.52964,-0.492681 -6.55042,0.224435 -6.73711,1.595314 z"
     id="path2360" /><path
     style="clip-rule:nonzero;fill:#d9d9d9;fill-rule:nonzero;stroke:#d9d9d9;stroke-width:1.4002;stroke-linecap:butt;stroke-linejoin:miter;stroke-miterlimit:4;fill-opacity:1;stroke-opacity:1"
     d="m 228.02255,92.701586 c 0.19141,1.374248 -2.5153,5.041381 -6.04966,5.531366 -3.53031,0.492007 -6.54975,-2.373763 -6.74318,-3.746663 -0.1867,-1.374249 2.52069,-2.888011 6.05168,-3.380017 3.53099,-0.492007 6.54975,0.224435 6.74116,1.595988 z"
     id="path2362" /><path
     d="m 240.64959,83.191033 c 0.58165,10.77966 -2.32186,18.122017 -2.68784,29.597227 -0.54188,16.67969 7.95231,35.77089 -4.8466,54.88568"
     id="path2364"
     style="clip-rule:nonzero;fill:none;fill-rule:nonzero;stroke:#d9d9d9;stroke-width:8.40125;stroke-linecap:round;stroke-linejoin:round;stroke-miterlimit:4;stroke-opacity:1" /><path
     style="clip-rule:nonzero;fill:none;fill-rule:nonzero;stroke:#ffffff;stroke-width:2.02194;stroke-linecap:round;stroke-linejoin:round;stroke-miterlimit:4"
     d="M 4.3004531,40.595401"
     id="path2366" /></svg>
