<?xml version="1.0" encoding="UTF-8" standalone="no"?>
<svg
   viewBox="0 0 300 300"
   version="1.1"
   id="svg6"
   sodipodi:docname="react.svg"
   width="300"
   height="300"
   inkscape:version="1.2 (dc2aedaf03, 2022-05-15)"
   xmlns:inkscape="http://www.inkscape.org/namespaces/inkscape"
   xmlns:sodipodi="http://sodipodi.sourceforge.net/DTD/sodipodi-0.dtd"
   xmlns="http://www.w3.org/2000/svg"
   xmlns:svg="http://www.w3.org/2000/svg">
  <defs
     id="defs10">
    <clipPath
       clipPathUnits="userSpaceOnUse"
       id="clipPath17471">
      <path
         d="M 0,600 H 600 V 0 H 0 Z"
         id="path17469" />
    </clipPath>
    <linearGradient
       x1="0"
       y1="0"
       x2="1"
       y2="0"
       gradientUnits="userSpaceOnUse"
       gradientTransform="matrix(-34.424583,70.226151,-70.226151,-34.424583,163.14392,72.980185)"
       spreadMethod="pad"
       id="linearGradient17519">
      <stop
         style="stop-opacity:1;stop-color:#687e67"
         offset="0"
         id="stop17513" />
      <stop
         style="stop-opacity:1;stop-color:#687e67"
         offset="0.5288042"
         id="stop17515" />
      <stop
         style="stop-opacity:1;stop-color:#83a178"
         offset="1"
         id="stop17517" />
    </linearGradient>
    <linearGradient
       x1="0"
       y1="0"
       x2="1"
       y2="0"
       gradientUnits="userSpaceOnUse"
       gradientTransform="matrix(96.592852,-71.367959,71.367959,96.592852,141.85151,109.73258)"
       spreadMethod="pad"
       id="linearGradient17545">
      <stop
         style="stop-opacity:1;stop-color:#687e67"
         offset="0"
         id="stop17535" />
      <stop
         style="stop-opacity:1;stop-color:#687e67"
         offset="0.137556"
         id="stop17537" />
      <stop
         style="stop-opacity:1;stop-color:#9bb48f"
         offset="0.69737407"
         id="stop17539" />
      <stop
         style="stop-opacity:1;stop-color:#9bb48f"
         offset="0.908084"
         id="stop17541" />
      <stop
         style="stop-opacity:1;stop-color:#9bb48f"
         offset="1"
         id="stop17543" />
    </linearGradient>
    <clipPath
       clipPathUnits="userSpaceOnUse"
       id="clipPath17555">
      <path
         d="m 239.032,373.393 -42.134,-24.315 c -1.575,-0.909 -2.545,-2.588 -2.545,-4.407 v -48.666 c 0,-1.818 0.97,-3.497 2.544,-4.408 l 42.133,-24.334 c 1.576,-0.909 3.516,-0.909 5.091,0 l 42.124,24.334 c 1.574,0.911 2.543,2.59 2.543,4.408 v 48.668 c 0,1.817 -0.969,3.496 -2.545,4.405 l -42.123,24.315 c -0.787,0.454 -1.666,0.682 -2.544,0.682 -0.879,0 -1.757,-0.228 -2.544,-0.682"
         id="path17553" />
    </clipPath>
    <linearGradient
       x1="0"
       y1="0"
       x2="1"
       y2="0"
       gradientUnits="userSpaceOnUse"
       gradientTransform="matrix(88.100621,0,0,88.100621,103.60101,48.6706)"
       spreadMethod="pad"
       id="linearGradient17579">
      <stop
         style="stop-opacity:1;stop-color:#9bb48f"
         offset="0"
         id="stop17569" />
      <stop
         style="stop-opacity:1;stop-color:#9bb48f"
         offset="0.0919165"
         id="stop17571" />
      <stop
         style="stop-opacity:1;stop-color:#9bb48f"
         offset="0.30262629"
         id="stop17573" />
      <stop
         style="stop-opacity:1;stop-color:#687e67"
         offset="0.862444"
         id="stop17575" />
      <stop
         style="stop-opacity:1;stop-color:#687e67"
         offset="1"
         id="stop17577" />
    </linearGradient>
    <linearGradient
       x1="0"
       y1="0"
       x2="1"
       y2="0"
       gradientUnits="userSpaceOnUse"
       gradientTransform="matrix(88.100621,0,0,88.100621,103.60101,104.57598)"
       spreadMethod="pad"
       id="linearGradient17605">
      <stop
         style="stop-opacity:1;stop-color:#9bb48f"
         offset="0"
         id="stop17595" />
      <stop
         style="stop-opacity:1;stop-color:#9bb48f"
         offset="0.0919165"
         id="stop17597" />
      <stop
         style="stop-opacity:1;stop-color:#9bb48f"
         offset="0.30262629"
         id="stop17599" />
      <stop
         style="stop-opacity:1;stop-color:#687e67"
         offset="0.862444"
         id="stop17601" />
      <stop
         style="stop-opacity:1;stop-color:#687e67"
         offset="1"
         id="stop17603" />
    </linearGradient>
    <clipPath
       clipPathUnits="userSpaceOnUse"
       id="clipPath17615">
      <path
         d="m 239.032,373.393 -42.134,-24.315 c -1.575,-0.909 -2.545,-2.588 -2.545,-4.407 v -48.666 c 0,-1.818 0.97,-3.497 2.544,-4.408 l 42.133,-24.334 c 1.576,-0.909 3.516,-0.909 5.091,0 l 42.124,24.334 c 1.574,0.911 2.543,2.59 2.543,4.408 v 48.668 c 0,1.817 -0.969,3.496 -2.545,4.405 l -42.123,24.315 c -0.787,0.454 -1.666,0.682 -2.544,0.682 -0.879,0 -1.757,-0.228 -2.544,-0.682"
         id="path17613" />
    </clipPath>
    <linearGradient
       x1="0"
       y1="0"
       x2="1"
       y2="0"
       gradientUnits="userSpaceOnUse"
       gradientTransform="matrix(88.100621,0,0,88.100621,103.60101,129.72695)"
       spreadMethod="pad"
       id="linearGradient17639">
      <stop
         style="stop-opacity:1;stop-color:#9bb48f"
         offset="0"
         id="stop17629" />
      <stop
         style="stop-opacity:1;stop-color:#9bb48f"
         offset="0.0919165"
         id="stop17631" />
      <stop
         style="stop-opacity:1;stop-color:#9bb48f"
         offset="0.30262629"
         id="stop17633" />
      <stop
         style="stop-opacity:1;stop-color:#687e67"
         offset="0.862444"
         id="stop17635" />
      <stop
         style="stop-opacity:1;stop-color:#687e67"
         offset="1"
         id="stop17637" />
    </linearGradient>
    <clipPath
       clipPathUnits="userSpaceOnUse"
       id="clipPath17649">
      <path
         d="m 239.032,373.393 -42.134,-24.315 c -1.575,-0.909 -2.545,-2.588 -2.545,-4.407 v -48.666 c 0,-1.818 0.97,-3.497 2.544,-4.408 l 42.133,-24.334 c 1.576,-0.909 3.516,-0.909 5.091,0 l 42.124,24.334 c 1.574,0.911 2.543,2.59 2.543,4.408 v 48.668 c 0,1.817 -0.969,3.496 -2.545,4.405 l -42.123,24.315 c -0.787,0.454 -1.666,0.682 -2.544,0.682 -0.879,0 -1.757,-0.228 -2.544,-0.682"
         id="path17647" />
    </clipPath>
    <linearGradient
       x1="0"
       y1="0"
       x2="1"
       y2="0"
       gradientUnits="userSpaceOnUse"
       gradientTransform="matrix(88.100621,0,0,88.100621,103.60101,141.09453)"
       spreadMethod="pad"
       id="linearGradient17673">
      <stop
         style="stop-opacity:1;stop-color:#9bb48f"
         offset="0"
         id="stop17663" />
      <stop
         style="stop-opacity:1;stop-color:#9bb48f"
         offset="0.0919165"
         id="stop17665" />
      <stop
         style="stop-opacity:1;stop-color:#9bb48f"
         offset="0.30262629"
         id="stop17667" />
      <stop
         style="stop-opacity:1;stop-color:#687e67"
         offset="0.862444"
         id="stop17669" />
      <stop
         style="stop-opacity:1;stop-color:#687e67"
         offset="1"
         id="stop17671" />
    </linearGradient>
    <clipPath
       clipPathUnits="userSpaceOnUse"
       id="clipPath17683">
      <path
         d="m 239.032,373.393 -42.134,-24.315 c -1.575,-0.909 -2.545,-2.588 -2.545,-4.407 v -48.666 c 0,-1.818 0.97,-3.497 2.544,-4.408 l 42.133,-24.334 c 1.576,-0.909 3.516,-0.909 5.091,0 l 42.124,24.334 c 1.574,0.911 2.543,2.59 2.543,4.408 v 48.668 c 0,1.817 -0.969,3.496 -2.545,4.405 l -42.123,24.315 c -0.787,0.454 -1.666,0.682 -2.544,0.682 -0.879,0 -1.757,-0.228 -2.544,-0.682"
         id="path17681" />
    </clipPath>
    <linearGradient
       x1="0"
       y1="0"
       x2="1"
       y2="0"
       gradientUnits="userSpaceOnUse"
       gradientTransform="matrix(-54.33486,110.84312,-110.84312,-54.33486,204.53683,70.898136)"
       spreadMethod="pad"
       id="linearGradient17703">
      <stop
         style="stop-opacity:1;stop-color:#687e67"
         offset="0"
         id="stop17697" />
      <stop
         style="stop-opacity:1;stop-color:#687e67"
         offset="0.5288042"
         id="stop17699" />
      <stop
         style="stop-opacity:1;stop-color:#83a178"
         offset="1"
         id="stop17701" />
    </linearGradient>
  </defs>
  <sodipodi:namedview
     id="namedview8"
     pagecolor="#505050"
     bordercolor="#ffffff"
     borderopacity="1"
     inkscape:pageshadow="0"
     inkscape:pageopacity="0"
     inkscape:pagecheckerboard="1"
     showgrid="false"
     inkscape:zoom="1.3857143"
     inkscape:cx="138.5567"
     inkscape:cy="165.25773"
     inkscape:window-width="1220"
     inkscape:window-height="1027"
     inkscape:window-x="0"
     inkscape:window-y="1104"
     inkscape:window-maximized="0"
     inkscape:current-layer="svg6"
     inkscape:showpageshadow="0"
     inkscape:deskcolor="#505050" />
  <path
     id="ellipse18865"
     style="color:#000000;fill:#61dafb;stroke-width:1.07208"
     d="m 203.09151,180.78029 c 20.14666,-35.04112 33.05197,-69.87065 37.62355,-98.524364 2.2858,-14.326856 2.52452,-27.12523 0.23152,-37.890486 -2.293,-10.765255 -7.39789,-19.856073 -15.94703,-24.812574 -8.54912,-4.956506 -18.94162,-4.850575 -29.37224,-1.46206 -10.43061,3.388521 -21.34695,9.996358 -32.55975,19.147628 -22.4256,18.302547 -46.01225,46.939378 -66.15891,81.980486 -20.146658,35.04113 -33.05016,69.87171 -37.621748,98.52543 -2.285787,14.32686 -2.526313,27.12418 -0.233319,37.88944 2.293003,10.76525 7.396852,19.85789 15.945981,24.81439 8.549118,4.95651 18.942668,4.84876 29.373286,1.46024 10.43062,-3.38851 21.34876,-9.99531 32.56155,-19.14658 22.4256,-18.30254 46.01045,-46.94043 66.15711,-81.98155 z m -11.29544,-6.54873 c -19.47378,33.87079 -42.37961,61.46441 -63.08951,78.3667 -10.35496,8.45115 -20.16726,14.18929 -28.34908,16.84727 -8.181827,2.65795 -14.283518,2.29717 -18.835451,-0.34189 -4.551942,-2.63906 -7.913929,-7.76502 -9.712569,-16.20933 -1.798645,-8.44432 -1.75613,-19.84666 0.354781,-33.07743 4.221843,-26.46154 16.567874,-60.17739 36.041649,-94.04818 19.47378,-33.87078 42.37677,-61.463623 63.08667,-78.36592 10.35496,-8.451144 20.1683,-14.19111 28.35013,-16.849074 8.18182,-2.657967 14.28351,-2.297187 18.83545,0.34188 4.55193,2.639062 7.91392,7.765019 9.71257,16.209333 1.79864,8.444309 1.75507,19.848478 -0.35583,33.079252 -4.22185,26.461529 -16.56503,60.176599 -36.03881,94.047389 z M 203.09209,119.2197 C 182.94545,84.178582 159.35879,55.541752 136.9332,37.239207 125.7204,28.087932 114.80405,21.480095 104.37345,18.091578 93.942823,14.703062 83.54928,14.595309 75.000155,19.551812 c -8.549123,4.956504 -13.65297,14.049141 -15.945972,24.814395 -2.293,10.765254 -2.054286,23.56363 0.231509,37.890488 4.571587,28.653715 17.476897,63.483245 37.623549,98.524365 20.146659,35.04112 43.731509,63.67901 66.157099,81.98155 11.2128,9.15128 22.13095,15.75807 32.56157,19.14657 10.43062,3.38853 20.82311,3.49445 29.37224,-1.46204 8.54912,-4.9565 13.65402,-14.04732 15.94701,-24.81258 2.29301,-10.76526 2.05248,-23.56258 -0.23332,-37.88944 -4.57159,-28.65372 -17.47508,-63.48429 -37.62175,-98.52542 z m -11.29723,6.54976 c 19.47378,33.87079 31.81877,67.58483 36.04061,94.04637 2.11091,13.23077 2.15446,24.63494 0.35582,33.07924 -1.79863,8.44432 -5.16062,13.57028 -9.71256,16.20935 -4.55193,2.63906 -10.65363,2.99984 -18.83545,0.34187 -8.18182,-2.65797 -17.99518,-8.39792 -28.35013,-16.84908 -20.7099,-16.90229 -43.61469,-44.49409 -63.08847,-78.36488 C 88.730899,140.36154 76.386679,106.64466 72.164841,80.183121 70.053924,66.952352 70.011413,55.549996 71.810053,47.105685 c 1.79864,-8.444311 5.159586,-13.572085 9.711523,-16.21115 4.551937,-2.639064 10.654677,-2.998028 18.836504,-0.340061 8.18181,2.657966 17.99412,8.396113 28.34908,16.847263 20.7099,16.902295 43.61393,44.496953 63.0877,78.367723 z M 150.00104,88.43812 c -40.2933,0 -76.785559,6.19375 -103.782743,16.54491 -13.498593,5.17559 -24.65337,11.36507 -32.790984,18.74182 C 5.2896989,131.10157 -5.3049972e-7,140.08647 3.0789257e-7,149.99947 -3.4862541e-6,159.91248 5.2896976,168.89737 13.427315,176.27411 c 8.137612,7.37674 19.29239,13.56832 32.790984,18.74391 26.997185,10.35116 63.489441,16.54281 103.782741,16.54281 40.2933,0 76.78347,-6.19165 103.78065,-16.54282 13.4986,-5.17558 24.65337,-11.36716 32.79099,-18.7439 8.13761,-7.37674 13.42731,-16.36163 13.42732,-26.27463 0,-9.91301 -5.28971,-18.8979 -13.42732,-26.27463 -8.13762,-7.37675 -19.29239,-13.56623 -32.79099,-18.74182 C 226.7845,94.63187 190.29435,88.43812 150.00104,88.43812 Z m 0,13.09954 c 38.94755,0 74.19554,6.12118 99.12727,15.68042 12.46586,4.77963 22.32278,10.44384 28.70596,16.23018 6.38318,5.78635 9.12289,11.27308 9.12289,16.55122 0,5.27813 -2.73971,10.76696 -9.12289,16.5533 -6.38318,5.78635 -16.2401,11.44847 -28.70596,16.22808 -24.93173,9.55924 -60.17972,15.68252 -99.12727,15.68253 -38.94756,-1e-5 -74.197619,-6.12328 -99.129362,-15.68253 -12.465867,-4.77961 -22.320687,-10.44173 -28.703866,-16.22807 -6.383174,-5.78635 -9.12497,-11.27519 -9.124972,-16.55331 0,-5.27814 2.741796,-10.76487 9.124974,-16.55122 6.383178,-5.78634 16.237995,-11.45055 28.703864,-16.23018 24.931741,-9.55924 60.181802,-15.68042 99.129362,-15.68042 z m 26.73829,48.46242 a 26.73916,26.851106 0 0 1 -26.73915,26.85111 26.73916,26.851106 0 0 1 -26.73915,-26.85111 26.73916,26.851106 0 0 1 26.73915,-26.85111 26.73916,26.851106 0 0 1 26.73915,26.85111 z M 6.5424157e-7,46.479387" />
</svg>
